<svg width="103" height="31" viewBox="0 0 103 31" version="1.1" xmlns="http://www.w3.org/2000/svg" xmlns:xlink="http://www.w3.org/1999/xlink">
<title>coop-logotype</title>
<desc>Created using Figma</desc>
<g id="Canvas" transform="translate(151 -1366)">
<g id="coop-logotype">
<g id="Vector">
<use xlink:href="#path0_fill" transform="translate(-150.545 1366.82)" fill="#000000" fill-opacity="0.3"/>
</g>
</g>
</g>
<defs>
<path id="path0_fill" d="M 87.3317 18.2924C 83.3797 18.2924 81.7768 15.2809 81.7768 11.9347C 81.7768 8.53275 83.4073 5.52119 87.3317 5.52119C 91.2838 5.52119 92.8867 8.53275 92.8867 11.9347C 92.9144 15.2809 91.2838 18.2924 87.3317 18.2924ZM 60.082 18.2924C 56.13 18.2924 54.5271 15.2809 54.5271 11.9347C 54.5271 8.53275 56.1576 5.52119 60.082 5.52119C 64.0341 5.52119 65.637 8.53275 65.637 11.9347C 65.637 15.2809 64.0341 18.2924 60.082 18.2924ZM 34.3523 18.2924C 30.4003 18.2924 28.7974 15.2809 28.7974 11.9347C 28.7974 8.53275 30.4003 5.52119 34.3523 5.52119C 38.3044 5.52119 39.9073 8.53275 39.9073 11.9347C 39.9073 15.2809 38.3044 18.2924 34.3523 18.2924ZM 87.3317 7.92534e-15C 80.8648 7.92534e-15 75.6138 2.73271 73.7069 7.61255C 71.8 2.73271 66.549 7.92534e-15 60.082 7.92534e-15C 54.3336 7.92534e-15 49.5525 2.14713 47.2034 6.05101C 44.8819 2.17502 40.1007 7.92534e-15 34.3523 7.92534e-15C 26.1719 7.92534e-15 19.926 4.37792 19.926 11.9068C 19.926 13.803 20.3129 15.5039 21.0591 16.9818C 20.9762 17.0097 20.8657 17.0655 20.7827 17.0934C 20.4235 17.2328 20.0089 17.3722 19.5667 17.5117C 18.4336 17.8184 17.1623 17.9857 15.8911 17.9857C 12.1878 17.9857 8.84372 15.6434 8.84372 12.0184C 8.84372 8.08659 11.6903 5.74427 15.3936 5.74427C 16.8031 5.77216 17.9085 5.85581 19.014 6.24619C 19.014 6.24619 20.2853 3.42983 22.4409 1.81251C 22.0264 1.61732 21.5842 1.42212 21.142 1.22693C 19.2075 0.390386 16.9413 7.92534e-15 14.3987 7.92534e-15C 6.21824 7.92534e-15 -8.43403e-07 4.37792 -8.43403e-07 11.9068C -8.43403e-07 19.4078 6.21824 23.7857 14.3987 23.7857C 16.5543 23.7857 18.9587 23.479 21.0315 22.8934C 21.8053 22.6982 23.6293 22.0848 24.9559 21.304C 27.4432 22.9213 30.7043 23.7857 34.3523 23.7857C 40.1007 23.7857 44.8819 21.6386 47.231 17.7347C 49.5801 21.6107 54.3612 23.7857 60.1097 23.7857C 65.8581 23.7857 70.6116 21.6386 72.9607 17.7626L 72.9607 29.8367L 81.7491 29.8367L 81.7491 23.005C 83.4626 23.5069 85.3419 23.7857 87.3594 23.7857C 95.5398 23.7857 101.758 19.4357 101.758 11.9068C 101.758 4.37792 95.5122 7.92534e-15 87.3317 7.92534e-15Z"/>
</defs>
</svg>
