<svg width="85" height="55" viewBox="0 0 85 55" version="1.1" xmlns="http://www.w3.org/2000/svg" xmlns:xlink="http://www.w3.org/1999/xlink">
<title>ios-people-outline</title>
<desc>Created using Figma</desc>
<g id="Canvas" transform="translate(489 -1655)">
<g id="ios-people-outline">
<g id="Group">
<g id="Group">
<g id="Vector">
<use xlink:href="#path0_fill" transform="translate(-472.873 1655)" fill="#0099A8"/>
</g>
</g>
<g id="Vector">
<use xlink:href="#path1_fill" transform="translate(-489 1664.16)" fill="#0099A8"/>
</g>
<g id="Vector">
<use xlink:href="#path2_fill" transform="translate(-430.66 1664.12)" fill="#0099A8"/>
</g>
</g>
</g>
</g>
<defs>
<path id="path0_fill" d="M 44.0558 42.5462C 41.4944 41.6485 38.7243 41.5912 36.1629 40.6934C 35.385 40.426 33.8482 40.1013 33.5257 39.2035C 33.2221 38.3249 33.2221 37.2935 33.1652 36.3766C 33.1272 35.6508 33.1083 34.9249 33.1083 34.1991C 33.1083 33.7216 34.3225 32.7092 34.5882 32.2699C 35.6127 30.5508 35.7076 28.2396 35.8973 26.2913C 37.548 26.7498 37.7567 23.6745 38.0413 22.7386C 38.25 22.0891 39.5212 17.6195 37.548 18.2307C 38.0223 17.3903 38.2121 16.3589 38.3449 15.4229C 38.7243 12.978 38.8761 10.3039 38.1362 7.91625C 36.5993 2.95001 31.875 0.161281 26.885 0.0084737C 21.8192 -0.163435 16.7344 2.28148 14.8371 7.22862C 13.9263 9.63533 14.0022 12.2522 14.3058 14.7735C 14.4386 15.9195 14.6283 17.1993 15.1975 18.2307C 13.3571 17.6768 14.3438 21.6116 14.5525 22.2992C 14.856 23.2734 15.1217 26.7689 16.8482 26.2913C 17 27.8385 17.1708 29.4239 17.5882 30.9329C 17.8728 31.9452 18.4609 32.8047 19.144 33.5879C 19.4855 33.9699 19.6562 34.0081 19.6373 34.5047C 19.6183 35.9946 19.6563 37.5991 19.2768 39.0507C 18.8973 40.5024 15.7288 41.1136 14.4576 41.3811C 11.0424 42.0878 7.89286 42.4125 5.04688 44.5518C 1.72656 47.0158 0 50.8551 0 55C 15.8047 55 31.6094 55 47.4141 55C 49.1975 55 50.9621 55 52.7455 55C 52.7455 49.3652 49.3683 44.399 44.0558 42.5462C 46.1998 43.2911 41.9308 41.8013 44.0558 42.5462ZM 5.71094 48.0473C 6.77344 46.9203 8.12054 45.9271 9.58147 45.3731C 11.5737 44.6091 13.8315 44.6473 15.8996 44.1125C 17.6071 43.6732 19.7321 42.9855 21.0603 41.744C 22.2746 40.5979 22.4074 38.8406 22.5212 37.2553C 22.6161 35.9182 22.5971 34.6002 22.5971 33.2632C 22.5971 32.3272 21.5156 31.7924 20.9844 31.0475C 20.1306 29.8823 20.0926 28.1441 19.9219 26.7498C 19.846 26.1385 19.827 25.3554 19.3147 24.9352C 18.7455 24.4767 18.3281 24.2284 18.0435 23.5026C 17.6641 22.5093 17.5312 21.4397 17.2277 20.4082C 17.0379 19.7397 17.702 19.1094 17.9676 18.5555C 18.4609 17.5431 17.6071 15.9768 17.4364 14.9263C 16.9051 11.7937 16.9241 8.37467 19.1629 5.89155C 23.6596 0.887115 33.9621 2.47249 35.442 9.50163C 35.8973 11.6982 35.6127 14.2578 35.0056 16.3971C 34.74 17.3139 34.4364 17.9824 34.9676 18.8802C 35.7645 20.179 35.423 21.0195 35.0435 22.4711C 34.74 23.6745 34.3605 24.2093 33.4498 24.9543C 32.6908 25.5655 32.8047 27.0936 32.6719 27.9722C 32.5201 29.0419 32.4252 30.1688 31.7801 31.0666C 31.5335 31.4104 30.1864 32.48 30.1864 32.8429C 30.1864 34.944 30.0915 37.0833 30.452 39.1653C 30.9453 42.126 33.4118 42.8327 35.8783 43.8451C 38.3828 44.8192 41.2857 44.4563 43.7143 45.6597C 46.2188 46.9012 48.6283 49.1742 49.3493 51.9821C 34.3036 51.9821 19.2578 51.9821 4.21205 51.9821C 3.94643 51.9821 3.6808 51.9821 3.41518 51.9821C 3.77567 50.3967 4.64844 49.1933 5.71094 48.0473C 4.59152 49.2506 7.45647 46.1945 5.71094 48.0473Z"/>
<path id="path1_fill" d="M 21.269 30.9435C 22.5971 30.2749 24.0391 30.1221 25.5 29.9693C 26.0312 29.912 26.2779 29.5491 25.8795 29.0334C 25.1205 28.0592 22.5022 27.8682 21.4018 27.4289C 20.7188 27.1615 20.529 26.9132 20.4721 26.1491C 20.4531 25.8053 20.2634 24.2773 20.529 24.0289C 20.7188 23.8379 21.9141 23.9143 22.1797 23.8761C 23.2612 23.7424 24.3616 23.5132 25.3862 23.1121C 25.8225 22.9402 26.24 22.7301 26.6194 22.4627C 27.0748 22.1189 26.2779 21.2784 26.0692 20.82C 25.4241 19.3874 25.1395 17.8212 25.0446 16.2549C 24.8549 13.1796 25.3292 10.0853 24.76 7.02914C 23.9062 2.34941 20.3203 0 15.7478 0C 12.9208 0 10.1317 0.974148 8.55692 3.45727C 6.81138 6.1887 6.90625 9.58866 7.00112 12.7021C 7.05804 14.4785 7.13393 16.274 6.88728 18.0504C 6.77344 18.8144 6.60268 19.5593 6.33705 20.2852C 6.12835 20.8391 5.06585 22.2144 5.48326 22.5009C 7.05804 23.6278 9.71428 24.0098 11.6116 23.857C 11.6685 24.793 11.8393 25.9963 11.4978 26.875C 10.9665 28.2503 7.00112 28.6132 5.8058 29.0143C 2.46652 30.1412 0 32.9491 0 36.6738C 3.4721 36.6738 6.92522 36.6738 10.3973 36.6738C 11.9531 36.6738 13.5089 36.6738 15.0837 36.6738C 15.3304 36.6738 16.279 34.8974 16.5446 34.6109C 17.8728 33.121 19.5045 31.8412 21.269 30.9435C 18.4989 32.3569 22.9766 30.0839 21.269 30.9435ZM 13.433 33.6176C 10.3404 33.6176 7.24777 33.6176 4.15513 33.6176C 5.50223 31.3637 8.87946 31.5165 11.0993 30.7143C 13.1484 29.9693 14.4576 28.7087 14.6663 26.5121C 14.6853 26.2638 14.7042 20.9346 14.4955 20.9346C 12.8449 20.8773 11.1183 20.9155 9.46763 20.6672C 10.7768 16.4077 9.52455 12.0145 10.2266 7.71677C 10.7388 4.60332 12.7121 2.88424 15.8616 2.88424C 18.8783 2.88424 21.1172 4.29771 21.7623 7.35385C 22.673 11.7853 21.3828 16.3122 22.7868 20.7054C 21.7433 20.9728 20.6429 21.011 19.5614 21.0492C 19.0301 21.0683 18.4799 21.0874 17.9487 21.1065C 17.6071 21.1256 17.721 21.7177 17.702 22.0043C 17.5123 24.0863 16.7533 27.3716 18.404 29.0525C 16.5826 30.1985 14.6094 31.7839 13.433 33.6176Z"/>
<path id="path2_fill" d="M 11.4436 36.7119C 16.5095 36.7119 21.5943 36.7119 26.6602 36.7119C 26.6602 32.9873 24.1747 30.1603 20.8354 29.0525C 19.2985 28.5558 16.3387 28.403 15.2383 27.066C 14.6881 26.3974 14.9916 24.6975 15.0485 23.8952C 15.8834 23.9716 16.7941 23.8379 17.6479 23.7233C 18.4258 23.6087 19.1847 23.4559 19.9247 23.1885C 20.2662 23.0548 20.6077 22.9211 20.9302 22.7301C 21.6702 22.2907 21.3287 22.2143 20.9492 21.5649C 18.8811 18.0695 19.8108 13.638 19.716 9.79875C 19.6401 6.6089 18.8052 3.11343 15.9213 1.31795C 13.322 -0.305629 9.47042 -0.362932 6.68136 0.783122C -1.36328 4.03028 3.38002 14.765 0.628902 20.9155C 0.154572 21.9469 -0.528462 22.3098 0.666851 22.9211C 1.33091 23.2649 2.0519 23.4941 2.77288 23.666C 3.87333 23.9334 5.01172 24.0862 6.15011 24.1244C 6.33984 24.1244 6.20703 26.5312 6.15011 26.7795C 5.9414 27.7154 3.91127 27.9828 3.15234 28.1929C 2.37444 28.403 1.08426 28.4603 0.7048 29.2817C 0.135603 30.5041 2.58314 30.1985 3.19029 30.3131C 5.14453 30.676 6.87109 31.7648 8.38895 33.0064C 9.50837 33.9232 11.0262 35.2221 11.4436 36.7119ZM 11.3677 31.5356C 10.4001 30.6378 9.39453 29.7592 8.27511 29.0525C 9.94475 27.3716 9.16685 24.1053 8.97712 22.0042C 8.86328 20.8009 8.59765 21.1065 7.40234 21.0683C 6.26395 21.0301 4.97377 21.0874 3.8923 20.7245C 5.25837 16.465 4.13895 12.0909 4.84096 7.75496C 5.37221 4.4887 7.59207 2.88422 10.8175 2.88422C 13.7394 2.88422 15.7506 4.35499 16.3577 7.27743C 17.2874 11.6897 15.8644 16.2549 17.2115 20.6481C 15.5988 20.8964 13.9291 20.8391 12.2974 20.8964C 11.899 20.9155 11.9369 25.6907 11.9749 26.1109C 12.1077 28.3457 13.1322 29.7019 15.2383 30.5614C 17.534 31.4974 21.12 31.2491 22.524 33.5985C 20.7595 33.5985 19.0139 33.5985 17.2494 33.5985C 16.1869 33.5985 15.1244 33.5985 14.043 33.5985C 12.6959 33.6176 12.3543 32.4333 11.3677 31.5356C 12.1267 32.2232 10.4191 30.6569 11.3677 31.5356Z"/>
</defs>
</svg>
