<svg width="55" height="55" viewBox="0 0 55 55" version="1.1" xmlns="http://www.w3.org/2000/svg" xmlns:xlink="http://www.w3.org/1999/xlink">
<title>ios-checkmark-outline</title>
<desc>Created using Figma</desc>
<g id="Canvas" transform="translate(-1328 -1359)">
<g id="ios-checkmark-outline">
<g id="Group">
<g id="Vector">
<use xlink:href="#path0_fill" transform="translate(1342.03 1376.47)" fill="#0099A8"/>
</g>
<g id="Group">
<g id="Vector">
<use xlink:href="#path1_fill" transform="translate(1329 1360)" fill="#0099A8"/>
<mask id="mask0_outline_out">
<rect id="mask0_outline_inv" fill="white" x="-1" y="-1" width="55" height="55" transform="translate(1329 1360)"/>
<use xlink:href="#path1_fill" fill="black" transform="translate(1329 1360)"/>
</mask>
<g mask="url(#mask0_outline_out)">
<use xlink:href="#path2_stroke_2x" transform="translate(1329 1360)" fill="#0099A8"/>
</g>
</g>
</g>
</g>
</g>
</g>
<defs>
<path id="path0_fill" d="M 24.1812 3.88806e-07L 8.28125 16.0147L 2.26779 10.0012L 3.88806e-07 12.269L 7.13462 19.4036C 7.45312 19.7221 7.8863 19.9769 8.26851 19.9769C 8.65072 19.9769 9.07115 19.7221 9.38966 19.4163L 26.4236 2.29327L 24.1812 3.88806e-07Z"/>
<path id="path1_fill" d="M 26.5 0C 11.8613 0 0 11.8613 0 26.5C 0 41.1387 11.8613 53 26.5 53C 41.1387 53 53 41.1387 53 26.5C 53 11.8613 41.1387 0 26.5 0ZM 26.5 50.7959C 13.1099 50.7959 2.20409 39.9029 2.20409 26.5C 2.20409 13.1099 13.0971 2.20409 26.5 2.20409C 39.8901 2.20409 50.7959 13.0971 50.7959 26.5C 50.7959 39.8901 39.8901 50.7959 26.5 50.7959Z"/>
<path id="path2_stroke_2x" d="M 26.5 -1C 11.309 -1 -1 11.309 -1 26.5L 1 26.5C 1 12.4136 12.4136 1 26.5 1L 26.5 -1ZM -1 26.5C -1 41.691 11.309 54 26.5 54L 26.5 52C 12.4136 52 1 40.5864 1 26.5L -1 26.5ZM 26.5 54C 41.691 54 54 41.691 54 26.5L 52 26.5C 52 40.5864 40.5864 52 26.5 52L 26.5 54ZM 54 26.5C 54 11.309 41.691 -1 26.5 -1L 26.5 1C 40.5864 1 52 12.4136 52 26.5L 54 26.5ZM 26.5 49.7959C 13.6618 49.7959 3.20409 39.3503 3.20409 26.5L 1.20409 26.5C 1.20409 40.4555 12.5579 51.7959 26.5 51.7959L 26.5 49.7959ZM 3.20409 26.5C 3.20409 13.6618 13.6497 3.20409 26.5 3.20409L 26.5 1.20409C 12.5445 1.20409 1.20409 12.5579 1.20409 26.5L 3.20409 26.5ZM 26.5 3.20409C 39.3382 3.20409 49.7959 13.6497 49.7959 26.5L 51.7959 26.5C 51.7959 12.5445 40.4421 1.20409 26.5 1.20409L 26.5 3.20409ZM 49.7959 26.5C 49.7959 39.3379 39.3379 49.7959 26.5 49.7959L 26.5 51.7959C 40.4424 51.7959 51.7959 40.4424 51.7959 26.5L 49.7959 26.5Z"/>
</defs>
</svg>
