<?xml version="1.0" encoding="utf-8"?>
<!-- Generator: Adobe Illustrator 21.1.0, SVG Export Plug-In . SVG Version: 6.00 Build 0)  -->
<svg version="1.1" id="Lager_1" xmlns="http://www.w3.org/2000/svg" xmlns:xlink="http://www.w3.org/1999/xlink" x="0px" y="0px"
	 viewBox="0 0 2403.6 415.2" style="enable-background:new 0 0 2403.6 415.2;" xml:space="preserve">
<style fill="color: #fff" type="text/css">
	.st0{fill:#fff;}
	.st1{fill:#fff;}
</style>
<g>
	<path class="st0" d="M137.9,220.5c0,20.2-16.5,36.8-36.8,36.8H36.8C16.6,257.3,0,240.8,0,220.5v-46h55.1v27.6h27.6V0h55.1
		L137.9,220.5L137.9,220.5z"/>
	<path class="st0" d="M194.9,261c-17.6,0-32-14.3-32-32c0-17.6,14.3-32,32-32c17.6,0,32,14.3,32,32C226.9,246.6,212.6,261,194.9,261
		z"/>
	<path class="st0" d="M416.2,257.3h-57.4l-5.1-27.6h-50l-5.1,27.6h-57.4L296.3,0H361L416.2,257.3z M343.8,180.1l-14.3-88.6
		l-16.2,88.6H343.8z"/>
	<path class="st0" d="M775,257.3h-55.1V140l-29.8,117.3h-21L639.7,140v117.3h-55.1V0h64.7l30.5,123.9L710.3,0H775V257.3z"/>
	<path class="st0" d="M968,257.3h-57.4l-5.1-27.6h-50l-5.1,27.6H793L848.1,0h64.7L968,257.3z M895.6,180.1l-14.3-88.6l-16.2,88.6
		H895.6z"/>
	<path class="st0" d="M1118.7,145.9c8.8,8.8,14.7,22.1,14.7,36.4v38.2c0,20.2-16.5,36.8-36.8,36.8h-73.5
		c-20.6,0-36.8-16.5-36.8-36.8v-46h55.1v27.6h36.8v-19.9l-77.2-76.1c-8.8-8.8-14.7-22.1-14.7-36.4V36.6c0-20.2,16.2-36.8,36.8-36.8
		h73.5c20.2,0,36.8,16.5,36.8,36.8v46h-55.1V55h-36.8v14.7L1118.7,145.9z"/>
	<path class="st0" d="M1327.6,257.3h-60.3l-34.9-84.2l-15.1,28.7v55.5h-55.1V0h55.1v104l48.5-104h57.4l-61,119.1L1327.6,257.3z"/>
	<path class="st0" d="M1393,257.3h-55.1V0h55.1V257.3z"/>
	<path class="st0" d="M1568.4,257.3h-50.7l-41.2-131.6v131.6h-55.1V0h58.1l33.8,114.7V0h55.1L1568.4,257.3L1568.4,257.3z"/>
	<path class="st0" d="M1713.2,27.5h-46v229.8h-27.6V27.5h-46V-0.1h119.5L1713.2,27.5L1713.2,27.5z"/>
	<path class="st0" d="M1845.6,257.3h-101.1V0h101.1v27.6H1772v79.8h55.1V135H1772v94.9h73.5v27.4H1845.6z"/>
	<path class="st0" d="M1948.9,118l66.2,139.3h-31.6l-50-109.9l-29,54.8v55.1h-27.6V0h27.6v150.4L1980.6,0h30.5L1948.9,118z"/>
	<path class="st0" d="M2156.9,257.3h-23.2L2065,66.9v190.4h-27.6V0h30.5l61.4,173.5V0h27.6V257.3z"/>
	<path class="st0" d="M2224.9,257.3h-27.6V0h27.6V257.3z"/>
	<path class="st0" d="M2337.4,118l66.2,139.3H2372l-50-109.9l-29,54.8v55.1h-27.6V0h27.6v150.4L2369.1,0h30.5L2337.4,118z"/>
</g>
<g>
	<rect x="484.7" y="-0.2" class="st1" width="16.4" height="415.4"/>
</g>
<g>
	<path d="M628.9,400.5c0,8.1-6.6,14.8-14.8,14.8h-29.5V311.9h29.5c8.1,0,14.8,6.6,14.8,14.8V400.5z M621.5,326.6
		c0-4.1-3.2-7.4-7.4-7.4H592v88.6h22.1c4.1,0,7.4-3.2,7.4-7.4V326.6z"/>
	<path d="M654.4,415.2H647V311.9h7.4V415.2z"/>
	<path d="M716.7,415.2h-5.6l-31.3-86.1v86.1h-7.4V311.9h8.6l28.3,79.3v-79.3h7.4V415.2z"/>
	<path d="M801.2,387.5c0-3.7-1.2-6.9-3.5-9.2l-27.3-27.2c-3.7-3.5-6.1-8.6-6.1-14.9v-9.6c0-8.1,6.6-14.8,14.8-14.8h14.8
		c8.1,0,14.8,6.6,14.8,14.8v14.8h-7.4v-14.8c0-4.1-3.2-7.4-7.4-7.4H779c-4,0-7.4,3.2-7.4,7.4v9.6c0,3.7,1.2,6.9,3.5,9.2l27.3,27.2
		c3.7,3.5,6.1,8.6,6.1,14.9v13c0,8.1-6.6,14.8-14.8,14.8H779c-8.1,0-14.8-6.6-14.8-14.8v-14.8h7.4v14.8c0,4.1,3.4,7.4,7.4,7.4h14.8
		c4.1,0,7.4-3.2,7.4-7.4L801.2,387.5L801.2,387.5z"/>
	<path d="M863.5,415.2h-36.9V311.9h36.9v7.4H834v37.6h22.1v7.4H834v43.6h29.5V415.2z"/>
	<path d="M911.2,369.7l10.9,45.5h-8.3l-9.7-45h-18.9v45h-7.4V311.9h29.5c8.3,0,14.8,6.6,14.8,14.8v28.7
		C922.1,362.2,917.5,368,911.2,369.7z M914.7,326.6c0-4.1-3.2-7.4-7.4-7.4h-22.1v43.6h22.1c4.1,0,7.4-3.2,7.4-7.4V326.6z"/>
	<path d="M989.7,311.9l-22.1,103.3h-10.9l-22.1-103.3h7.8l19.8,94.9l19.9-94.9H989.7z"/>
	<path d="M1009.9,415.2h-7.4V311.9h7.4V415.2z"/>
	<path d="M1072.2,400.5c0,8.1-6.6,14.8-14.8,14.8h-14.8c-8.1,0-14.8-6.6-14.8-14.8v-73.8c0-8.1,6.6-14.8,14.8-14.8h14.8
		c8.1,0,14.8,6.6,14.8,14.8v14.7h-7.4v-14.8c0-4.1-3.2-7.4-7.4-7.4h-14.8c-4,0-7.4,3.2-7.4,7.4v73.8c0,4.1,3.4,7.4,7.4,7.4h14.8
		c4.1,0,7.4-3.2,7.4-7.4v-14.8h7.4V400.5z"/>
	<path d="M1127.3,415.2h-36.9V311.9h36.9v7.4h-29.5v37.6h22.1v7.4h-22.1v43.6h29.5V415.2z"/>
	<path d="M1185.9,359.1c0,8.1-6.5,14.8-14.8,14.8H1149v41.3h-7.4V311.9h29.5c8.1,0,14.8,6.6,14.8,14.8V359.1z M1178.5,326.6
		c0-4.1-3.2-7.4-7.4-7.4H1149v47.2h22.1c4.1,0,7.4-3.2,7.4-7.4V326.6z"/>
	<path d="M1246.2,415.2h-8.3l-3.5-18.5h-31.7l-3.7,18.5h-8.3l22.1-103.3h11.2L1246.2,415.2z M1232.7,389.4l-14-68.5l-14.5,68.5
		H1232.7z"/>
	<path d="M1292.4,369.7l10.9,45.5h-8.3l-9.7-45h-18.9v45h-7.4V311.9h29.5c8.3,0,14.8,6.6,14.8,14.8v28.7
		C1303.3,362.2,1298.7,368,1292.4,369.7z M1295.9,326.6c0-4.1-3.2-7.4-7.4-7.4h-22.1v43.6h22.1c4.1,0,7.4-3.2,7.4-7.4V326.6z"/>
	<path d="M1361.9,319.2h-18.5v96h-7.4v-96h-18.5v-7.4h44.3L1361.9,319.2L1361.9,319.2z"/>
	<path d="M1420.5,415.2h-5.6l-31.3-86.1v86.1h-7.4V311.9h8.6l28.3,79.3v-79.3h7.4V415.2z"/>
	<path d="M1475.5,415.2h-36.9V311.9h36.9v7.4H1446v37.6h22.1v7.4H1446v43.6h29.5V415.2z"/>
	<path d="M1523.1,369.7l10.9,45.5h-8.3l-9.7-45h-18.9v45h-7.4V311.9h29.5c8.3,0,14.8,6.6,14.8,14.8v28.7
		C1534.1,362.2,1529.5,368,1523.1,369.7z M1526.7,326.6c0-4.1-3.2-7.4-7.4-7.4h-22.1v43.6h22.1c4.1,0,7.4-3.2,7.4-7.4V326.6z"/>
</g>
</svg>
