<svg xmlns="http://www.w3.org/2000/svg" viewBox="0 0 349.27 52.09"><defs><style>.cls-1{fill:#fff;}.cls-2{fill:#fff;}</style></defs><title>Asset 3</title><g id="Layer_2" data-name="Layer 2"><g id="Lager_1" data-name="Lager 1"><path class="cls-1" d="M99.73,25.27c0,.77.91,1.38,2,1.38s2-.62,2-1.38-.91-1.38-2-1.38-2,.62-2,1.38"/><path class="cls-1" d="M328.86,26.66c1.12,0,2-.62,2-1.38s-.91-1.38-2-1.38-2,.62-2,1.38.9,1.38,2,1.38"/><path class="cls-1" d="M145.87,35.28c-1.4.71-4.28,2.18-6.23,2.22-.43-.11-.55-.27-.55-.55a1.61,1.61,0,0,1,.52-1,6.78,6.78,0,0,0,1-1.35c.3-.52,8-8.88,8.55-9.23a14.59,14.59,0,0,0,2-1.79c.76-.79,1.49-1.44,2.15-2.2a6.73,6.73,0,0,0,1.5-2,1.47,1.47,0,0,0-1.35-1.26,5.14,5.14,0,0,0-1.53.63,11.17,11.17,0,0,0-2.18,1.67c-.78.74-1.53,1.47-2.23,2.2s-4.22,5.24-4.48,5.66-2.58,3.37-2.94,3.72-.58.33-.66-.05-.13-.73-.16-1.06a1.63,1.63,0,0,0-.52-1,1.84,1.84,0,0,0-1.12-.55,4.63,4.63,0,0,0-1.66.18,8.66,8.66,0,0,0-2.08.82,9.71,9.71,0,0,0-1.9,1.32q-.85.75-1.71,1.56A18.52,18.52,0,0,0,128.56,35l-.79,1c-.8.29-1.77.59-2.91.91-1.87.52-2.88.56-3,.13a3.15,3.15,0,0,1,.39-2c.4-.9.4-1.59,0-2.06a1.37,1.37,0,0,0-1.43-.52,8.53,8.53,0,0,0-2.2,1l-5,2.91A12.87,12.87,0,0,0,116.27,33a3.21,3.21,0,0,0,.16-1.86,1.71,1.71,0,0,0-1.24-1.24,4.91,4.91,0,0,0-2.16.52q-1,.45-2.74,1.35c-2.34,1.08-6.75,5.07-10.44,5.41a8.46,8.46,0,0,1-2.36-.22,1.53,1.53,0,0,1-1-1,2.34,2.34,0,0,1,0-1.58,6,6,0,0,1,.74-1.43,4.69,4.69,0,0,1,1.39-1.21,1.67,1.67,0,0,0,.94-1.38,1,1,0,0,0-.82-1.05,1.89,1.89,0,0,0-1.74.5c-.61.49-4.49,3-5.08,3.59s-6.6,4.87-10.56,5.09a18.19,18.19,0,0,1-3.16-.06,7,7,0,0,1-3.41-1.63,28.45,28.45,0,0,0,5.82-4.07,39.41,39.41,0,0,0,3.79-3.88,6.59,6.59,0,0,1,2-1.89l2.39-1c1.13-.45,2.37-.93,3.71-1.43a22.77,22.77,0,0,0,5.1-3.06,24.53,24.53,0,0,0,3.66-4.06A10.86,10.86,0,0,0,102.36,15l0-.91a3.42,3.42,0,0,0-.9-2.2,3,3,0,0,0-1.62-.76h-.66a7.37,7.37,0,0,0-2.21.93,32.51,32.51,0,0,0-2.78,2.06A31.79,31.79,0,0,0,91,17.06q-1.42,1.49-2.56,2.86a19.94,19.94,0,0,0-1.75,2.36A9.21,9.21,0,0,1,85.46,24a2.72,2.72,0,0,1-1.46.85,2.65,2.65,0,0,1-1.64-.22q-.83-.37-.72-1c.07-.4.56-.67,1.45-.82s1.32-.58,1.27-1.31-.3-1.14-.76-1.24a3.09,3.09,0,0,0-1.53.06,4.66,4.66,0,0,0-2.79,2.12,3.12,3.12,0,0,0-.49,1.46,2.9,2.9,0,0,0,.27,1.29,2.72,2.72,0,0,0,2.09,1.62,7.73,7.73,0,0,0,2,0q-2.39,2.46-3.75,3.65c-.9.8-1.8,1.55-2.69,2.27a11.28,11.28,0,0,1-2.88,1.68c-1,.41-1.72.48-2.09.21a6.3,6.3,0,0,1-1-.94c-.31-.36-.79-.87-1.47-1.54a5.2,5.2,0,0,0-1.93-1.32,5.3,5.3,0,0,0-2.06-.25,5.05,5.05,0,0,0-2,.52,4.52,4.52,0,0,0-1.43,1.1A5.11,5.11,0,0,0,61,34.41a5.68,5.68,0,0,0,1.15,3.06,4.5,4.5,0,0,0,2,1.33,11,11,0,0,0,2.24.44A6.53,6.53,0,0,0,68.63,39a7.24,7.24,0,0,1,2.5-.25,5.38,5.38,0,0,1,2.53.87,14.18,14.18,0,0,0,4.66,1.34h2.14a20.69,20.69,0,0,0,10.67-4.72,9.34,9.34,0,0,0,1.75-1.4c.43-.51.57-.52.43,0a4.54,4.54,0,0,0-.17,1.44,3,3,0,0,0,.49,1.44,3.49,3.49,0,0,0,1.18,1.15,6.42,6.42,0,0,0,2.33.61l1.32-.06c6-.18,9.19-3.62,10.5-4.53a11.32,11.32,0,0,1,3.14-1.68c.77-.2,1.09,0,1,.52a3.24,3.24,0,0,1-1,1.6c-.56.53-1.14,1-1.73,1.51a1.84,1.84,0,0,0-.83,1.58,1.37,1.37,0,0,0,.61,1.18,2.28,2.28,0,0,0,1.52.33,7.25,7.25,0,0,0,2.17-1.1,32.87,32.87,0,0,0,3.38-2.16c1.29-.93,1.84-1.08,1.65-.44a2.45,2.45,0,0,0,.1,1.77,2.55,2.55,0,0,0,1.79,1.23,8.19,8.19,0,0,0,4.3-.54c.47-.15.9-.29,1.29-.44a5.85,5.85,0,0,0-.17.61,2.32,2.32,0,0,0,.35,1.2,2.16,2.16,0,0,0,1.64.91,5.34,5.34,0,0,0,2-.35l1.33-.77c.55-.33,1.09-.62,1.61-.89s1.06-.59,1.63-1,1.09-.73,1.56-1.08q.15,1,.31,1.61c.11.41.46.67,1.06.79A18,18,0,0,0,146,36.82a4.68,4.68,0,0,1-.19-1.32c0-.07,0-.15,0-.22M89.93,22.38q.69-.93,1.93-2.28a33,33,0,0,1,2.66-2.58,21.33,21.33,0,0,1,2.4-1.85q1-.64,1.29-.46c.2.12.26.33.17.63a10,10,0,0,1-.47,1.26,6.2,6.2,0,0,1-1.32,1.79,18.53,18.53,0,0,1-2.75,2.22,13.58,13.58,0,0,1-3.19,1.72q-1.41.49-.72-.44M67.69,37.09a5.59,5.59,0,0,1-1.79-.24A4.72,4.72,0,0,1,64.35,36a1.88,1.88,0,0,1-.74-1.37q0-.8,1-1.1a3.19,3.19,0,0,1,1.93,0,15.44,15.44,0,0,1,3.63,2.6,5.63,5.63,0,0,1-2.45.94m69.11-4.2a4.21,4.21,0,0,1-.76,1.75,6.8,6.8,0,0,1-1.91,1.7,29.16,29.16,0,0,1-2.77,1.58c-1,.48-1.54.63-1.75.42s0-.66.51-1.4a20.55,20.55,0,0,1,1.7-2q.9-.94,2-1.88a9.1,9.1,0,0,1,1.79-1.28c.48-.24.83-.26,1.06,0s.28.61.17,1.21"/><path class="cls-1" d="M246.29,35.56c-.23-.06-.5.08-.82.41a4,4,0,0,1-1.39.84,10.91,10.91,0,0,1-2.34.58,24.75,24.75,0,0,1-3.29.25,12.17,12.17,0,0,1-3.09-.27,2.39,2.39,0,0,1-1.67-1.13,1,1,0,0,1,.08-1.34,7.57,7.57,0,0,1,1.63-1.1c.75-.4,1.48-.76,2.21-1.07a5.17,5.17,0,0,1,2.39-.41,1.77,1.77,0,0,0,1.81-.86,1.68,1.68,0,0,0,.11-1.67,1.39,1.39,0,0,0-1.07-.82,5.62,5.62,0,0,0-2.45.78,43.3,43.3,0,0,0-4.16,2.39,52.59,52.59,0,0,1-5.54,3,6.65,6.65,0,0,1,1.83-2.8c1.15-1.28,2.44-2.77,3.86-4.48S237,24.79,238,23.69s1.34-2.11,1-3l-.38,0a6.57,6.57,0,0,0-2.1,1.59c-.76.79-1.63,1.68-2.63,2.68S232,27,231.09,28a27.8,27.8,0,0,1-3.26,3.29,25.05,25.05,0,0,1-4.08,2.88,43,43,0,0,1-4.3,1.64,23.57,23.57,0,0,1-2.81.72c-1.27.26-2,.23-2.19-.09a.9.9,0,0,1,0-1,4.85,4.85,0,0,1,1.2-1.12,6.2,6.2,0,0,0,1.5-1.5,4.3,4.3,0,0,0,.75-1.53,3,3,0,0,0,0-1.15,1,1,0,0,0-.5-.74,2.28,2.28,0,0,0-1-.25,7.68,7.68,0,0,0-2.71.45,11.17,11.17,0,0,0-3.44,2.83,41,41,0,0,1-4.25,3.67,3.69,3.69,0,0,0-.43.26,5.84,5.84,0,0,1-1.79.79,3.31,3.31,0,0,1-1.74.08,1.13,1.13,0,0,1-.87-.59.61.61,0,0,1,.22-.73,9.5,9.5,0,0,0,1-1.17,2.45,2.45,0,0,0,.61-1.61c0-.51-.25-.71-.67-.61s-.63-.07-.6-.54a3,3,0,0,0-.16-1.24,2.07,2.07,0,0,0-.85-1,5.26,5.26,0,0,0-2.5-.49,7.88,7.88,0,0,0-2.21.5c-.54.23-1.28.6-2.22,1.12a14.92,14.92,0,0,0-3.07,2.36,14.59,14.59,0,0,1-2.3,1.75,13.77,13.77,0,0,1-1.67.76,15.25,15.25,0,0,1-2,.59,17,17,0,0,1-2.48.38q-1.32.11-1.08-.93a9.86,9.86,0,0,1,.53-1.73,19.8,19.8,0,0,1,1.4-2.39c.73-1.13,1.57-2.31,2.5-3.55A31.52,31.52,0,0,1,188.4,25,26.36,26.36,0,0,1,191,22.73a20.8,20.8,0,0,1,2.45-1.65c.77-.44,1.53-.86,2.27-1.26v-.6c-.06-.67-.33-1-.81-1.05a3.29,3.29,0,0,0-1.63.41c-.62.3-1.25.64-1.89,1s-1.43.91-2.37,1.6-2.1,1.59-3.46,2.69-2.48,2-3.35,2.74-1.9,1.52-3.1,2.39-2.57,1.89-4.13,3.05-2.06,1.25-1.48.25l1.63-2.8c.52-.87,1-1.76,1.52-2.66s1.09-1.92,1.75-3a28,28,0,0,1,2.39-3.45l2.76-3.46q1.34-1.72,2-2.47a2,2,0,0,0,.66-1.38,1.91,1.91,0,0,0-.44-1.14,1.54,1.54,0,0,0-2-.25,49.79,49.79,0,0,1-4.17,3.69q-2.08,1.66-5.23,4.27a63.85,63.85,0,0,0-5.81,5.46,52.8,52.8,0,0,1-5.66,5.24A29.91,29.91,0,0,1,157.16,34a29.55,29.55,0,0,1-4.6,1.81,6.69,6.69,0,0,1-2.75.34,1.22,1.22,0,0,1-1.05-1,2.21,2.21,0,0,1,.63-1.82,2.92,2.92,0,0,0,.8-1.54.54.54,0,0,0-.55-.6,3.12,3.12,0,0,0-1.47.38,4.48,4.48,0,0,0-1.61,1.31,5.84,5.84,0,0,0-1,2.64,4.44,4.44,0,0,0,.63,2.26,4.35,4.35,0,0,0,3.46,1.54c1.78,0,10.79-3.69,15.9-8.64q3.29-3,5.19-4.91t4.44-4.34a33.33,33.33,0,0,1,3.24-2.84q.71-.46.22.43c-.33.59-.69,1.17-1.08,1.75s-1,1.45-1.75,2.63-1.54,2.3-2.31,3.4-1.52,2.3-2.25,3.56a16.49,16.49,0,0,1-2.09,3,16.83,16.83,0,0,0-1.56,1.88,2.64,2.64,0,0,0-.5,1.67,1.64,1.64,0,0,0,.66,1.31,1.71,1.71,0,0,0,1.72,0,11.25,11.25,0,0,0,2.8-1.9,30.38,30.38,0,0,1,3.45-2.55c1.17-.74,2.18-1.41,3-2s1.79-1.28,2.8-1.95.93-.39-.24.84-2.1,2.26-2.8,3.05a9,9,0,0,0-1.65,2.8c-.4,1.07-.47,1.8-.2,2.17a2.39,2.39,0,0,0,1.49.82c4.88.24,9.49-1.78,10.22-2a2.29,2.29,0,0,0,.84-.45,2.6,2.6,0,0,0,2.42,2.31A7.48,7.48,0,0,0,193.8,39a10.09,10.09,0,0,0,2-.85,10.58,10.58,0,0,1,2.31-.91,3.78,3.78,0,0,0,1.55,1.48,5.61,5.61,0,0,0,2.7.53l.91,0a8.56,8.56,0,0,0,2-.4,5.13,5.13,0,0,0,1.9-1c.41-.36,2.72-2.8,3.74-3.82a11,11,0,0,1,2.83-2.38.85.85,0,0,1,.91.2c.21.23.11.56-.29,1a4.26,4.26,0,0,1-1.46,1,7,7,0,0,0-1.61,1,4.36,4.36,0,0,0-1.13,1.26,1.88,1.88,0,0,0-.24,1.35,2,2,0,0,0,.72,1.17,2.7,2.7,0,0,0,1.27.58,14.48,14.48,0,0,0,2,.11,43.21,43.21,0,0,0,7.44-2,23.77,23.77,0,0,0,3.72-1.89c-1.61,2-2.15,2.78-2.28,3.3a1.1,1.1,0,0,0,.64,1.29,1.26,1.26,0,0,0,.63.16,3,3,0,0,0,1.57-.6c.9-.61,1.82-1.2,2.74-1.78s1.82-1.18,2.7-1.81c-.15,1.36.09,2.24.72,2.63a6.84,6.84,0,0,0,3,.74,43.47,43.47,0,0,0,4.47.09,18.58,18.58,0,0,0,4-.46,7,7,0,0,0,2.49-1.07,2.63,2.63,0,0,0,1.1-1.59c-.12-.46-.3-.71-.53-.77m-46.64-2.33a2.63,2.63,0,0,1-1.1,1.25,17.9,17.9,0,0,1-2.12,1.29,13.88,13.88,0,0,1-2.28,1,1.69,1.69,0,0,1-1.6-.06.93.93,0,0,1-.19-1.18,5,5,0,0,1,1.48-1.75,13,13,0,0,1,2.32-1.57,5.87,5.87,0,0,1,2.14-.69c.66-.06,1.08.11,1.26.53a1.83,1.83,0,0,1,.11,1.22"/><path class="cls-1" d="M348.47,35.85a2.9,2.9,0,0,0-1.37.55,5.84,5.84,0,0,1-1.79.79,3.31,3.31,0,0,1-1.73.08,1.13,1.13,0,0,1-.87-.59.61.61,0,0,1,.22-.73,9.33,9.33,0,0,0,1-1.17,2.5,2.5,0,0,0,.61-1.61q0-.77-.68-.61c-.43.11-.63-.07-.6-.54a2.91,2.91,0,0,0-.16-1.24,2.06,2.06,0,0,0-.85-1,5.26,5.26,0,0,0-2.5-.49,7.93,7.93,0,0,0-2.22.5c-.54.23-1.27.6-2.22,1.12a14.72,14.72,0,0,0-3.07,2.36c-1.1,1.07-1.66,1.88-1.68,2.43,0,0,0,0,0,.07a2.05,2.05,0,0,0-.24.13,8.22,8.22,0,0,1-2.12.86,11.66,11.66,0,0,1-2.82.33,8.47,8.47,0,0,1-2.36-.22,1.52,1.52,0,0,1-1-1,2.31,2.31,0,0,1,0-1.58,5.76,5.76,0,0,1,.74-1.43,4.66,4.66,0,0,1,1.38-1.21,1.66,1.66,0,0,0,.94-1.38,1,1,0,0,0-.82-1.05c-1.64-.23-3.16,1.46-4.16,1.91-3.53,4.22-10.3,6.43-10.66,6.34s-.55-.27-.55-.55a1.58,1.58,0,0,1,.52-1,6.92,6.92,0,0,0,1-1.35c.29-.52,6.33-6.09,6.86-6.44a13.12,13.12,0,0,0,1.92-1.72q1.13-1.18,2.12-2.33a6.12,6.12,0,0,0,1.3-2.18,1.88,1.88,0,0,0-.39-.87,2,2,0,0,0-1-.39,5,5,0,0,0-1.53.63A11,11,0,0,0,317.54,23q-1.16,1.1-2.24,2.2l-1.72,1.77a16.65,16.65,0,0,0-1.51,2c-.58.86-1,1.5-1.26,1.93a6.1,6.1,0,0,1-.95,1.15c-.37.34-.58.33-.66-.05a9.53,9.53,0,0,1-.16-1.06,1.59,1.59,0,0,0-.52-1,1.84,1.84,0,0,0-1.11-.55,4.64,4.64,0,0,0-1.67.18,8.58,8.58,0,0,0-2.08.82,9.64,9.64,0,0,0-1.9,1.32q-.85.75-1.71,1.56A18.66,18.66,0,0,0,298.38,35l-.52.63a.48.48,0,0,0-.2,0,8,8,0,0,0-1.26.51,12.2,12.2,0,0,1-2.09.71,11.33,11.33,0,0,1-3.32.22,6,6,0,0,1-2.61-.5c-.39-.27-.54-.51-.47-.72s.59-.47,1.56-.74a7.22,7.22,0,0,0,2.59-1.33,3.11,3.11,0,0,0,1.26-2.21,1.8,1.8,0,0,0-.61-1.78,3.05,3.05,0,0,0-1.7-.53l-.72,0c-2.73,0-4.83,3.82-5.1,4.4a4.64,4.64,0,0,0-.34,1.34,21.87,21.87,0,0,1-2.13,1.24,10.41,10.41,0,0,1-3,1.13c-.73.1-1,0-.82-.41a7.18,7.18,0,0,1,.93-1.35,2.11,2.11,0,0,0,.55-1.59,1.7,1.7,0,0,0-1-1.29,3.26,3.26,0,0,0-2.39-.09,17.44,17.44,0,0,0-2.88,1l-2.33,1.07-2.17,1a12,12,0,0,1-2.12.74c-.61.13-.7-.16-.27-.89a2.68,2.68,0,0,0,.33-2.18,1.7,1.7,0,0,0-1.3-1.32,5.12,5.12,0,0,0-2.6.3q-1.6.52-2.79,1a17.17,17.17,0,0,0-2.22,1.14,16.26,16.26,0,0,1-2.32,1.2,7.5,7.5,0,0,1-1.92.62c-.42,0-.36-.17.17-.64s1.21-1,2-1.7a10.25,10.25,0,0,0,1.95-2,4,4,0,0,0,.79-1.57,1.23,1.23,0,0,0-.4-1,3,3,0,0,0-1.72-.66h-.44a14.31,14.31,0,0,0-3.11,1.11,20.57,20.57,0,0,0-3.15,1.94Q249,33,247.64,34.11a14.62,14.62,0,0,0-1.59,1.47,1.07,1.07,0,0,0-.24.66,1,1,0,0,0,.47.71c.23.12.87-.26,1.89-1.12l1.16-.94q2.33-1.76,3.56-2.51a10.62,10.62,0,0,1,2.28-1.1c.7-.24,1.14-.2,1.29.09s-.12.74-.83,1.33-1.46,1.17-2.22,1.72-1.67,1.15-2.71,1.81a8,8,0,0,0-2,1.57.88.88,0,0,0-.19,1,.8.8,0,0,0,.66.44c.28,0,.65,0,1.09,0A7.23,7.23,0,0,0,252,39a22.17,22.17,0,0,0,2.93-1q1.82-.72,3.66-1.54c1.22-.55,2.21-1,2.94-1.23a8.08,8.08,0,0,1,2.27-.49c.78-.05,1,.17.78.67a3.94,3.94,0,0,1-1.3,1.42,2.41,2.41,0,0,0-1.05,1.76c0,.42.38.63,1.07.63h.12a13.57,13.57,0,0,0,3-.63l3.82-1.15a23.64,23.64,0,0,0,3.14-1.13,25,25,0,0,1,2.57-1c.91-.31,1.22-.18.93.39a4.18,4.18,0,0,1-1.07,1.35,1,1,0,0,0-.27,1.32c.24.54,1.14.85,2.69.92a12.94,12.94,0,0,0,5.16-1.72c.57-.35,1.06-.67,1.45-1a3.05,3.05,0,0,0,.53,1.14,3.6,3.6,0,0,0,1.24.93,10.36,10.36,0,0,0,3.1.62h.85a15.19,15.19,0,0,0,3.58-.53,14.28,14.28,0,0,0,2-.77,4.27,4.27,0,0,0-.22.73,2.26,2.26,0,0,0,.35,1.2,2.14,2.14,0,0,0,1.63.91,5.3,5.3,0,0,0,2-.35l1.34-.77c.56-.33,1.09-.62,1.6-.89s1.06-.59,1.63-1,1.1-.73,1.56-1.08c.1.67.21,1.21.31,1.61s.46.67,1.05.79,6,0,11-4.44c.43-.51.57-.52.44,0a4.32,4.32,0,0,0-.17,1.44,2.94,2.94,0,0,0,.49,1.44,3.52,3.52,0,0,0,1.18,1.15,6.44,6.44,0,0,0,2.33.61l1.32-.06c1.2-.15,2.26-.32,3.19-.53a14.42,14.42,0,0,0,2.16-.63,13.06,13.06,0,0,0,1.43-.72,2.26,2.26,0,0,0,.64,1,2.59,2.59,0,0,0,1.66.74,7.47,7.47,0,0,0,2.12-.29,9.87,9.87,0,0,0,2-.85,10.43,10.43,0,0,1,2.31-.91,3.72,3.72,0,0,0,1.54,1.48,5.61,5.61,0,0,0,2.71.53l.91,0a8.54,8.54,0,0,0,2-.4,5.07,5.07,0,0,0,1.91-1,2,2,0,0,0,.69-1.51.72.72,0,0,0-.8-.47M288.27,33a3.6,3.6,0,0,1,1.34-1c.65-.33,1-.35,1.07,0s-.12.66-.55,1a8,8,0,0,1-2.56,1.2,10,10,0,0,1,.71-1.18m18.36-.07a4.25,4.25,0,0,1-.75,1.75A6.79,6.79,0,0,1,304,36.33a29.49,29.49,0,0,1-2.77,1.58c-1,.48-1.54.63-1.74.42s0-.66.5-1.4a20.62,20.62,0,0,1,1.7-2q.9-.94,2-1.88a9.5,9.5,0,0,1,1.79-1.28c.49-.24.84-.26,1.06,0s.28.61.17,1.21m34.48.35a2.65,2.65,0,0,1-1.1,1.25,17.68,17.68,0,0,1-2.12,1.29,13.56,13.56,0,0,1-2.28,1,1.69,1.69,0,0,1-1.6-.06.92.92,0,0,1-.19-1.18,5,5,0,0,1,1.47-1.75,13.09,13.09,0,0,1,2.31-1.57,5.9,5.9,0,0,1,2.14-.69c.66-.06,1.08.11,1.26.53a1.83,1.83,0,0,1,.11,1.22"/><path class="cls-2" d="M1.73,30.26a11,11,0,0,1-1.3.68c-.13-.66-.23-1.33-.3-2C.61,29.31,1.14,29.75,1.73,30.26Z"/><path class="cls-2" d="M10.45,41a7.81,7.81,0,0,1-3.23.4A1.47,1.47,0,0,1,6,40.24a2.66,2.66,0,0,1,.75-2.14,3.44,3.44,0,0,0,.94-1.81.64.64,0,0,0-.64-.7A3.7,3.7,0,0,0,5.3,36a5,5,0,0,0-1.88,1.54,3.06,3.06,0,0,0-.42.68,25.38,25.38,0,0,1-2-4.91,9.1,9.1,0,0,1,1.89-.07,5.85,5.85,0,0,1,1.36.27A11.49,11.49,0,0,0,10,35.61a23.31,23.31,0,0,0,7.66-.36c.45-.1.91-.19,1.39-.31l.49-.13.45-.12.72-.21a33.18,33.18,0,0,0,3.37-1.16q-.75.64-1.53,1.26a35.13,35.13,0,0,1-6.71,4.32A36,36,0,0,1,10.45,41Z"/><path class="cls-2" d="M.7,25.62C.46,25.38.22,25.17,0,25A26.06,26.06,0,0,1,34.52,1.42a9.14,9.14,0,0,0-1.36.69A37.3,37.3,0,0,0,29.9,4.52a37.48,37.48,0,0,0-3.72,3.41q-1.65,1.74-3,3.35a23.51,23.51,0,0,0-2,2.76,11.88,11.88,0,0,1-1.47,2A3.22,3.22,0,0,1,18,17,3.16,3.16,0,0,1,16,16.75c-.65-.3-.94-.68-.85-1.14s.65-.79,1.69-1,1.55-.69,1.5-1.53-.35-1.34-.89-1.45a3.63,3.63,0,0,0-1.78.07,5.17,5.17,0,0,0-1.84.9,5.37,5.37,0,0,0-1.42,1.58,3.56,3.56,0,0,0-.57,1.72,3.32,3.32,0,0,0,.31,1.5,3.41,3.41,0,0,0,.94,1.24,3.31,3.31,0,0,0,1.51.66,8.89,8.89,0,0,0,2.3,0c-1.87,1.92-3.33,3.34-4.38,4.28s-2.11,1.82-3.15,2.65a13.28,13.28,0,0,1-3.36,2c-1.21.48-2,.56-2.45.24a7.33,7.33,0,0,1-1.19-1.11Q1.88,26.79.7,25.62Z"/><path class="cls-2" d="M34.59,5.76c.24.13.3.38.21.73A14.54,14.54,0,0,1,34.25,8a7.37,7.37,0,0,1-1.55,2.09,22.11,22.11,0,0,1-3.22,2.6,15.93,15.93,0,0,1-3.74,2c-1.1.39-1.39.22-.84-.51s1.29-1.62,2.26-2.67a38.67,38.67,0,0,1,3.11-3,25.56,25.56,0,0,1,2.81-2.17C33.86,5.8,34.36,5.62,34.59,5.76Z"/><path class="cls-2" d="M39.65,40.25c-.12.18-2.94,4.47,0,7.56l.25.27A26.06,26.06,0,0,1,8.1,45c3.42-.84,12.31-4.82,17.62-10,2.57-2.31,4.59-4.22,6.08-5.75S35,26,37,24.14A39.77,39.77,0,0,1,40.8,20.8c.56-.36.64-.19.26.5s-.8,1.36-1.27,2c-.09.12-.19.27-.29.42L28.7,39.54c-.22.27-.42.53-.59.77a4.41,4.41,0,0,0-.29.51h0a3,3,0,0,0-.3,1.44,1.9,1.9,0,0,0,.78,1.53,2,2,0,0,0,2,0,10.86,10.86,0,0,0,2.38-1.5h0l10.38-7.45q.68-.48,1.41-1,1.77-1.18-.28,1c-1.37,1.45-2.46,2.65-3.28,3.58a10,10,0,0,0-1.26,1.8Z"/><path class="cls-2" d="M27.82,16.66c8.87-3.93,11.34-10.48,11.5-10.92,0,0,0,0,0,0a5.31,5.31,0,0,0,.13-.89V4.48a2.11,2.11,0,0,0,0-.21c0-.22-.07-.42-.11-.61a26.09,26.09,0,0,1,8.84,8.7A2.35,2.35,0,0,0,47,12.7,58,58,0,0,1,42.13,17c-1.64,1.3-3.68,3-6.14,5-1.24,1-2.43,2.09-3.57,3.16l0,.05a24.88,24.88,0,0,1-5.38,4c-4.06,1.66-9.4,3.55-12.15,3.71a20.73,20.73,0,0,1-3.7-.08,8.2,8.2,0,0,1-4-1.9A33.47,33.47,0,0,0,14,26.19a47.29,47.29,0,0,0,4.44-4.55,7.71,7.71,0,0,1,2.33-2.21l1-.42h0l1.75-.7,1.34-.52s0,0,0,0Z"/><path class="cls-2" d="M49.29,32.07a37.2,37.2,0,0,1,2.61-3.13,26,26,0,0,1-7.59,15.64,3.31,3.31,0,0,1-.12-.45,6.76,6.76,0,0,1,.1-3.87h0A9.92,9.92,0,0,1,44.72,39a23,23,0,0,1,1.64-2.8C47.21,34.91,48.2,33.52,49.29,32.07Z"/><path class="cls-2" d="M46.76,18.84c1.06-1.34,1.85-2.3,2.4-2.89a4.43,4.43,0,0,0,.54-.74A25.59,25.59,0,0,1,52,24.75c-.85.65-1.82,1.41-2.9,2.28-1.6,1.29-2.9,2.37-3.93,3.21S43,32,41.56,33.05s-3,2.21-4.85,3.57-2.41,1.47-1.74.3l1.92-3.28c.6-1,1.2-2.06,1.79-3.12s1.27-2.25,2-3.58a33.54,33.54,0,0,1,2.8-4Q45.18,20.86,46.76,18.84Z"/></g></g></svg>
