<svg width="155" height="88" viewBox="0 0 155 88" version="1.1" xmlns="http://www.w3.org/2000/svg" xmlns:xlink="http://www.w3.org/1999/xlink">
<title>Logo</title>
<desc>Created using Figma</desc>
<g id="Canvas" transform="translate(525 487)">
<g id="Logo">
<g id="Vector">
<use xlink:href="#path0_fill" transform="translate(-525 -451.927)" fill="#0099A8"/>
</g>
<g id="Vector">
<use xlink:href="#path1_fill" transform="translate(-516.516 -453.409)" fill="#000"/>
</g>
<g id="Vector">
<use xlink:href="#path2_fill" transform="translate(-489.689 -453.295)" fill="#000"/>
</g>
<g id="Vector">
<use xlink:href="#path3_fill" transform="translate(-465.958 -453.409)" fill="#000"/>
</g>
<g id="Vector">
<use xlink:href="#path4_fill" transform="translate(-443.487 -453.181)" fill="#000"/>
</g>
<g id="Vector">
<use xlink:href="#path5_fill" transform="translate(-415.17 -453.181)" fill="#000"/>
</g>
<g id="Vector">
<use xlink:href="#path6_fill" transform="translate(-471.053 -487)" fill="#E43D30"/>
</g>
</g>
</g>
<defs>
<path id="path0_fill" d="M 0 -8.69468e-07C 12.0377 34.8726 54.1124 52.7648 94.5821 40.1149C 98.1361 38.9753 101.002 37.7217 101.002 37.7217C 101.461 43.9897 98.824 49.4599 91.8306 50.9414C 52.8513 59.8305 12.9549 38.1776 0 -8.69468e-07Z"/>
<path id="path1_fill" d="M 2.52219 7.74947C 3.43935 1.93737 8.36908 4.04877e-15 15.5917 4.04877e-15C 17.9993 4.04877e-15 22.2411 0.341889 24.534 0.569814L 20.8654 24.0462L 15.3624 24.0462L 16.5089 16.7525L 6.76405 16.7525L 5.6176 24.0462L 1.09334e-07 24.0462L 2.52219 7.74947ZM 17.1967 11.9661L 18.3432 4.9004C 17.3114 4.78644 15.9357 4.67248 14.5599 4.67248C 11.1206 4.67248 8.59837 5.24229 8.25444 7.63551L 7.45192 11.9661L 17.1967 11.9661Z"/>
<path id="path2_fill" d="M -8.74672e-07 4.34734e-07L 6.19083 0.113964L 9.51553 18.0061L 19.6043 0.227925L 25.4512 0.341888L 10.662 24.0462L 5.84689 23.9322L -8.74672e-07 4.34734e-07Z"/>
<path id="path3_fill" d="M 2.17826 5.58418C 2.75148 2.27926 3.66864 0 12.1524 0C 15.5917 0 20.0629 0.227925 22.2411 0.455851L 21.324 5.12833C 19.2604 4.9004 15.5917 4.78644 13.1842 4.78644C 8.59837 4.78644 7.68121 5.47022 7.45192 6.95173L 6.99334 9.91477L 19.0311 9.91477L 18.3432 14.4733L 6.30547 14.4733C 5.73225 17.6642 5.73225 17.7782 5.73225 17.8922C 5.73225 19.0318 6.76406 19.6016 10.7766 19.6016C 13.2988 19.6016 17.426 19.3737 19.1457 19.2597L 18.4578 23.9322C 16.2796 24.1601 11.6938 24.3881 8.36908 24.3881C 1.14645 24.3881 -1.6292e-14 22.7926 -1.6292e-14 20.2854C -1.6292e-14 19.8295 0.114643 19.1458 0.114643 18.8039L 2.17826 5.58418Z"/>
<path id="path4_fill" d="M 3.66864 8.69468e-07L 8.71301 8.69468e-07L 18.8018 15.8408L 21.0947 8.69468e-07L 26.483 8.69468e-07L 22.8144 23.9322L 18.3432 23.9322L 7.68122 7.86344L 5.38832 23.9322L -1.74934e-06 23.9322L 3.66864 8.69468e-07Z"/>
<path id="path5_fill" d="M 7.9105 4.55852L 3.49869e-06 4.55852L 0.687872 8.69468e-07L 22.0118 8.69468e-07L 21.324 4.55852L 13.4135 4.55852L 10.4327 23.9322L 4.92973 23.9322L 7.9105 4.55852Z"/>
<path id="path6_fill" d="M 101.053 52.8509C 89.015 18.0923 46.9402 0.200098 6.47057 12.85C 2.91658 13.9896 0.0504503 15.2432 0.0504503 15.2432C -0.40813 8.97524 2.2287 3.50502 9.22205 2.0235C 48.2013 -6.97956 88.0978 14.7873 101.053 52.8509Z"/>
</defs>
</svg>
