<?xml version="1.0" encoding="utf-8"?>
<!-- Generator: Adobe Illustrator 16.0.0, SVG Export Plug-In . SVG Version: 6.00 Build 0)  -->
<!DOCTYPE svg PUBLIC "-//W3C//DTD SVG 1.1//EN" "http://www.w3.org/Graphics/SVG/1.1/DTD/svg11.dtd">
<svg version="1.1" id="Lager_1" xmlns="http://www.w3.org/2000/svg" xmlns:xlink="http://www.w3.org/1999/xlink" x="0px" y="0px"
	 width="283.46px" height="283.46px" viewBox="0 0 283.46 283.46" enable-background="new 0 0 283.46 283.46" xml:space="preserve">
<g>
	<path fill="#fff" d="M170.112,13.506L87.338,96.279l17.507,17.508c-0.147-1.871-0.217-3.788-0.217-5.752
		c0-8.754,1.499-16.504,4.249-23.759c2.75-7.251,7.251-13.25,13.007-18.255c5.752-5,13.251-9.002,22.257-11.752
		c9.001-2.75,19.506-4.253,31.757-4.253h58.02v81.205l36.762-36.762V13.506H170.112z"/>
	<polygon fill="#fff" points="48.361,234.574 48.361,134.463 11.851,170.974 11.851,271.084 93.257,271.084 129.767,234.574 	"/>
	<path fill="none" d="M109.13,132.29c2.998,7.255,7.502,13.507,13.502,18.759c6.004,5.252,13.506,9.254,22.256,12.252
		c3.846,1.281,7.925,2.288,12.248,3.024c0.101,0.02,0.201,0.035,0.302,0.054c5.709,0.949,11.849,1.426,18.46,1.426h27.761v41.759
		h-48.882H78.62V50.016H48.361v84.447v100.111h81.406h104.151V131.221V50.016h-58.02c-12.251,0-22.756,1.503-31.757,4.253
		c-9.006,2.75-16.505,6.751-22.257,11.752c-5.756,5.004-10.257,11.004-13.007,18.255c-2.75,7.255-4.249,15.005-4.249,23.759
		c0,1.964,0.07,3.881,0.217,5.752c0.004,0.089,0.012,0.182,0.02,0.271C105.392,120.658,106.813,126.697,109.13,132.29z
		 M137.638,93.529c1.499-4.501,4.253-8.002,7.503-11.004c3.25-2.998,7.503-5.252,12.755-6.751s11.252-2.25,18.003-2.25h27.761
		v70.274h-27.761c-6.751,0-12.503-0.751-17.755-2.502c-5.001-1.75-9.254-4.253-12.751-7.254c-3.502-2.998-6.004-6.751-7.755-11.252
		c-1.751-4.249-2.502-9.253-2.502-14.753C135.136,102.531,135.887,97.782,137.638,93.529z"/>
	<path fill="#FFFEFE" d="M145.393,134.041c3.497,3.001,7.75,5.504,12.751,7.254c5.252,1.751,11.004,2.502,17.755,2.502h27.761
		V73.523h-27.761c-6.751,0-12.751,0.751-18.003,2.25s-9.505,3.753-12.755,6.751c-3.25,3.001-6.004,6.503-7.503,11.004
		c-1.751,4.253-2.502,9.001-2.502,14.506c0,5.5,0.751,10.504,2.502,14.753C139.388,127.29,141.891,131.043,145.393,134.041z"/>
	<path fill="#FFFEFE" d="M48.361,50.016H78.62v159.547h76.158l22.799-22.799l-20.439-20.439c-4.323-0.736-8.402-1.743-12.248-3.024
		c-8.75-2.998-16.252-7-22.256-12.252c-6-5.252-10.504-11.504-13.502-18.759c-2.316-5.593-3.738-11.632-4.265-18.232
		c-0.008-0.089-0.016-0.182-0.02-0.271L87.338,96.279l82.774-82.773H11.851v157.468l36.51-36.511V50.016z"/>
	<polygon fill="#FFFEFE" points="233.918,234.574 129.767,234.574 93.257,271.084 270.68,271.084 270.68,94.459 233.918,131.221
		"/>
	<path fill="#FFFEFE" d="M203.659,167.805h-27.761c-6.611,0-12.751-0.477-18.46-1.426c-0.101-0.019-0.201-0.034-0.302-0.054
		l20.439,20.439l-22.799,22.799h48.882V167.805z"/>
</g>
</svg>
