<svg id="Lager_1" xmlns="http://www.w3.org/2000/svg" viewBox="0 0 821.7 103">
  <style>
    .st0{fill:#FFFFFF;}
  </style>
  <path class="st0" d="M58.4 24.9c-2.1.6-3.8 1.5-5.1 2.7s-2.4 2.6-3 4.4c-.7 1.7-1 3.6-1 5.8 0 2.2.3 4.2 1 5.9.7 1.8 1.7 3.3 3.1 4.5 1.4 1.2 3.1 2.2 5.1 2.9 2.1.7 4.4 1 7.1 1h11.1V24H65.6c-2.7 0-5.1.3-7.2.9z"/>
  <path class="st0" d="M0 103h103.5V0H0v103zm14.6-88.4h12.1v63.8h50V61.7H65.6c-4.7 0-8.8-.6-12.4-1.8-3.5-1.2-6.5-2.8-8.9-4.9-2.4-2.1-4.2-4.6-5.4-7.5-1.2-2.9-1.8-6.1-1.8-9.7 0-3.5.6-6.6 1.7-9.5 1.1-2.9 2.9-5.3 5.2-7.3s5.3-3.6 8.9-4.7 7.8-1.7 12.7-1.7h23.2v73.8H14.6V14.6zM134.9 24.4h-9.7v60h42V76h-32.3zM171.6 38.9h9.7v45.5h-9.7zM210.6 38c-3.4 0-6.4.7-9.1 2.1-2.7 1.4-4.7 3.5-6.3 6.4l-.5-7.6H186v45.5h9.7V60.3c0-4.8 1.3-8.5 3.6-10.8 2.4-2.3 5.4-3.5 8.8-3.5 6.5 0 9.7 4 9.7 12v26.4h9.7V55c0-5.5-1.6-9.7-4.8-12.6-2.9-2.9-7-4.4-12.1-4.4zM266.8 45.4c-1.4-2.6-3.3-4.6-5.9-6.1-2.6-1.5-5.5-2.2-8.8-2.2-6.2 0-11.2 2.1-14.7 6.3-3.6 4.2-5.5 10-5.5 17.4 0 7.4 1.8 13.2 5.5 17.4 3.6 4.2 8.5 6.2 14.7 6.2 3.5 0 6.5-.8 9.2-2.5 2.7-1.6 4.7-3.8 6.1-6.5v9h9.1V17.7l-9.7 2.7v25zm0 15.9c0 4.8-1.1 8.5-3.4 11.2-2.2 2.7-5.2 4.1-9.1 4.1-4 0-7.1-1.4-9.3-4.2-2.2-2.8-3.3-6.7-3.3-11.6 0-5 1.1-8.8 3.3-11.6 2.2-2.7 5.3-4.2 9.3-4.2 3.8 0 6.8 1.4 9.1 4 2.3 2.7 3.4 6.4 3.4 11.2v1.1zM344.2 39.9c-2.6-1.3-5.4-1.9-8.4-1.9-3.3 0-6.4.8-9.2 2.3-2.9 1.5-5.1 3.8-6.4 6.8-1.4-3-3.4-5.2-6.1-6.8-2.7-1.5-5.8-2.3-9.2-2.3-3.1 0-6 .7-8.5 2.2-2.6 1.4-4.7 3.5-6.2 6.3l-.5-7.6H281v45.5h9.7V60.2c0-3.2.6-5.9 1.7-8 1.2-2.2 2.7-3.7 4.5-4.7 1.8-1 3.7-1.5 5.6-1.5 2.8 0 5.1.9 6.8 2.6 1.7 1.7 2.5 4.3 2.5 7.9v27.9h9.7V59.7c0-4.3 1.1-7.6 3.4-10 2.3-2.4 5.1-3.6 8.4-3.6 2.8 0 5.1.9 6.8 2.6 1.7 1.7 2.6 4.3 2.6 7.9v27.9h9.7V55c0-3.7-.7-6.8-2.3-9.4-1.4-2.6-3.4-4.5-5.9-5.7zM415 47.1v-8.2h-9.1v45.5h9.7V61.6c0-1.2.2-2.1.3-2.1 1.1-3.2 6.1-15 16.8-11.7v-9.4c-1-.3-2-.4-3.4-.4-7 0-11.8 3.1-14.3 9.1zM480 38.9h-11.5l-21.7 22.3V19l-9.7 2.8v62.6h9.7V72.3l9-9.3 14 21.4h11.3l-18.5-27.7zM504 84.4c-3.7 0-6.8-.6-9.5-1.9-2.7-1.2-4.9-3-6.4-5.2s-2.2-4.8-2.2-7.5c0-3.6 1.1-6.8 3.1-9.6 2.1-2.8 5.8-5.6 10.8-8.2l.9-.5-.6-.8c-2.6-3.5-4.4-6.1-5.3-8-.9-1.9-1.4-3.9-1.4-6 0-2.2.5-4.2 1.5-6 1-1.9 2.5-3.4 4.5-4.6 2-1.2 4.4-1.8 7.2-1.8 3.8 0 6.9.9 9.5 2.8 2.5 1.9 3.7 4.7 3.7 8.7 0 3.3-.8 6.1-2.3 8.5-1.5 2.4-4.6 5-9.1 7.6l-.8.5.5.8c1 1.4 3.1 4 6.1 7.6l3.2 4.1 4.8 5.7.6-1c2.7-4.3 4-9.4 4-15.1v-.9h4l.1 1.4c0 3.2-.5 6.5-1.4 9.6-1 3.1-2.3 6-4 8.5l-.4.6.5.5c2.4 2.5 4.4 4.2 6.1 5.1.9.4 1.8.7 2.8 1v4c-1.7-.1-3.3-.5-4.7-1.2-1.8-.9-4.2-2.7-6.9-5.5l-.6-.6-.6.6c-2.3 2.2-4.9 3.8-7.8 5-3.1 1.3-6.3 1.8-9.9 1.8zm-1.4-29.2c-4.4 2.6-7.5 4.9-9.2 7-1.6 2.1-2.5 4.5-2.5 7 0 3.3 1.3 5.9 3.8 7.9 2.6 2.1 5.5 3.1 9 3.1 2.8 0 5.5-.5 8-1.4 2.5-1 4.7-2.3 6.8-4.1l.7-.6-.6-.6c-2.2-2.3-5.2-5.9-8.3-9.7l-7.2-8.9-.5.3zm3.8-26.4c-2.5 0-4.6.8-6 2.3-1.4 1.6-2.1 3.4-2.1 5.6 0 1.8.4 3.4 1.2 5 .8 1.6 2.4 3.9 4.9 7.2l.4.6.6-.3c3.8-2.1 6.3-4.1 7.6-6.1 1.2-2 1.8-4.2 1.8-6.9.1-3.5-1.4-7.4-8.4-7.4zM580.5 29.3c-3.8-3.3-8.9-5-15.4-5H542v60h9.7V61.7h13.4c6.5 0 11.6-1.7 15.4-5 3.8-3.3 5.7-7.9 5.7-13.7 0-5.8-1.8-10.3-5.7-13.7zm-7.4 21.6c-2.1 1.8-5.2 2.6-9.5 2.6h-11.8V32.6h11.8c8.4 0 12.6 3.5 12.6 10.5 0 3.4-1.1 6-3.1 7.8zM630 77.2c-.5-.5-.8-1.4-.8-2.6V54.1c0-5.2-1.7-9.3-5.2-12-3.5-2.7-8.1-4.1-14-4.1-4.9 0-9.1 1.1-12.4 3.2-3.4 2.1-5.6 5-6.7 8.7l7.6 4c1.8-5.5 5.7-8.2 11.7-8.2 2.9 0 5.2.9 6.8 2.4 1.7 1.6 2.5 3.8 2.5 6.6v2.5l-11.6 2c-5.9 1-10.3 2.8-13.3 5.2-3 2.5-4.5 5.5-4.5 9.1 0 3.8 1.4 6.8 4.1 8.8 2.7 2.1 6.3 3.1 10.8 3.1 3.4 0 6.5-.6 9.2-1.8 2.7-1.2 4.8-2.8 6.2-5 .5 2.5 1.5 4.2 3.1 5.2 1.5 1 3.6 1.5 6.2 1.5 1.7 0 3.1-.2 4.4-.6v-6.8c-.5.1-1 .1-1.5.1-1.2 0-2.1-.2-2.6-.8zm-10.5-7.9c0 2.6-1.3 4.7-3.7 6.3-2.5 1.6-5.4 2.4-8.6 2.4-2.2 0-3.9-.5-5.1-1.3-1.2-.9-1.8-2.2-1.8-3.9 0-1.8.7-3.3 2.3-4.4 1.5-1.1 3.9-1.9 7-2.6l9.9-2v5.5zM724 38c-3.4 0-6.4.7-9.1 2.1-2.7 1.4-4.8 3.5-6.3 6.4l-.5-7.6h-8.6v45.5h9.7V60.3c0-4.8 1.2-8.5 3.6-10.8 2.4-2.3 5.3-3.5 8.7-3.5 6.5 0 9.7 4 9.7 12v26.4h9.7V55c0-5.5-1.6-9.7-4.8-12.6-3-2.9-7.1-4.4-12.1-4.4zM767.7 38c-7.1 0-12.5 2.1-16.4 6.3-3.9 4.2-5.8 10-5.8 17.4 0 7.4 2 13.2 6 17.4 4 4.2 9.6 6.3 16.8 6.3 9.6 0 16.2-3.5 19.5-10.5l-8.1-3.4c-.7 2-2 3.5-4 4.6-1.9 1-4.4 1.5-7.4 1.5-3.6 0-6.6-1-8.9-3.1-2.3-2-3.7-5.1-4.3-9.1h33.3c.2-1.6.4-3.2.4-5 0-6.7-1.9-12.1-5.6-16.2-3.7-4.2-8.9-6.2-15.5-6.2zm-12.6 19.9c.6-4 1.9-6.9 4-9 2.2-2.1 5-3.1 8.5-3.1 3.3 0 6 1.1 8.1 3.2 2.1 2.1 3.4 5.1 3.9 8.9h-24.5zM816.7 38c-7 0-11.8 3.1-14.3 9.1l.1-8.2h-9.2v45.5h9.7V60.3c0-2.9.6-5.4 1.7-7.5 1.1-2 2.6-3.6 4.3-4.7 1.7-1 3.5-1.5 5.5-1.5 2.4 0 4.3.4 5.8 1.2l1.5-8.9c-1.3-.6-3-.9-5.1-.9zM397.2 77.2c-.6-.5-.8-1.4-.8-2.6V54.1c0-5.3-1.7-9.3-5.2-12-3.5-2.7-8.1-4.1-14-4.1-4.9 0-9 1.1-12.4 3.2-3.4 2.2-5.6 5.1-6.7 8.7l7.5 4c1.8-5.5 5.7-8.3 11.7-8.3 3 0 5.2.8 6.8 2.4 1.6 1.6 2.4 3.8 2.4 6.6v2.5l-11.6 2c-5.9 1-10.3 2.8-13.3 5.2-2.9 2.5-4.4 5.5-4.4 9.1 0 3.8 1.4 6.8 4.1 8.8 2.7 2.1 6.3 3.1 10.7 3.1 3.4 0 6.5-.6 9.2-1.8 2.7-1.2 4.8-2.8 6.2-5 .5 2.2 1.4 3.6 2.6 4.7.7.5 2 1.1 4 1.1 0 0 0 .1.1.1h7.1V78c-.5.1-1 .1-1.6.1-1-.1-1.8-.4-2.4-.9zm-10.5-7.9c0 2.6-1.2 4.7-3.7 6.3-2.5 1.6-5.4 2.4-8.7 2.4-2.2 0-3.9-.5-5.1-1.3-1.2-.9-1.8-2.2-1.8-3.9 0-1.8.7-3.2 2.3-4.3 1.5-1.1 3.9-1.9 7-2.6l9.9-2v5.4zM171.6 24.4h9.7v8.3h-9.7zM692.9 74.3c-2.1 1.9-4.6 2.9-7.3 2.9-2.1 0-3.7-.5-4.9-1.6-1.1-1.1-1.8-2.7-1.8-4.8V46.5h14.4v-7.6h-14.4V25.6l-9.7 2.7v10.6H667c-1.1 0-2.8 0-4.2.1h-.1c-.9 0-1.5 0-2.1.1-.7 0-1.1.1-1.3.1-2.4.3-4.8.8-6.5 1.6-.1.1-.2.1-.3.1-.1 0-.1.1-.2.1-1.4.9-2.7 2.6-3.1 3.2 0 .1-.1.1-.1.1v.1c-.6.8-1.1 1.8-1.5 2.8l.1-8.3h-9.2v45.5h9.7V60.3c0-.3.1-.7.2-1.2 1.2-3.2 5-11.6 12.7-11.9h8v25.2c.1 4.4 1.4 7.7 3.9 9.7 2.5 2.1 5.9 3.2 10.1 3.2 2.5 0 4.7-.4 6.8-1.1 2.1-.7 3.9-1.6 5.3-2.9l-2.3-7zm-23.8-27.6c0-.1 0-.1-.1-.2h.1v.2z"/>
</svg>
