<?xml version="1.0" encoding="utf-8"?>
<!-- Generator: Adobe Illustrator 16.0.0, SVG Export Plug-In . SVG Version: 6.00 Build 0)  -->
<!DOCTYPE svg PUBLIC "-//W3C//DTD SVG 1.1//EN" "http://www.w3.org/Graphics/SVG/1.1/DTD/svg11.dtd">
<svg version="1.1" id="Lager_1" xmlns="http://www.w3.org/2000/svg" xmlns:xlink="http://www.w3.org/1999/xlink" x="0px" y="0px"
	 width="1417.32px" height="318.032px" viewBox="0 835.429 1417.32 318.032" enable-background="new 0 835.429 1417.32 318.032"
	 xml:space="preserve">
<g>
	<path fill="#FFFFFF" d="M185.403,922.974v-70.501c-7.55-1.25-15.3-1.899-23.15-1.899c-78.251,0-141.652,63.45-141.652,141.651
		c0,51.551,27.551,96.651,68.701,121.402V992.225c0-40.3,32.65-73.001,73.001-73.001
		C170.402,919.224,178.152,920.524,185.403,922.974z"/>
	<path fill="#FFFFFF" d="M235.253,870.823v121.401c0,40.301-32.65,72.951-73.001,72.951c-8.1,0-15.85-1.3-23.101-3.75v70.501
		c7.5,1.25,15.2,1.9,23.101,1.9c78.251,0,141.652-63.451,141.652-141.652C303.904,940.674,276.404,895.573,235.253,870.823z"/>
	<path fill="#FFFFFF" d="M139.152,992.275c0.05,12.75,10.35,23.05,23.101,23.05c12.75,0,23.05-10.3,23.1-23.05
		c0-12.751-10.3-23.101-23.1-23.101C149.502,969.175,139.152,979.524,139.152,992.275z"/>
	<path fill="#FFFFFF" d="M386.455,938.225h8.001c6.399,0,12.1-0.551,17.1-1.65c4.95-1.1,9.2-2.85,12.65-5.15
		c3.45-2.35,6.101-5.35,7.9-9c1.8-3.7,2.7-8.1,2.7-13.25c0-9.9-3.4-17.15-10.2-21.801c-6.801-4.649-16.551-6.949-29.301-6.949
		c-3.8,0-7.95,0.149-12.45,0.449c-4.5,0.301-8.65,0.851-12.351,1.7v86.552h15.95V938.225z M386.455,894.624
		c2.601-0.25,5.95-0.4,10.001-0.4c3.05,0,5.899,0.2,8.5,0.75c2.649,0.45,4.95,1.25,6.899,2.35c1.95,1.101,3.45,2.601,4.551,4.551
		c1.1,1.899,1.649,4.35,1.649,7.2c0,5.949-2.05,10.05-6.2,12.2c-4.1,2.149-10,3.25-17.7,3.25h-7.7V894.624z"/>
	<path fill="#FFFFFF" d="M510.207,958.975c4.351-3.75,7.7-8.45,10.051-14.051c2.35-5.6,3.55-12.199,3.55-19.8
		c0-7.8-1.15-14.45-3.55-20.05c-2.351-5.65-5.7-10.301-10.051-13.951c-4.35-3.649-9.55-6.35-15.65-8.1
		c-6.1-1.75-12.8-2.6-20.149-2.6c-3.551,0-7.601,0.149-12.15,0.399s-8.851,0.8-12.9,1.75v85.151c4.05,0.95,8.3,1.55,12.8,1.85
		c4.5,0.301,8.5,0.45,12.051,0.45c7.4,0,14.2-0.899,20.3-2.7C500.607,965.524,505.857,962.725,510.207,958.975z M469.007,956.074
		c-1.5-0.05-2.7-0.1-3.65-0.2h-0.05v-61.25c2.05-0.25,5.4-0.4,10.15-0.4c10.85,0,18.8,2.7,23.95,8c5.1,5.3,7.7,12.95,7.7,22.9
		c0,9.8-2.65,17.4-7.9,22.851c-5.3,5.45-13.3,8.149-24,8.149C472.606,956.124,470.507,956.124,469.007,956.074z"/>
	<path fill="#FFFFFF" d="M586.708,935.774h7.7c0.75,0,1.551,0,2.4,0s1.85,0,3.05-0.101c1.601,2.051,3.351,4.351,5.2,6.9
		c1.85,2.6,3.75,5.351,5.65,8.25c1.899,2.9,3.8,5.9,5.649,9c1.851,3.101,3.601,6.15,5.2,9.2h17.851c-1.55-3.3-3.25-6.649-5.2-10.05
		s-4-6.75-6.1-10c-2.101-3.25-4.2-6.25-6.2-9.051c-2.05-2.8-3.851-5.149-5.45-7.1c11.75-4.25,17.6-12.3,17.6-24.2
		c0-9.5-3.35-16.601-10.05-21.251c-6.7-4.649-16.4-6.949-29.05-6.949c-3.45,0-7.4,0.149-11.801,0.449c-4.4,0.301-8.5,0.851-12.4,1.7
		v86.352h15.95V935.774z M586.759,894.624c2.85-0.25,5.949-0.4,9.35-0.4c3.15,0,6,0.2,8.65,0.6c2.6,0.45,4.85,1.25,6.75,2.351
		c1.9,1.1,3.35,2.6,4.35,4.45c1.001,1.85,1.501,4.149,1.501,6.85c0,2.9-0.5,5.25-1.501,7.101c-1,1.899-2.5,3.35-4.5,4.449
		c-2,1.101-4.45,1.9-7.399,2.301c-2.95,0.45-6.351,0.649-10.25,0.649h-6.95V894.624z"/>
	<polygon fill="#FFFFFF" points="711.16,955.524 667.76,955.524 667.76,929.824 703.71,929.824 703.71,916.523 667.76,916.523 
		667.76,894.874 708.16,894.874 708.16,881.323 651.81,881.323 651.81,969.024 651.81,969.074 711.16,969.074 	"/>
	<path fill="#FFFFFF" d="M761.761,947.624c3.15,3.45,6.2,7.051,9.05,10.75c2.851,3.751,5.4,7.251,7.601,10.65v0.05h18.9
		c-2.75-4.399-5.7-8.8-8.95-13.25s-6.65-8.7-10.2-12.8c-3.5-4.05-7.15-7.9-10.8-11.5c-3.65-3.601-7.25-6.75-10.801-9.45
		c3.2-3.15,6.45-6.45,9.801-9.9c3.35-3.45,6.649-6.95,9.949-10.45c3.251-3.5,6.501-7,9.601-10.45c3.101-3.45,6.05-6.8,8.851-10
		h-19.101c-2.2,2.45-4.65,5.2-7.351,8.25c-2.699,3.05-5.55,6.2-8.55,9.45s-6,6.45-9.05,9.601c-3.051,3.199-5.95,6.149-8.75,8.949
		v-36.2h-15.95v87.651h15.95v-39.351c3.3,2.3,6.6,5,10,8.101C755.311,940.874,758.611,944.174,761.761,947.624z"/>
	<path fill="#FFFFFF" d="M834.462,935.774c0.85,0,1.85,0,3.05-0.101c1.601,2.051,3.351,4.351,5.2,6.9
		c1.851,2.6,3.75,5.351,5.65,8.25c1.899,2.9,3.8,5.9,5.649,9c1.851,3.101,3.601,6.15,5.2,9.2h17.851c-1.55-3.3-3.25-6.649-5.2-10.05
		s-4-6.75-6.1-10c-2.101-3.25-4.2-6.25-6.2-9.051c-2.051-2.8-3.851-5.149-5.45-7.1c11.75-4.25,17.601-12.3,17.601-24.2
		c0-9.5-3.351-16.601-10.051-21.251c-6.7-4.649-16.4-6.949-29.051-6.949c-3.449,0-7.399,0.149-11.8,0.449
		c-4.399,0.301-8.5,0.851-12.4,1.7v86.352h15.95v-33.15h7.7C832.812,935.774,833.611,935.774,834.462,935.774z M824.412,922.974
		v-28.35c2.85-0.25,5.949-0.4,9.35-0.4c3.101,0,6,0.2,8.65,0.6c2.6,0.45,4.85,1.25,6.75,2.351c1.9,1.1,3.35,2.6,4.35,4.45
		c1,1.85,1.5,4.149,1.5,6.85c0,2.9-0.5,5.25-1.5,7.101c-1,1.899-2.5,3.35-4.5,4.449c-2,1.101-4.449,1.9-7.399,2.301
		c-2.95,0.45-6.351,0.649-10.25,0.649H824.412z"/>
	<path fill="#FFFFFF" d="M924.463,969.074v-34.45c5.851-8.95,11.301-17.851,16.4-26.65c5.101-8.8,10-17.7,14.75-26.65h-17.75
		c-3,6.55-6.25,13.101-9.9,19.601c-3.649,6.5-7.35,12.9-11.149,19.25c-3.9-6.35-7.601-12.75-11.051-19.25
		c-3.55-6.5-6.8-13-9.75-19.601h-18.75c4.7,8.95,9.649,17.851,14.8,26.7c5.15,8.851,10.65,17.801,16.45,26.851v34.2H924.463z"/>
	<polygon fill="#FFFFFF" points="961.014,895.124 987.964,895.124 987.964,969.074 1004.064,969.074 1004.064,895.124 
		1031.015,895.124 1031.015,881.323 961.014,881.323 	"/>
	<polygon fill="#FFFFFF" points="1059.115,929.824 1095.065,929.824 1095.065,916.523 1059.115,916.523 1059.115,894.874 
		1099.516,894.874 1099.516,881.323 1043.165,881.323 1043.165,969.024 1043.165,969.074 1102.516,969.074 1102.516,955.524 
		1059.115,955.524 	"/>
	<path fill="#FFFFFF" d="M1174.667,948.975c-2.101-3.25-4.2-6.25-6.2-9.051c-2.05-2.8-3.85-5.149-5.45-7.1
		c11.75-4.25,17.601-12.3,17.601-24.2c0-9.5-3.351-16.601-10.051-21.251c-6.7-4.649-16.4-6.949-29.05-6.949
		c-3.45,0-7.351,0.149-11.801,0.449c-4.399,0.301-8.5,0.851-12.399,1.7v86.352h15.95v-33.15h7.7c0.75,0,1.55,0,2.399,0
		c0.851,0,1.851,0,3.05-0.101c1.601,2.051,3.351,4.351,5.2,6.9c1.851,2.6,3.75,5.351,5.65,8.25c1.9,2.9,3.8,5.9,5.65,9
		c1.85,3.101,3.6,6.15,5.2,9.2h17.85c-1.55-3.3-3.25-6.649-5.2-10.05S1176.767,952.225,1174.667,948.975z M1162.417,915.574
		c-1,1.899-2.5,3.35-4.5,4.449c-2.001,1.101-4.45,1.9-7.4,2.301c-2.95,0.45-6.351,0.649-10.25,0.649h-6.95v-28.35
		c2.85-0.25,5.95-0.4,9.35-0.4c3.15,0,6,0.2,8.65,0.6c2.6,0.45,4.85,1.25,6.75,2.351c1.9,1.1,3.351,2.6,4.351,4.45
		c1,1.85,1.5,4.149,1.5,6.85C1163.917,911.374,1163.417,913.724,1162.417,915.574z"/>
	<rect x="1198.367" y="881.323" fill="#FFFFFF" width="15.95" height="87.751"/>
	<path fill="#FFFFFF" d="M1292.219,939.574c-2.851-4.55-6.1-9.5-9.801-14.75c-3.699-5.25-7.449-10.5-11.399-15.75
		c-3.9-5.25-7.8-10.301-11.7-15.15c-3.9-4.851-7.5-9.051-10.9-12.601h-13.05v87.701h15.7v-62.801c3.55,4.25,7.25,8.95,11.199,14.25
		c3.95,5.301,7.801,10.751,11.601,16.351s7.45,11.15,11,16.7c3.5,5.5,6.75,10.7,9.601,15.5v0.05h13.6v-87.751h-15.85V939.574z"/>
	<path fill="#FFFFFF" d="M1381.02,924.324v31.55c-1.149,0.301-2.75,0.601-4.8,0.801c-2,0.199-4.4,0.3-7.2,0.3
		c-4.45,0-8.35-0.8-11.7-2.351c-3.35-1.55-6.1-3.699-8.35-6.5c-2.2-2.75-3.9-6.149-5.051-10.05c-1.149-3.95-1.7-8.25-1.7-13
		c0-9.95,2.4-17.75,7.15-23.351c4.75-5.6,11.65-8.4,20.7-8.4c4.15,0,8.05,0.551,11.75,1.551c3.75,1.05,6.9,2.35,9.45,3.85
		l4.801-13.05c-0.601-0.351-1.65-0.9-3.101-1.65c-1.5-0.75-3.35-1.45-5.65-2.15c-2.25-0.699-5-1.3-8.149-1.85
		c-3.15-0.5-6.75-0.8-10.801-0.8c-5.899,0-11.45,1.05-16.7,3.05c-5.25,2.05-9.8,5-13.7,8.95c-3.899,3.9-6.95,8.7-9.2,14.351
		c-2.25,5.649-3.35,12.149-3.35,19.5c0,7.35,1,13.85,3.05,19.5c2.051,5.65,4.9,10.4,8.551,14.301c3.649,3.85,8.1,6.8,13.35,8.85
		s11,3.05,17.351,3.05c6.85,0,12.85-0.5,18.1-1.5c5.251-1.05,8.95-1.95,11.15-2.8v-42.15H1381.02z"/>
	<path fill="#FFFFFF" d="M431.106,1083.576c2.2-3.7,3.95-7.6,5.3-11.7c1.35-4.1,2.25-7.8,2.65-11.2l-12.801-1.649
		c-0.399,2.649-1,5.3-1.75,8.05s-1.7,5.2-2.899,7.4l-17.351-17.451c2.3-1.25,4.4-2.699,6.4-4.35s3.75-3.45,5.25-5.45
		c1.5-1.95,2.7-4.149,3.6-6.5c0.9-2.35,1.351-4.9,1.351-7.6c0-2.7-0.5-5.251-1.45-7.65c-1-2.4-2.4-4.5-4.25-6.25
		c-1.9-1.8-4.2-3.2-7.051-4.2c-2.85-1-6.05-1.5-9.699-1.5c-7.101,0-12.801,2-17.15,5.95c-4.351,4-6.5,9.5-6.5,16.6
		c0,3.4,0.8,6.601,2.35,9.65s3.6,5.9,6.15,8.601c-2.351,1.25-4.601,2.699-6.75,4.3c-2.15,1.6-4.051,3.45-5.7,5.55
		c-1.601,2.101-2.95,4.5-3.9,7.101c-0.95,2.649-1.45,5.55-1.45,8.75c0,2.8,0.5,5.6,1.35,8.3c1,2.851,2.65,5.5,4.95,7.851
		c2.351,2.399,5.4,4.35,9.2,5.85c3.801,1.55,8.551,2.3,14.2,2.3c5.65,0,10.751-0.949,15.2-2.899c4.45-1.95,8.45-4.5,11.9-7.601
		c1.4,1.45,2.8,3,4.101,4.7c1.35,1.7,2.399,3.25,3.25,4.7h15.95c-1.7-3.3-3.851-6.6-6.4-9.95
		C436.557,1089.927,433.906,1086.677,431.106,1083.576z M390.905,1027.875c1.7-1.949,4.15-2.899,7.351-2.899
		c3.05,0,5.35,0.85,6.95,2.6c1.6,1.7,2.399,3.801,2.399,6.25c0,1.95-0.3,3.65-0.949,5.2c-0.65,1.551-1.5,2.95-2.551,4.2
		c-1.05,1.25-2.25,2.4-3.649,3.4c-1.4,1.05-2.9,1.95-4.5,2.8c-2.351-2.2-4.2-4.5-5.551-6.9c-1.399-2.449-2.05-4.85-2.05-7.3
		C388.355,1032.275,389.205,1029.825,390.905,1027.875z M405.855,1090.477c-3.05,1.149-6.5,1.75-10.3,1.75
		c-2.8,0-5.15-0.4-7.15-1.25c-1.95-0.851-3.6-1.95-4.8-3.25s-2.1-2.75-2.65-4.25c-0.55-1.551-0.8-3-0.8-4.45
		c0-2.3,0.351-4.3,1.101-6.05c0.699-1.7,1.6-3.25,2.699-4.551c1.051-1.3,2.301-2.399,3.65-3.35c1.35-0.9,2.65-1.75,3.9-2.4
		l22.25,22.751C411.556,1087.626,408.956,1089.276,405.855,1090.477z"/>
	<path fill="#FFFFFF" d="M538.808,1077.276c-3.5-4.05-7.15-7.9-10.8-11.5c-3.7-3.601-7.301-6.75-10.851-9.45
		c3.2-3.15,6.45-6.45,9.801-9.9c3.35-3.45,6.649-6.95,9.95-10.45c3.25-3.5,6.5-7,9.6-10.45s6.05-6.8,8.85-10h-19.1
		c-2.2,2.45-4.65,5.2-7.351,8.25s-5.55,6.2-8.55,9.45s-6,6.45-9.05,9.601c-3.05,3.199-5.95,6.149-8.75,8.949v-36.2h-15.95v87.751
		h15.95v-39.4c3.3,2.3,6.6,5,10,8.101c3.35,3.149,6.649,6.45,9.8,9.899c3.15,3.45,6.2,7.051,9.05,10.751
		c2.851,3.75,5.4,7.25,7.601,10.649h18.9c-2.7-4.399-5.65-8.8-8.9-13.25S542.357,1081.376,538.808,1077.276z"/>
	<path fill="#FFFFFF" d="M634.109,1025.226c-3.851-3.9-8.351-6.8-13.501-8.75c-5.149-1.95-10.6-2.9-16.35-2.9s-11.2,0.95-16.351,2.9
		c-5.149,1.95-9.649,4.85-13.6,8.75c-3.9,3.85-7,8.65-9.301,14.35c-2.25,5.7-3.399,12.301-3.399,19.801c0,7.55,1.1,14.15,3.399,19.9
		c2.301,5.7,5.351,10.5,9.2,14.35c3.851,3.801,8.4,6.7,13.551,8.65c5.149,1.95,10.7,2.9,16.5,2.9s11.3-1,16.45-2.9
		c5.15-1.899,9.65-4.8,13.5-8.65c3.801-3.8,6.851-8.6,9.101-14.35s3.35-12.4,3.35-19.9s-1.149-14.101-3.35-19.801
		C641.009,1033.876,637.959,1029.125,634.109,1025.226z M628.209,1072.477c-1.2,3.899-2.9,7.25-5.15,10
		c-2.199,2.75-4.949,4.899-8.149,6.399c-3.2,1.551-6.801,2.301-10.75,2.301c-4.051,0-7.7-0.801-10.9-2.301
		c-3.2-1.55-5.9-3.649-8.15-6.399s-3.95-6.101-5.15-10c-1.2-3.9-1.8-8.301-1.8-13.101s0.55-9.15,1.8-13.05
		c1.2-3.9,2.9-7.2,5.15-10.001c2.2-2.8,4.95-4.949,8.15-6.449c3.2-1.551,6.85-2.301,10.9-2.301c3.949,0,7.55,0.8,10.75,2.301
		c3.2,1.55,5.899,3.649,8.149,6.399s3.95,6.051,5.15,10c1.2,3.9,1.8,8.301,1.8,13.101S629.409,1068.526,628.209,1072.477z"/>
	<path fill="#FFFFFF" d="M721.011,1073.826c-2.851-4.55-6.15-9.45-9.801-14.75c-3.7-5.25-7.45-10.5-11.399-15.75
		c-3.9-5.251-7.801-10.301-11.701-15.15c-3.899-4.851-7.5-9.051-10.899-12.601h-13.051v87.751h15.7v-62.801
		c3.551,4.25,7.25,8.95,11.2,14.25c3.95,5.301,7.801,10.751,11.601,16.351c3.8,5.601,7.45,11.15,11,16.7
		c3.5,5.5,6.75,10.7,9.601,15.5h13.6v-87.751h-15.85V1073.826z"/>
	<path fill="#FFFFFF" d="M805.212,1062.176c-2.25-2.149-5.05-4-8.251-5.55c-3.199-1.55-6.899-3.101-11.05-4.601
		c-2.35-0.85-4.5-1.699-6.5-2.649s-3.7-1.95-5.2-3.05c-1.45-1.101-2.6-2.351-3.4-3.75c-0.8-1.4-1.199-3.051-1.199-5.001
		c0-3.199,1.199-5.649,3.6-7.449c2.4-1.751,5.75-2.65,10.051-2.65c3.6,0,7.149,0.399,10.55,1.25c3.45,0.8,6.6,2.05,9.45,3.65
		l4.95-12.9c-2.45-1.45-5.801-2.75-10.051-4s-9.1-1.851-14.6-1.851c-9.45,0-16.9,2.25-22.4,6.75c-5.5,4.551-8.25,10.751-8.25,18.7
		c0,3.801,0.649,7.051,1.95,9.751c1.3,2.699,3.05,5,5.199,6.949c2.15,1.9,4.601,3.551,7.45,4.851c2.851,1.3,5.75,2.5,8.801,3.6
		c3.05,1,5.75,2.051,8.1,3.101c2.351,1.05,4.351,2.15,6,3.4c1.65,1.199,2.9,2.6,3.8,4.1c0.9,1.5,1.351,3.35,1.351,5.45
		c0,3.55-1.351,6.3-3.95,8.25c-2.65,1.95-6.8,2.9-12.55,2.9c-5.501,0-10.15-0.65-13.95-1.9c-3.9-1.25-6.95-2.55-9.25-3.8l-4.7,13.05
		c1,0.601,2.35,1.25,4.05,1.95c1.65,0.75,3.7,1.45,6,2.1c2.35,0.65,5,1.25,8,1.7s6.301,0.7,9.95,0.7c10.8,0,19-2.15,24.601-6.5
		c5.6-4.3,8.4-10.45,8.4-18.4c0-4.1-0.601-7.65-1.801-10.55C809.162,1066.876,807.462,1064.326,805.212,1062.176z"/>
	<path fill="#FFFFFF" d="M878.812,1068.876c0,4-0.45,7.351-1.35,10.2c-0.9,2.85-2.15,5.15-3.801,6.9c-1.649,1.8-3.6,3.1-5.9,3.95
		c-2.3,0.85-4.8,1.25-7.6,1.25s-5.3-0.4-7.55-1.25c-2.2-0.851-4.15-2.15-5.8-3.95c-1.65-1.75-2.9-4.051-3.801-6.9
		c-0.899-2.85-1.35-6.25-1.35-10.2v-53.301h-16.101v54.801c0,5.101,0.65,9.75,2,13.95c1.351,4.2,3.4,7.9,6.25,11
		c2.851,3.15,6.4,5.551,10.7,7.301c4.301,1.75,9.45,2.6,15.451,2.6c6,0,11.199-0.85,15.699-2.6c4.351-1.75,7.95-4.2,10.801-7.301
		c2.85-3.1,4.949-6.8,6.35-11c1.4-4.25,2.1-8.9,2.1-13.95v-54.801h-16.1V1068.876z"/>
	<polygon fill="#FFFFFF" points="931.113,1015.575 915.163,1015.575 915.163,1103.326 970.613,1103.326 970.613,1089.526 
		931.113,1089.526 	"/>
	<polygon fill="#FFFFFF" points="960.863,1029.376 987.814,1029.376 987.814,1103.326 1003.914,1103.326 1003.914,1029.376 
		1030.865,1029.376 1030.865,1015.575 960.863,1015.575 	"/>
</g>
</svg>
