<svg width="2818" height="17" viewBox="0 0 2818 17" version="1.1" xmlns="http://www.w3.org/2000/svg" xmlns:xlink="http://www.w3.org/1999/xlink">
<title>ruler</title>
<desc>Created using Figma</desc>
<g id="Canvas" transform="translate(592 -180)">
<g id="ruler">
<use xlink:href="#path0_fill" transform="matrix(1 0 0 -1 -591.561 196.455)" fill="#CCCCCC"/>
<use xlink:href="#path1_fill" transform="matrix(1 0 0 -1 -591.561 196.455)" fill="#CCCCCC"/>
<use xlink:href="#path2_fill" transform="matrix(1 0 0 -1 -591.561 196.455)" fill="#CCCCCC"/>
<use xlink:href="#path3_fill" transform="matrix(1 0 0 -1 -591.561 196.455)" fill="#CCCCCC"/>
<use xlink:href="#path4_fill" transform="matrix(1 0 0 -1 -591.561 196.455)" fill="#CCCCCC"/>
<use xlink:href="#path5_fill" transform="matrix(1 0 0 -1 -591.561 196.455)" fill="#CCCCCC"/>
<use xlink:href="#path6_fill" transform="matrix(1 0 0 -1 -591.561 196.455)" fill="#CCCCCC"/>
<use xlink:href="#path7_fill" transform="matrix(1 0 0 -1 -591.561 196.455)" fill="#CCCCCC"/>
<use xlink:href="#path8_fill" transform="matrix(1 0 0 -1 -591.561 196.455)" fill="#CCCCCC"/>
<use xlink:href="#path9_fill" transform="matrix(1 0 0 -1 -591.561 196.455)" fill="#CCCCCC"/>
<use xlink:href="#path10_fill" transform="matrix(1 0 0 -1 -591.561 196.455)" fill="#CCCCCC"/>
<use xlink:href="#path11_fill" transform="matrix(1 0 0 -1 -591.561 196.455)" fill="#CCCCCC"/>
<use xlink:href="#path12_fill" transform="matrix(1 0 0 -1 -591.561 196.455)" fill="#CCCCCC"/>
<use xlink:href="#path13_fill" transform="matrix(1 0 0 -1 -591.561 196.455)" fill="#CCCCCC"/>
<use xlink:href="#path14_fill" transform="matrix(1 0 0 -1 -591.561 196.455)" fill="#CCCCCC"/>
<use xlink:href="#path15_fill" transform="matrix(1 0 0 -1 -591.561 196.455)" fill="#CCCCCC"/>
<use xlink:href="#path16_fill" transform="matrix(1 0 0 -1 -591.561 196.455)" fill="#CCCCCC"/>
<use xlink:href="#path17_fill" transform="matrix(1 0 0 -1 -591.561 196.455)" fill="#CCCCCC"/>
<use xlink:href="#path18_fill" transform="matrix(1 0 0 -1 -591.561 196.455)" fill="#CCCCCC"/>
<use xlink:href="#path19_fill" transform="matrix(1 0 0 -1 -591.561 196.455)" fill="#CCCCCC"/>
<use xlink:href="#path20_fill" transform="matrix(1 0 0 -1 -591.561 196.455)" fill="#CCCCCC"/>
<use xlink:href="#path21_fill" transform="matrix(1 0 0 -1 -591.561 196.455)" fill="#CCCCCC"/>
<use xlink:href="#path22_fill" transform="matrix(1 0 0 -1 -591.561 196.455)" fill="#CCCCCC"/>
<use xlink:href="#path23_fill" transform="matrix(1 0 0 -1 -591.561 196.455)" fill="#CCCCCC"/>
<use xlink:href="#path24_fill" transform="matrix(1 0 0 -1 -591.561 196.455)" fill="#CCCCCC"/>
<use xlink:href="#path25_fill" transform="matrix(1 0 0 -1 -591.561 196.455)" fill="#CCCCCC"/>
<use xlink:href="#path26_fill" transform="matrix(1 0 0 -1 -591.561 196.455)" fill="#CCCCCC"/>
<use xlink:href="#path27_fill" transform="matrix(1 0 0 -1 -591.561 196.455)" fill="#CCCCCC"/>
<use xlink:href="#path28_fill" transform="matrix(1 0 0 -1 -591.561 196.455)" fill="#CCCCCC"/>
<use xlink:href="#path29_fill" transform="matrix(1 0 0 -1 -591.561 196.455)" fill="#CCCCCC"/>
<use xlink:href="#path30_fill" transform="matrix(1 0 0 -1 -591.561 196.455)" fill="#CCCCCC"/>
<use xlink:href="#path31_fill" transform="matrix(1 0 0 -1 -591.561 196.455)" fill="#CCCCCC"/>
<use xlink:href="#path32_fill" transform="matrix(1 0 0 -1 -591.561 196.455)" fill="#CCCCCC"/>
<use xlink:href="#path33_fill" transform="matrix(1 0 0 -1 -591.561 196.455)" fill="#CCCCCC"/>
<use xlink:href="#path34_fill" transform="matrix(1 0 0 -1 -591.561 196.455)" fill="#CCCCCC"/>
<use xlink:href="#path35_fill" transform="matrix(1 0 0 -1 -591.561 196.455)" fill="#CCCCCC"/>
<use xlink:href="#path36_fill" transform="matrix(1 0 0 -1 -591.561 196.455)" fill="#CCCCCC"/>
<use xlink:href="#path37_fill" transform="matrix(1 0 0 -1 -591.561 196.455)" fill="#CCCCCC"/>
<use xlink:href="#path38_fill" transform="matrix(1 0 0 -1 -591.561 196.455)" fill="#CCCCCC"/>
<use xlink:href="#path39_fill" transform="matrix(1 0 0 -1 -591.561 196.455)" fill="#CCCCCC"/>
<use xlink:href="#path40_fill" transform="matrix(1 0 0 -1 -591.561 196.455)" fill="#CCCCCC"/>
<use xlink:href="#path41_fill" transform="matrix(1 0 0 -1 -591.561 196.455)" fill="#CCCCCC"/>
<use xlink:href="#path42_fill" transform="matrix(1 0 0 -1 -591.561 196.455)" fill="#CCCCCC"/>
<use xlink:href="#path43_fill" transform="matrix(1 0 0 -1 -591.561 196.455)" fill="#CCCCCC"/>
<use xlink:href="#path44_fill" transform="matrix(1 0 0 -1 -591.561 196.455)" fill="#CCCCCC"/>
<use xlink:href="#path45_fill" transform="matrix(1 0 0 -1 -591.561 196.455)" fill="#CCCCCC"/>
<use xlink:href="#path46_fill" transform="matrix(1 0 0 -1 -591.561 196.455)" fill="#CCCCCC"/>
<use xlink:href="#path47_fill" transform="matrix(1 0 0 -1 -591.561 196.455)" fill="#CCCCCC"/>
<use xlink:href="#path48_fill" transform="matrix(1 0 0 -1 -591.561 196.455)" fill="#CCCCCC"/>
<use xlink:href="#path49_fill" transform="matrix(1 0 0 -1 -591.561 196.455)" fill="#CCCCCC"/>
<use xlink:href="#path50_fill" transform="matrix(1 0 0 -1 -591.561 196.455)" fill="#CCCCCC"/>
<use xlink:href="#path51_fill" transform="matrix(1 0 0 -1 -591.561 196.455)" fill="#CCCCCC"/>
<use xlink:href="#path52_fill" transform="matrix(1 0 0 -1 -591.561 196.455)" fill="#CCCCCC"/>
<use xlink:href="#path53_fill" transform="matrix(1 0 0 -1 -591.561 196.455)" fill="#CCCCCC"/>
<use xlink:href="#path54_fill" transform="matrix(1 0 0 -1 -591.561 196.455)" fill="#CCCCCC"/>
<use xlink:href="#path55_fill" transform="matrix(1 0 0 -1 -591.561 196.455)" fill="#CCCCCC"/>
<use xlink:href="#path56_fill" transform="matrix(1 0 0 -1 -591.561 196.455)" fill="#CCCCCC"/>
<use xlink:href="#path57_fill" transform="matrix(1 0 0 -1 -591.561 196.455)" fill="#CCCCCC"/>
<use xlink:href="#path58_fill" transform="matrix(1 0 0 -1 -591.561 196.455)" fill="#CCCCCC"/>
<use xlink:href="#path59_fill" transform="matrix(1 0 0 -1 -591.561 196.455)" fill="#CCCCCC"/>
<use xlink:href="#path60_fill" transform="matrix(1 0 0 -1 -591.561 196.455)" fill="#CCCCCC"/>
<use xlink:href="#path61_fill" transform="matrix(1 0 0 -1 -591.561 196.455)" fill="#CCCCCC"/>
<use xlink:href="#path62_fill" transform="matrix(1 0 0 -1 -591.561 196.455)" fill="#CCCCCC"/>
<use xlink:href="#path63_fill" transform="matrix(1 0 0 -1 -591.561 196.455)" fill="#CCCCCC"/>
<use xlink:href="#path64_fill" transform="matrix(1 0 0 -1 -591.561 196.455)" fill="#CCCCCC"/>
<use xlink:href="#path65_fill" transform="matrix(1 0 0 -1 -591.561 196.455)" fill="#CCCCCC"/>
<use xlink:href="#path66_fill" transform="matrix(1 0 0 -1 -591.561 196.455)" fill="#CCCCCC"/>
<use xlink:href="#path67_fill" transform="matrix(1 0 0 -1 -591.561 196.455)" fill="#CCCCCC"/>
<use xlink:href="#path68_fill" transform="matrix(1 0 0 -1 -591.561 196.455)" fill="#CCCCCC"/>
<use xlink:href="#path69_fill" transform="matrix(1 0 0 -1 -591.561 196.455)" fill="#CCCCCC"/>
<use xlink:href="#path70_fill" transform="matrix(1 0 0 -1 -591.561 196.455)" fill="#CCCCCC"/>
<use xlink:href="#path71_fill" transform="matrix(1 0 0 -1 -591.561 196.455)" fill="#CCCCCC"/>
<use xlink:href="#path72_fill" transform="matrix(1 0 0 -1 -591.561 196.455)" fill="#CCCCCC"/>
<use xlink:href="#path73_fill" transform="matrix(1 0 0 -1 -591.561 196.455)" fill="#CCCCCC"/>
<use xlink:href="#path74_fill" transform="matrix(1 0 0 -1 -591.561 196.455)" fill="#CCCCCC"/>
<use xlink:href="#path75_fill" transform="matrix(1 0 0 -1 -591.561 196.455)" fill="#CCCCCC"/>
<use xlink:href="#path76_fill" transform="matrix(1 0 0 -1 -591.561 196.455)" fill="#CCCCCC"/>
<use xlink:href="#path77_fill" transform="matrix(1 0 0 -1 -591.561 196.455)" fill="#CCCCCC"/>
<use xlink:href="#path78_fill" transform="matrix(1 0 0 -1 -591.561 196.455)" fill="#CCCCCC"/>
<use xlink:href="#path79_fill" transform="matrix(1 0 0 -1 -591.561 196.455)" fill="#CCCCCC"/>
<use xlink:href="#path80_fill" transform="matrix(1 0 0 -1 -591.561 196.455)" fill="#CCCCCC"/>
<use xlink:href="#path81_fill" transform="matrix(1 0 0 -1 -591.561 196.455)" fill="#CCCCCC"/>
<use xlink:href="#path82_fill" transform="matrix(1 0 0 -1 -591.561 196.455)" fill="#CCCCCC"/>
<use xlink:href="#path83_fill" transform="matrix(1 0 0 -1 -591.561 196.455)" fill="#CCCCCC"/>
<use xlink:href="#path84_fill" transform="matrix(1 0 0 -1 -591.561 196.455)" fill="#CCCCCC"/>
<use xlink:href="#path85_fill" transform="matrix(1 0 0 -1 -591.561 196.455)" fill="#CCCCCC"/>
<use xlink:href="#path86_fill" transform="matrix(1 0 0 -1 -591.561 196.455)" fill="#CCCCCC"/>
<use xlink:href="#path87_fill" transform="matrix(1 0 0 -1 -591.561 196.455)" fill="#CCCCCC"/>
<use xlink:href="#path88_fill" transform="matrix(1 0 0 -1 -591.561 196.455)" fill="#CCCCCC"/>
<use xlink:href="#path89_fill" transform="matrix(1 0 0 -1 -591.561 196.455)" fill="#CCCCCC"/>
<use xlink:href="#path90_fill" transform="matrix(1 0 0 -1 -591.561 196.455)" fill="#CCCCCC"/>
<use xlink:href="#path91_fill" transform="matrix(1 0 0 -1 -591.561 196.455)" fill="#CCCCCC"/>
<use xlink:href="#path92_fill" transform="matrix(1 0 0 -1 -591.561 196.455)" fill="#CCCCCC"/>
<use xlink:href="#path93_fill" transform="matrix(1 0 0 -1 -591.561 196.455)" fill="#CCCCCC"/>
<use xlink:href="#path94_fill" transform="matrix(1 0 0 -1 -591.561 196.455)" fill="#CCCCCC"/>
<use xlink:href="#path95_fill" transform="matrix(1 0 0 -1 -591.561 196.455)" fill="#CCCCCC"/>
<use xlink:href="#path96_fill" transform="matrix(1 0 0 -1 -591.561 196.455)" fill="#CCCCCC"/>
<use xlink:href="#path97_fill" transform="matrix(1 0 0 -1 -591.561 196.455)" fill="#CCCCCC"/>
<use xlink:href="#path98_fill" transform="matrix(1 0 0 -1 -591.561 196.455)" fill="#CCCCCC"/>
<use xlink:href="#path99_fill" transform="matrix(1 0 0 -1 -591.561 196.455)" fill="#CCCCCC"/>
<use xlink:href="#path100_fill" transform="matrix(1 0 0 -1 -591.561 196.455)" fill="#CCCCCC"/>
<use xlink:href="#path101_fill" transform="matrix(1 0 0 -1 -591.561 196.455)" fill="#CCCCCC"/>
<use xlink:href="#path102_fill" transform="matrix(1 0 0 -1 -591.561 196.455)" fill="#CCCCCC"/>
<use xlink:href="#path103_fill" transform="matrix(1 0 0 -1 -591.561 196.455)" fill="#CCCCCC"/>
<use xlink:href="#path104_fill" transform="matrix(1 0 0 -1 -591.561 196.455)" fill="#CCCCCC"/>
<use xlink:href="#path105_fill" transform="matrix(1 0 0 -1 -591.561 196.455)" fill="#CCCCCC"/>
<use xlink:href="#path106_fill" transform="matrix(1 0 0 -1 -591.561 196.455)" fill="#CCCCCC"/>
<use xlink:href="#path107_fill" transform="matrix(1 0 0 -1 -591.561 196.455)" fill="#CCCCCC"/>
<use xlink:href="#path108_fill" transform="matrix(1 0 0 -1 -591.561 196.455)" fill="#CCCCCC"/>
<use xlink:href="#path109_fill" transform="matrix(1 0 0 -1 -591.561 196.455)" fill="#CCCCCC"/>
<use xlink:href="#path110_fill" transform="matrix(1 0 0 -1 -591.561 196.455)" fill="#CCCCCC"/>
<use xlink:href="#path111_fill" transform="matrix(1 0 0 -1 -591.561 196.455)" fill="#CCCCCC"/>
<use xlink:href="#path112_fill" transform="matrix(1 0 0 -1 -591.561 196.455)" fill="#CCCCCC"/>
<use xlink:href="#path113_fill" transform="matrix(1 0 0 -1 -591.561 196.455)" fill="#CCCCCC"/>
<use xlink:href="#path114_fill" transform="matrix(1 0 0 -1 -591.561 196.455)" fill="#CCCCCC"/>
<use xlink:href="#path115_fill" transform="matrix(1 0 0 -1 -591.561 196.455)" fill="#CCCCCC"/>
<use xlink:href="#path116_fill" transform="matrix(1 0 0 -1 -591.561 196.455)" fill="#CCCCCC"/>
<use xlink:href="#path117_fill" transform="matrix(1 0 0 -1 -591.561 196.455)" fill="#CCCCCC"/>
<use xlink:href="#path118_fill" transform="matrix(1 0 0 -1 -591.561 196.455)" fill="#CCCCCC"/>
<use xlink:href="#path119_fill" transform="matrix(1 0 0 -1 -591.561 196.455)" fill="#CCCCCC"/>
<use xlink:href="#path120_fill" transform="matrix(1 0 0 -1 -591.561 196.455)" fill="#CCCCCC"/>
<use xlink:href="#path121_fill" transform="matrix(1 0 0 -1 -591.561 196.455)" fill="#CCCCCC"/>
<use xlink:href="#path122_fill" transform="matrix(1 0 0 -1 -591.561 196.455)" fill="#CCCCCC"/>
<use xlink:href="#path123_fill" transform="matrix(1 0 0 -1 -591.561 196.455)" fill="#CCCCCC"/>
<use xlink:href="#path124_fill" transform="matrix(1 0 0 -1 -591.561 196.455)" fill="#CCCCCC"/>
<use xlink:href="#path125_fill" transform="matrix(1 0 0 -1 -591.561 196.455)" fill="#CCCCCC"/>
<use xlink:href="#path126_fill" transform="matrix(1 0 0 -1 -591.561 196.455)" fill="#CCCCCC"/>
<use xlink:href="#path127_fill" transform="matrix(1 0 0 -1 -591.561 196.455)" fill="#CCCCCC"/>
<use xlink:href="#path128_fill" transform="matrix(1 0 0 -1 -591.561 196.455)" fill="#CCCCCC"/>
<use xlink:href="#path129_fill" transform="matrix(1 0 0 -1 -591.561 196.455)" fill="#CCCCCC"/>
<use xlink:href="#path130_fill" transform="matrix(1 0 0 -1 -591.561 196.455)" fill="#CCCCCC"/>
<use xlink:href="#path131_fill" transform="matrix(1 0 0 -1 -591.561 196.455)" fill="#CCCCCC"/>
<use xlink:href="#path132_fill" transform="matrix(1 0 0 -1 -591.561 196.455)" fill="#CCCCCC"/>
<use xlink:href="#path133_fill" transform="matrix(1 0 0 -1 -591.561 196.455)" fill="#CCCCCC"/>
<use xlink:href="#path134_fill" transform="matrix(1 0 0 -1 -591.561 196.455)" fill="#CCCCCC"/>
<use xlink:href="#path135_fill" transform="matrix(1 0 0 -1 -591.561 196.455)" fill="#CCCCCC"/>
<use xlink:href="#path136_fill" transform="matrix(1 0 0 -1 -591.561 196.455)" fill="#CCCCCC"/>
<use xlink:href="#path137_fill" transform="matrix(1 0 0 -1 -591.561 196.455)" fill="#CCCCCC"/>
<use xlink:href="#path138_fill" transform="matrix(1 0 0 -1 -591.561 196.455)" fill="#CCCCCC"/>
<use xlink:href="#path139_fill" transform="matrix(1 0 0 -1 -591.561 196.455)" fill="#CCCCCC"/>
<use xlink:href="#path140_fill" transform="matrix(1 0 0 -1 -591.561 196.455)" fill="#CCCCCC"/>
<use xlink:href="#path141_fill" transform="matrix(1 0 0 -1 -591.561 196.455)" fill="#CCCCCC"/>
<use xlink:href="#path142_fill" transform="matrix(1 0 0 -1 -591.561 196.455)" fill="#CCCCCC"/>
<use xlink:href="#path143_fill" transform="matrix(1 0 0 -1 -591.561 196.455)" fill="#CCCCCC"/>
<use xlink:href="#path144_fill" transform="matrix(1 0 0 -1 -591.561 196.455)" fill="#CCCCCC"/>
<use xlink:href="#path145_fill" transform="matrix(1 0 0 -1 -591.561 196.455)" fill="#CCCCCC"/>
<use xlink:href="#path146_fill" transform="matrix(1 0 0 -1 -591.561 196.455)" fill="#CCCCCC"/>
<use xlink:href="#path147_fill" transform="matrix(1 0 0 -1 -591.561 196.455)" fill="#CCCCCC"/>
<use xlink:href="#path148_fill" transform="matrix(1 0 0 -1 -591.561 196.455)" fill="#CCCCCC"/>
<use xlink:href="#path149_fill" transform="matrix(1 0 0 -1 -591.561 196.455)" fill="#CCCCCC"/>
<use xlink:href="#path150_fill" transform="matrix(1 0 0 -1 -591.561 196.455)" fill="#CCCCCC"/>
<use xlink:href="#path151_fill" transform="matrix(1 0 0 -1 -591.561 196.455)" fill="#CCCCCC"/>
<use xlink:href="#path152_fill" transform="matrix(1 0 0 -1 -591.561 196.455)" fill="#CCCCCC"/>
<use xlink:href="#path153_fill" transform="matrix(1 0 0 -1 -591.561 196.455)" fill="#CCCCCC"/>
<use xlink:href="#path154_fill" transform="matrix(1 0 0 -1 -591.561 196.455)" fill="#CCCCCC"/>
<use xlink:href="#path155_fill" transform="matrix(1 0 0 -1 -591.561 196.455)" fill="#CCCCCC"/>
<use xlink:href="#path156_fill" transform="matrix(1 0 0 -1 -591.561 196.455)" fill="#CCCCCC"/>
<use xlink:href="#path157_fill" transform="matrix(1 0 0 -1 -591.561 196.455)" fill="#CCCCCC"/>
<use xlink:href="#path158_fill" transform="matrix(1 0 0 -1 -591.561 196.455)" fill="#CCCCCC"/>
<use xlink:href="#path159_fill" transform="matrix(1 0 0 -1 -591.561 196.455)" fill="#CCCCCC"/>
<use xlink:href="#path160_fill" transform="matrix(1 0 0 -1 -591.561 196.455)" fill="#CCCCCC"/>
<use xlink:href="#path161_fill" transform="matrix(1 0 0 -1 -591.561 196.455)" fill="#CCCCCC"/>
<use xlink:href="#path162_fill" transform="matrix(1 0 0 -1 -591.561 196.455)" fill="#CCCCCC"/>
<use xlink:href="#path163_fill" transform="matrix(1 0 0 -1 -591.561 196.455)" fill="#CCCCCC"/>
<use xlink:href="#path164_fill" transform="matrix(1 0 0 -1 -591.561 196.455)" fill="#CCCCCC"/>
<use xlink:href="#path165_fill" transform="matrix(1 0 0 -1 -591.561 196.455)" fill="#CCCCCC"/>
<use xlink:href="#path166_fill" transform="matrix(1 0 0 -1 -591.561 196.455)" fill="#CCCCCC"/>
<use xlink:href="#path167_fill" transform="matrix(1 0 0 -1 -591.561 196.455)" fill="#CCCCCC"/>
<use xlink:href="#path168_fill" transform="matrix(1 0 0 -1 -591.561 196.455)" fill="#CCCCCC"/>
<use xlink:href="#path169_fill" transform="matrix(1 0 0 -1 -591.561 196.455)" fill="#CCCCCC"/>
<use xlink:href="#path170_fill" transform="matrix(1 0 0 -1 -591.561 196.455)" fill="#CCCCCC"/>
<use xlink:href="#path171_fill" transform="matrix(1 0 0 -1 -591.561 196.455)" fill="#CCCCCC"/>
<use xlink:href="#path172_fill" transform="matrix(1 0 0 -1 -591.561 196.455)" fill="#CCCCCC"/>
<use xlink:href="#path173_fill" transform="matrix(1 0 0 -1 -591.561 196.455)" fill="#CCCCCC"/>
<use xlink:href="#path174_fill" transform="matrix(1 0 0 -1 -591.561 196.455)" fill="#CCCCCC"/>
<use xlink:href="#path175_fill" transform="matrix(1 0 0 -1 -591.561 196.455)" fill="#CCCCCC"/>
<use xlink:href="#path176_fill" transform="matrix(1 0 0 -1 -591.561 196.455)" fill="#CCCCCC"/>
<use xlink:href="#path177_fill" transform="matrix(1 0 0 -1 -591.561 196.455)" fill="#CCCCCC"/>
<use xlink:href="#path178_fill" transform="matrix(1 0 0 -1 -591.561 196.455)" fill="#CCCCCC"/>
<use xlink:href="#path179_fill" transform="matrix(1 0 0 -1 -591.561 196.455)" fill="#CCCCCC"/>
<use xlink:href="#path180_fill" transform="matrix(1 0 0 -1 -591.561 196.455)" fill="#CCCCCC"/>
<use xlink:href="#path181_fill" transform="matrix(1 0 0 -1 -591.561 196.455)" fill="#CCCCCC"/>
<use xlink:href="#path182_fill" transform="matrix(1 0 0 -1 -591.561 196.455)" fill="#CCCCCC"/>
<use xlink:href="#path183_fill" transform="matrix(1 0 0 -1 -591.561 196.455)" fill="#CCCCCC"/>
<use xlink:href="#path184_fill" transform="matrix(1 0 0 -1 -591.561 196.455)" fill="#CCCCCC"/>
<use xlink:href="#path185_fill" transform="matrix(1 0 0 -1 -591.561 196.455)" fill="#CCCCCC"/>
<use xlink:href="#path186_fill" transform="matrix(1 0 0 -1 -591.561 196.455)" fill="#CCCCCC"/>
<use xlink:href="#path187_fill" transform="matrix(1 0 0 -1 -591.561 196.455)" fill="#CCCCCC"/>
<use xlink:href="#path188_fill" transform="matrix(1 0 0 -1 -591.561 196.455)" fill="#CCCCCC"/>
<use xlink:href="#path189_fill" transform="matrix(1 0 0 -1 -591.561 196.455)" fill="#CCCCCC"/>
<use xlink:href="#path190_fill" transform="matrix(1 0 0 -1 -591.561 196.455)" fill="#CCCCCC"/>
<use xlink:href="#path191_fill" transform="matrix(1 0 0 -1 -591.561 196.455)" fill="#CCCCCC"/>
<use xlink:href="#path192_fill" transform="matrix(1 0 0 -1 -591.561 196.455)" fill="#CCCCCC"/>
<use xlink:href="#path193_fill" transform="matrix(1 0 0 -1 -591.561 196.455)" fill="#CCCCCC"/>
<use xlink:href="#path194_fill" transform="matrix(1 0 0 -1 -591.561 196.455)" fill="#CCCCCC"/>
<use xlink:href="#path195_fill" transform="matrix(1 0 0 -1 -591.561 196.455)" fill="#CCCCCC"/>
<use xlink:href="#path196_fill" transform="matrix(1 0 0 -1 -591.561 196.455)" fill="#CCCCCC"/>
<use xlink:href="#path197_fill" transform="matrix(1 0 0 -1 -591.561 196.455)" fill="#CCCCCC"/>
<use xlink:href="#path198_fill" transform="matrix(1 0 0 -1 -591.561 196.455)" fill="#CCCCCC"/>
<use xlink:href="#path199_fill" transform="matrix(1 0 0 -1 -591.561 196.455)" fill="#CCCCCC"/>
<use xlink:href="#path200_fill" transform="matrix(1 0 0 -1 -591.561 196.455)" fill="#CCCCCC"/>
<use xlink:href="#path201_fill" transform="matrix(1 0 0 -1 -591.561 196.455)" fill="#CCCCCC"/>
<use xlink:href="#path202_fill" transform="matrix(1 0 0 -1 -591.561 196.455)" fill="#CCCCCC"/>
<use xlink:href="#path203_fill" transform="matrix(1 0 0 -1 -591.561 196.455)" fill="#CCCCCC"/>
<use xlink:href="#path204_fill" transform="matrix(1 0 0 -1 -591.561 196.455)" fill="#CCCCCC"/>
<use xlink:href="#path205_fill" transform="matrix(1 0 0 -1 -591.561 196.455)" fill="#CCCCCC"/>
<use xlink:href="#path206_fill" transform="matrix(1 0 0 -1 -591.561 196.455)" fill="#CCCCCC"/>
<use xlink:href="#path207_fill" transform="matrix(1 0 0 -1 -591.561 196.455)" fill="#CCCCCC"/>
<use xlink:href="#path208_fill" transform="matrix(1 0 0 -1 -591.561 196.455)" fill="#CCCCCC"/>
<use xlink:href="#path209_fill" transform="matrix(1 0 0 -1 -591.561 196.455)" fill="#CCCCCC"/>
<use xlink:href="#path210_fill" transform="matrix(1 0 0 -1 -591.561 196.455)" fill="#CCCCCC"/>
<use xlink:href="#path211_fill" transform="matrix(1 0 0 -1 -591.561 196.455)" fill="#CCCCCC"/>
<use xlink:href="#path212_fill" transform="matrix(1 0 0 -1 -591.561 196.455)" fill="#CCCCCC"/>
<use xlink:href="#path213_fill" transform="matrix(1 0 0 -1 -591.561 196.455)" fill="#CCCCCC"/>
<use xlink:href="#path214_fill" transform="matrix(1 0 0 -1 -591.561 196.455)" fill="#CCCCCC"/>
<use xlink:href="#path215_fill" transform="matrix(1 0 0 -1 -591.561 196.455)" fill="#CCCCCC"/>
<use xlink:href="#path216_fill" transform="matrix(1 0 0 -1 -591.561 196.455)" fill="#CCCCCC"/>
<use xlink:href="#path217_fill" transform="matrix(1 0 0 -1 -591.561 196.455)" fill="#CCCCCC"/>
<use xlink:href="#path218_fill" transform="matrix(1 0 0 -1 -591.561 196.455)" fill="#CCCCCC"/>
<use xlink:href="#path219_fill" transform="matrix(1 0 0 -1 -591.561 196.455)" fill="#CCCCCC"/>
<use xlink:href="#path220_fill" transform="matrix(1 0 0 -1 -591.561 196.455)" fill="#CCCCCC"/>
<use xlink:href="#path221_fill" transform="matrix(1 0 0 -1 -591.561 196.455)" fill="#CCCCCC"/>
<use xlink:href="#path222_fill" transform="matrix(1 0 0 -1 -591.561 196.455)" fill="#CCCCCC"/>
<use xlink:href="#path223_fill" transform="matrix(1 0 0 -1 -591.561 196.455)" fill="#CCCCCC"/>
<use xlink:href="#path224_fill" transform="matrix(1 0 0 -1 -591.561 196.455)" fill="#CCCCCC"/>
<use xlink:href="#path225_fill" transform="matrix(1 0 0 -1 -591.561 196.455)" fill="#CCCCCC"/>
<use xlink:href="#path226_fill" transform="matrix(1 0 0 -1 -591.561 196.455)" fill="#CCCCCC"/>
<use xlink:href="#path227_fill" transform="matrix(1 0 0 -1 -591.561 196.455)" fill="#CCCCCC"/>
<use xlink:href="#path228_fill" transform="matrix(1 0 0 -1 -591.561 196.455)" fill="#CCCCCC"/>
<use xlink:href="#path229_fill" transform="matrix(1 0 0 -1 -591.561 196.455)" fill="#CCCCCC"/>
<use xlink:href="#path230_fill" transform="matrix(1 0 0 -1 -591.561 196.455)" fill="#CCCCCC"/>
<use xlink:href="#path231_fill" transform="matrix(1 0 0 -1 -591.561 196.455)" fill="#CCCCCC"/>
<use xlink:href="#path232_fill" transform="matrix(1 0 0 -1 -591.561 196.455)" fill="#CCCCCC"/>
<use xlink:href="#path233_fill" transform="matrix(1 0 0 -1 -591.561 196.455)" fill="#CCCCCC"/>
<use xlink:href="#path234_fill" transform="matrix(1 0 0 -1 -591.561 196.455)" fill="#CCCCCC"/>
<use xlink:href="#path235_fill" transform="matrix(1 0 0 -1 -591.561 196.455)" fill="#CCCCCC"/>
<use xlink:href="#path236_fill" transform="matrix(1 0 0 -1 -591.561 196.455)" fill="#CCCCCC"/>
<use xlink:href="#path237_fill" transform="matrix(1 0 0 -1 -591.561 196.455)" fill="#CCCCCC"/>
<use xlink:href="#path238_fill" transform="matrix(1 0 0 -1 -591.561 196.455)" fill="#CCCCCC"/>
<use xlink:href="#path239_fill" transform="matrix(1 0 0 -1 -591.561 196.455)" fill="#CCCCCC"/>
<use xlink:href="#path240_fill" transform="matrix(1 0 0 -1 -591.561 196.455)" fill="#CCCCCC"/>
<use xlink:href="#path241_fill" transform="matrix(1 0 0 -1 -591.561 196.455)" fill="#CCCCCC"/>
<use xlink:href="#path242_fill" transform="matrix(1 0 0 -1 -591.561 196.455)" fill="#CCCCCC"/>
<use xlink:href="#path243_fill" transform="matrix(1 0 0 -1 -591.561 196.455)" fill="#CCCCCC"/>
<use xlink:href="#path244_fill" transform="matrix(1 0 0 -1 -591.561 196.455)" fill="#CCCCCC"/>
<use xlink:href="#path245_fill" transform="matrix(1 0 0 -1 -591.561 196.455)" fill="#CCCCCC"/>
<use xlink:href="#path246_fill" transform="matrix(1 0 0 -1 -591.561 196.455)" fill="#CCCCCC"/>
<use xlink:href="#path247_fill" transform="matrix(1 0 0 -1 -591.561 196.455)" fill="#CCCCCC"/>
<use xlink:href="#path248_fill" transform="matrix(1 0 0 -1 -591.561 196.455)" fill="#CCCCCC"/>
<use xlink:href="#path249_fill" transform="matrix(1 0 0 -1 -591.561 196.455)" fill="#CCCCCC"/>
<use xlink:href="#path250_fill" transform="matrix(1 0 0 -1 -591.561 196.455)" fill="#CCCCCC"/>
<use xlink:href="#path251_fill" transform="matrix(1 0 0 -1 -591.561 196.455)" fill="#CCCCCC"/>
<use xlink:href="#path252_fill" transform="matrix(1 0 0 -1 -591.561 196.455)" fill="#CCCCCC"/>
<use xlink:href="#path253_fill" transform="matrix(1 0 0 -1 -591.561 196.455)" fill="#CCCCCC"/>
<use xlink:href="#path254_fill" transform="matrix(1 0 0 -1 -591.561 196.455)" fill="#CCCCCC"/>
<use xlink:href="#path255_fill" transform="matrix(1 0 0 -1 -591.561 196.455)" fill="#CCCCCC"/>
<use xlink:href="#path256_fill" transform="matrix(1 0 0 -1 -591.561 196.455)" fill="#CCCCCC"/>
<use xlink:href="#path257_fill" transform="matrix(1 0 0 -1 -591.561 196.455)" fill="#CCCCCC"/>
<use xlink:href="#path258_fill" transform="matrix(1 0 0 -1 -591.561 196.455)" fill="#CCCCCC"/>
<use xlink:href="#path259_fill" transform="matrix(1 0 0 -1 -591.561 196.455)" fill="#CCCCCC"/>
<use xlink:href="#path260_fill" transform="matrix(1 0 0 -1 -591.561 196.455)" fill="#CCCCCC"/>
<use xlink:href="#path261_fill" transform="matrix(1 0 0 -1 -591.561 196.455)" fill="#CCCCCC"/>
<use xlink:href="#path262_fill" transform="matrix(1 0 0 -1 -591.561 196.455)" fill="#CCCCCC"/>
<use xlink:href="#path263_fill" transform="matrix(1 0 0 -1 -591.561 196.455)" fill="#CCCCCC"/>
<use xlink:href="#path264_fill" transform="matrix(1 0 0 -1 -591.561 196.455)" fill="#CCCCCC"/>
<use xlink:href="#path265_fill" transform="matrix(1 0 0 -1 -591.561 196.455)" fill="#CCCCCC"/>
<use xlink:href="#path266_fill" transform="matrix(1 0 0 -1 -591.561 196.455)" fill="#CCCCCC"/>
<use xlink:href="#path267_fill" transform="matrix(1 0 0 -1 -591.561 196.455)" fill="#CCCCCC"/>
<use xlink:href="#path268_fill" transform="matrix(1 0 0 -1 -591.561 196.455)" fill="#CCCCCC"/>
<use xlink:href="#path269_fill" transform="matrix(1 0 0 -1 -591.561 196.455)" fill="#CCCCCC"/>
<use xlink:href="#path270_fill" transform="matrix(1 0 0 -1 -591.561 196.455)" fill="#CCCCCC"/>
<use xlink:href="#path271_fill" transform="matrix(1 0 0 -1 -591.561 196.455)" fill="#CCCCCC"/>
<use xlink:href="#path272_fill" transform="matrix(1 0 0 -1 -591.561 196.455)" fill="#CCCCCC"/>
<use xlink:href="#path273_fill" transform="matrix(1 0 0 -1 -591.561 196.455)" fill="#CCCCCC"/>
<use xlink:href="#path274_fill" transform="matrix(1 0 0 -1 -591.561 196.455)" fill="#CCCCCC"/>
<use xlink:href="#path275_fill" transform="matrix(1 0 0 -1 -591.561 196.455)" fill="#CCCCCC"/>
<use xlink:href="#path276_fill" transform="matrix(1 0 0 -1 -591.561 196.455)" fill="#CCCCCC"/>
<use xlink:href="#path277_fill" transform="matrix(1 0 0 -1 -591.561 196.455)" fill="#CCCCCC"/>
<use xlink:href="#path278_fill" transform="matrix(1 0 0 -1 -591.561 196.455)" fill="#CCCCCC"/>
<use xlink:href="#path279_fill" transform="matrix(1 0 0 -1 -591.561 196.455)" fill="#CCCCCC"/>
<use xlink:href="#path280_fill" transform="matrix(1 0 0 -1 -591.561 196.455)" fill="#CCCCCC"/>
<use xlink:href="#path281_fill" transform="matrix(1 0 0 -1 -591.561 196.455)" fill="#CCCCCC"/>
<use xlink:href="#path282_fill" transform="matrix(1 0 0 -1 -591.561 196.455)" fill="#CCCCCC"/>
<use xlink:href="#path283_fill" transform="matrix(1 0 0 -1 -591.561 196.455)" fill="#CCCCCC"/>
<use xlink:href="#path284_fill" transform="matrix(1 0 0 -1 -591.561 196.455)" fill="#CCCCCC"/>
<use xlink:href="#path285_fill" transform="matrix(1 0 0 -1 -591.561 196.455)" fill="#CCCCCC"/>
<use xlink:href="#path286_fill" transform="matrix(1 0 0 -1 -591.561 196.455)" fill="#CCCCCC"/>
<use xlink:href="#path287_fill" transform="matrix(1 0 0 -1 -591.561 196.455)" fill="#CCCCCC"/>
<use xlink:href="#path288_fill" transform="matrix(1 0 0 -1 -591.561 196.455)" fill="#CCCCCC"/>
<use xlink:href="#path289_fill" transform="matrix(1 0 0 -1 -591.561 196.455)" fill="#CCCCCC"/>
<use xlink:href="#path290_fill" transform="matrix(1 0 0 -1 -591.561 196.455)" fill="#CCCCCC"/>
<use xlink:href="#path291_fill" transform="matrix(1 0 0 -1 -591.561 196.455)" fill="#CCCCCC"/>
<use xlink:href="#path292_fill" transform="matrix(1 0 0 -1 -591.561 196.455)" fill="#CCCCCC"/>
<use xlink:href="#path293_fill" transform="matrix(1 0 0 -1 -591.561 196.455)" fill="#CCCCCC"/>
<use xlink:href="#path294_fill" transform="matrix(1 0 0 -1 -591.561 196.455)" fill="#CCCCCC"/>
<use xlink:href="#path295_fill" transform="matrix(1 0 0 -1 -591.561 196.455)" fill="#CCCCCC"/>
<use xlink:href="#path296_fill" transform="matrix(1 0 0 -1 -591.561 196.455)" fill="#CCCCCC"/>
<use xlink:href="#path297_fill" transform="matrix(1 0 0 -1 -591.561 196.455)" fill="#CCCCCC"/>
<use xlink:href="#path298_fill" transform="matrix(1 0 0 -1 -591.561 196.455)" fill="#CCCCCC"/>
<use xlink:href="#path299_fill" transform="matrix(1 0 0 -1 -591.561 196.455)" fill="#CCCCCC"/>
<use xlink:href="#path300_fill" transform="matrix(1 0 0 -1 -591.561 196.455)" fill="#CCCCCC"/>
<use xlink:href="#path301_fill" transform="matrix(1 0 0 -1 -591.561 196.455)" fill="#CCCCCC"/>
<use xlink:href="#path302_fill" transform="matrix(1 0 0 -1 -591.561 196.455)" fill="#CCCCCC"/>
<use xlink:href="#path303_fill" transform="matrix(1 0 0 -1 -591.561 196.455)" fill="#CCCCCC"/>
<use xlink:href="#path304_fill" transform="matrix(1 0 0 -1 -591.561 196.455)" fill="#CCCCCC"/>
<use xlink:href="#path305_fill" transform="matrix(1 0 0 -1 -591.561 196.455)" fill="#CCCCCC"/>
<use xlink:href="#path306_fill" transform="matrix(1 0 0 -1 -591.561 196.455)" fill="#CCCCCC"/>
<use xlink:href="#path307_fill" transform="matrix(1 0 0 -1 -591.561 196.455)" fill="#CCCCCC"/>
<use xlink:href="#path308_fill" transform="matrix(1 0 0 -1 -591.561 196.455)" fill="#CCCCCC"/>
<use xlink:href="#path309_fill" transform="matrix(1 0 0 -1 -591.561 196.455)" fill="#CCCCCC"/>
<use xlink:href="#path310_fill" transform="matrix(1 0 0 -1 -591.561 196.455)" fill="#CCCCCC"/>
<use xlink:href="#path311_fill" transform="matrix(1 0 0 -1 -591.561 196.455)" fill="#CCCCCC"/>
<use xlink:href="#path312_fill" transform="matrix(1 0 0 -1 -591.561 196.455)" fill="#CCCCCC"/>
<use xlink:href="#path313_fill" transform="matrix(1 0 0 -1 -591.561 196.455)" fill="#CCCCCC"/>
<use xlink:href="#path314_fill" transform="matrix(1 0 0 -1 -591.561 196.455)" fill="#CCCCCC"/>
<use xlink:href="#path315_fill" transform="matrix(1 0 0 -1 -591.561 196.455)" fill="#CCCCCC"/>
<use xlink:href="#path316_fill" transform="matrix(1 0 0 -1 -591.561 196.455)" fill="#CCCCCC"/>
<use xlink:href="#path317_fill" transform="matrix(1 0 0 -1 -591.561 196.455)" fill="#CCCCCC"/>
<use xlink:href="#path318_fill" transform="matrix(1 0 0 -1 -591.561 196.455)" fill="#CCCCCC"/>
<use xlink:href="#path319_fill" transform="matrix(1 0 0 -1 -591.561 196.455)" fill="#CCCCCC"/>
<use xlink:href="#path320_fill" transform="matrix(1 0 0 -1 -591.561 196.455)" fill="#CCCCCC"/>
</g>
</g>
<defs>
<path id="path0_fill" d="M 43.9566 0L 43.9566 16.0789L 44.9566 16.0789L 44.9566 0L 43.9566 0Z"/>
<path id="path1_fill" d="M 0 1.52588e-05L 0 16.0789L 1 16.0789L 1 1.52588e-05L 0 1.52588e-05Z"/>
<path id="path2_fill" d="M 8.79132 6.07863L 8.79132 16.0789L 9.79132 16.0789L 9.79132 6.07863L 8.79132 6.07863Z"/>
<path id="path3_fill" d="M 17.5826 16.0789L 17.5826 6.07863L 18.5826 6.07863L 18.5826 16.0789L 17.5826 16.0789Z"/>
<path id="path4_fill" d="M 26.374 6.07863L 26.374 16.0789L 27.374 16.0789L 27.374 6.07863L 26.374 6.07863Z"/>
<path id="path5_fill" d="M 35.1653 16.0789L 35.1653 6.07863L 36.1653 6.07863L 36.1653 16.0789L 35.1653 16.0789Z"/>
<path id="path6_fill" d="M 52.7479 16.0789L 52.7479 6.07863L 53.7479 6.07863L 53.7479 16.0789L 52.7479 16.0789Z"/>
<path id="path7_fill" d="M 61.5392 6.07863L 61.5392 16.0789L 62.5392 16.0789L 62.5392 6.07863L 61.5392 6.07863Z"/>
<path id="path8_fill" d="M 70.4724 16.0789L 70.4724 6.07861L 71.4724 6.07861L 71.4724 16.0789L 70.4724 16.0789Z"/>
<path id="path9_fill" d="M 79.2637 6.07863L 79.2637 16.0789L 80.2637 16.0789L 80.2637 6.07863L 79.2637 6.07863Z"/>
<path id="path10_fill" d="M 88.0551 16.0789L 88.0551 1.52588e-05L 89.0551 1.52588e-05L 89.0551 16.0789L 88.0551 16.0789Z"/>
<path id="path11_fill" d="M 96.8464 6.07863L 96.8464 16.0789L 97.8464 16.0789L 97.8464 6.07863L 96.8464 6.07863Z"/>
<path id="path12_fill" d="M 105.638 16.0789L 105.638 6.07861L 106.638 6.07861L 106.638 16.0789L 105.638 16.0789Z"/>
<path id="path13_fill" d="M 114.429 6.07861L 114.429 16.0789L 115.429 16.0789L 115.429 6.07861L 114.429 6.07861Z"/>
<path id="path14_fill" d="M 123.22 16.0789L 123.22 6.07863L 124.22 6.07863L 124.22 16.0789L 123.22 16.0789Z"/>
<path id="path15_fill" d="M 132.012 0L 132.012 16.0789L 133.012 16.0789L 133.012 0L 132.012 0Z"/>
<path id="path16_fill" d="M 140.803 16.0789L 140.803 6.07861L 141.803 6.07861L 141.803 16.0789L 140.803 16.0789Z"/>
<path id="path17_fill" d="M 149.594 6.07863L 149.594 16.0789L 150.594 16.0789L 150.594 6.07863L 149.594 6.07863Z"/>
<path id="path18_fill" d="M 158.386 16.0789L 158.386 6.07863L 159.386 6.07863L 159.386 16.0789L 158.386 16.0789Z"/>
<path id="path19_fill" d="M 167.177 6.07863L 167.177 16.0789L 168.177 16.0789L 168.177 6.07863L 167.177 6.07863Z"/>
<path id="path20_fill" d="M 175.968 16.0789L 175.968 1.52588e-05L 176.968 1.52588e-05L 176.968 16.0789L 175.968 16.0789Z"/>
<path id="path21_fill" d="M 184.76 6.07863L 184.76 16.0789L 185.76 16.0789L 185.76 6.07863L 184.76 6.07863Z"/>
<path id="path22_fill" d="M 193.693 16.0789L 193.693 6.07861L 194.693 6.07861L 194.693 16.0789L 193.693 16.0789Z"/>
<path id="path23_fill" d="M 202.484 6.07863L 202.484 16.0789L 203.484 16.0789L 203.484 6.07863L 202.484 6.07863Z"/>
<path id="path24_fill" d="M 211.275 16.0789L 211.275 6.07863L 212.275 6.07863L 212.275 16.0789L 211.275 16.0789Z"/>
<path id="path25_fill" d="M 220.067 0L 220.067 16.0789L 221.067 16.0789L 221.067 0L 220.067 0Z"/>
<path id="path26_fill" d="M 228.858 16.0789L 228.858 6.07861L 229.858 6.07861L 229.858 16.0789L 228.858 16.0789Z"/>
<path id="path27_fill" d="M 237.649 6.07863L 237.649 16.0789L 238.649 16.0789L 238.649 6.07863L 237.649 6.07863Z"/>
<path id="path28_fill" d="M 246.441 16.0789L 246.441 6.07863L 247.441 6.07863L 247.441 16.0789L 246.441 16.0789Z"/>
<path id="path29_fill" d="M 255.232 6.07863L 255.232 16.0789L 256.232 16.0789L 256.232 6.07863L 255.232 6.07863Z"/>
<path id="path30_fill" d="M 264.023 16.0789L 264.023 1.52588e-05L 265.023 1.52588e-05L 265.023 16.0789L 264.023 16.0789Z"/>
<path id="path31_fill" d="M 272.815 6.07863L 272.815 16.0789L 273.815 16.0789L 273.815 6.07863L 272.815 6.07863Z"/>
<path id="path32_fill" d="M 281.606 16.0789L 281.606 6.07863L 282.606 6.07863L 282.606 16.0789L 281.606 16.0789Z"/>
<path id="path33_fill" d="M 290.397 6.07863L 290.397 16.0789L 291.397 16.0789L 291.397 6.07863L 290.397 6.07863Z"/>
<path id="path34_fill" d="M 299.189 16.0789L 299.189 6.07863L 300.189 6.07863L 300.189 16.0789L 299.189 16.0789Z"/>
<path id="path35_fill" d="M 307.98 1.52588e-05L 307.98 16.0789L 308.98 16.0789L 308.98 1.52588e-05L 307.98 1.52588e-05Z"/>
<path id="path36_fill" d="M 316.771 16.0789L 316.771 6.07863L 317.771 6.07863L 317.771 16.0789L 316.771 16.0789Z"/>
<path id="path37_fill" d="M 325.704 6.07863L 325.704 16.0789L 326.704 16.0789L 326.704 6.07863L 325.704 6.07863Z"/>
<path id="path38_fill" d="M 334.496 16.0789L 334.496 6.07863L 335.496 6.07863L 335.496 16.0789L 334.496 16.0789Z"/>
<path id="path39_fill" d="M 343.287 6.07863L 343.287 16.0789L 344.287 16.0789L 344.287 6.07863L 343.287 6.07863Z"/>
<path id="path40_fill" d="M 352.078 16.0789L 352.078 1.52588e-05L 353.078 1.52588e-05L 353.078 16.0789L 352.078 16.0789Z"/>
<path id="path41_fill" d="M 360.87 6.07863L 360.87 16.0789L 361.87 16.0789L 361.87 6.07863L 360.87 6.07863Z"/>
<path id="path42_fill" d="M 369.661 16.0789L 369.661 6.07863L 370.661 6.07863L 370.661 16.0789L 369.661 16.0789Z"/>
<path id="path43_fill" d="M 378.452 6.07863L 378.452 16.0789L 379.452 16.0789L 379.452 6.07863L 378.452 6.07863Z"/>
<path id="path44_fill" d="M 387.244 16.0789L 387.244 6.07863L 388.244 6.07863L 388.244 16.0789L 387.244 16.0789Z"/>
<path id="path45_fill" d="M 396.035 0L 396.035 16.0789L 397.035 16.0789L 397.035 0L 396.035 0Z"/>
<path id="path46_fill" d="M 404.826 16.0789L 404.826 6.07863L 405.826 6.07863L 405.826 16.0789L 404.826 16.0789Z"/>
<path id="path47_fill" d="M 413.618 6.07863L 413.618 16.0789L 414.618 16.0789L 414.618 6.07863L 413.618 6.07863Z"/>
<path id="path48_fill" d="M 422.409 16.0789L 422.409 6.07863L 423.409 6.07863L 423.409 16.0789L 422.409 16.0789Z"/>
<path id="path49_fill" d="M 431.2 6.07863L 431.2 16.0789L 432.2 16.0789L 432.2 6.07863L 431.2 6.07863Z"/>
<path id="path50_fill" d="M 439.992 16.0789L 439.992 1.52588e-05L 440.992 1.52588e-05L 440.992 16.0789L 439.992 16.0789Z"/>
<path id="path51_fill" d="M 448.783 6.07863L 448.783 16.0789L 449.783 16.0789L 449.783 6.07863L 448.783 6.07863Z"/>
<path id="path52_fill" d="M 457.716 16.0789L 457.716 6.07863L 458.716 6.07863L 458.716 16.0789L 457.716 16.0789Z"/>
<path id="path53_fill" d="M 466.508 6.07861L 466.508 16.0789L 467.508 16.0789L 467.508 6.07861L 466.508 6.07861Z"/>
<path id="path54_fill" d="M 475.299 16.0789L 475.299 6.07863L 476.299 6.07863L 476.299 16.0789L 475.299 16.0789Z"/>
<path id="path55_fill" d="M 484.09 0L 484.09 16.0789L 485.09 16.0789L 485.09 0L 484.09 0Z"/>
<path id="path56_fill" d="M 492.882 16.0789L 492.882 6.07861L 493.882 6.07861L 493.882 16.0789L 492.882 16.0789Z"/>
<path id="path57_fill" d="M 501.673 6.07861L 501.673 16.0789L 502.673 16.0789L 502.673 6.07861L 501.673 6.07861Z"/>
<path id="path58_fill" d="M 510.464 16.0789L 510.464 6.07863L 511.464 6.07863L 511.464 16.0789L 510.464 16.0789Z"/>
<path id="path59_fill" d="M 519.255 6.07863L 519.255 16.0789L 520.255 16.0789L 520.255 6.07863L 519.255 6.07863Z"/>
<path id="path60_fill" d="M 528.047 16.0789L 528.047 1.52588e-05L 529.047 1.52588e-05L 529.047 16.0789L 528.047 16.0789Z"/>
<path id="path61_fill" d="M 536.838 6.07863L 536.838 16.0789L 537.838 16.0789L 537.838 6.07863L 536.838 6.07863Z"/>
<path id="path62_fill" d="M 545.629 16.0789L 545.629 6.07863L 546.629 6.07863L 546.629 16.0789L 545.629 16.0789Z"/>
<path id="path63_fill" d="M 554.421 6.07861L 554.421 16.0789L 555.421 16.0789L 555.421 6.07861L 554.421 6.07861Z"/>
<path id="path64_fill" d="M 563.212 16.0789L 563.212 6.07861L 564.212 6.07861L 564.212 16.0789L 563.212 16.0789Z"/>
<path id="path65_fill" d="M 572.003 1.52588e-05L 572.003 16.0789L 573.003 16.0789L 573.003 1.52588e-05L 572.003 1.52588e-05Z"/>
<path id="path66_fill" d="M 580.937 16.0789L 580.937 6.07861L 581.937 6.07861L 581.937 16.0789L 580.937 16.0789Z"/>
<path id="path67_fill" d="M 589.728 6.07863L 589.728 16.0789L 590.728 16.0789L 590.728 6.07863L 589.728 6.07863Z"/>
<path id="path68_fill" d="M 598.519 16.0789L 598.519 6.07863L 599.519 6.07863L 599.519 16.0789L 598.519 16.0789Z"/>
<path id="path69_fill" d="M 607.311 6.07863L 607.311 16.0789L 608.311 16.0789L 608.311 6.07863L 607.311 6.07863Z"/>
<path id="path70_fill" d="M 616.102 16.0789L 616.102 1.52588e-05L 617.102 1.52588e-05L 617.102 16.0789L 616.102 16.0789Z"/>
<path id="path71_fill" d="M 624.893 6.07863L 624.893 16.0789L 625.893 16.0789L 625.893 6.07863L 624.893 6.07863Z"/>
<path id="path72_fill" d="M 633.685 16.0789L 633.685 6.07863L 634.685 6.07863L 634.685 16.0789L 633.685 16.0789Z"/>
<path id="path73_fill" d="M 642.476 6.07863L 642.476 16.0789L 643.476 16.0789L 643.476 6.07863L 642.476 6.07863Z"/>
<path id="path74_fill" d="M 651.267 16.0789L 651.267 6.07861L 652.267 6.07861L 652.267 16.0789L 651.267 16.0789Z"/>
<path id="path75_fill" d="M 660.059 1.52588e-05L 660.059 16.0789L 661.059 16.0789L 661.059 1.52588e-05L 660.059 1.52588e-05Z"/>
<path id="path76_fill" d="M 668.85 16.0789L 668.85 6.07863L 669.85 6.07863L 669.85 16.0789L 668.85 16.0789Z"/>
<path id="path77_fill" d="M 677.641 6.07863L 677.641 16.0789L 678.641 16.0789L 678.641 6.07863L 677.641 6.07863Z"/>
<path id="path78_fill" d="M 686.432 16.0789L 686.432 6.07863L 687.432 6.07863L 687.432 16.0789L 686.432 16.0789Z"/>
<path id="path79_fill" d="M 695.224 6.07863L 695.224 16.0789L 696.224 16.0789L 696.224 6.07863L 695.224 6.07863Z"/>
<path id="path80_fill" d="M 704.015 16.0789L 704.015 0L 705.015 0L 705.015 16.0789L 704.015 16.0789Z"/>
<path id="path81_fill" d="M 712.948 6.07863L 712.948 16.0789L 713.948 16.0789L 713.948 6.07863L 712.948 6.07863Z"/>
<path id="path82_fill" d="M 721.74 16.0789L 721.74 6.07863L 722.74 6.07863L 722.74 16.0789L 721.74 16.0789Z"/>
<path id="path83_fill" d="M 730.531 6.07863L 730.531 16.0789L 731.531 16.0789L 731.531 6.07863L 730.531 6.07863Z"/>
<path id="path84_fill" d="M 739.322 16.0789L 739.322 6.07863L 740.322 6.07863L 740.322 16.0789L 739.322 16.0789Z"/>
<path id="path85_fill" d="M 748.114 1.52588e-05L 748.114 16.0789L 749.114 16.0789L 749.114 1.52588e-05L 748.114 1.52588e-05Z"/>
<path id="path86_fill" d="M 756.905 16.0789L 756.905 6.07863L 757.905 6.07863L 757.905 16.0789L 756.905 16.0789Z"/>
<path id="path87_fill" d="M 765.696 6.07863L 765.696 16.0789L 766.696 16.0789L 766.696 6.07863L 765.696 6.07863Z"/>
<path id="path88_fill" d="M 774.488 16.0789L 774.488 6.07863L 775.488 6.07863L 775.488 16.0789L 774.488 16.0789Z"/>
<path id="path89_fill" d="M 783.279 6.07863L 783.279 16.0789L 784.279 16.0789L 784.279 6.07863L 783.279 6.07863Z"/>
<path id="path90_fill" d="M 792.07 16.0789L 792.07 0L 793.07 0L 793.07 16.0789L 792.07 16.0789Z"/>
<path id="path91_fill" d="M 800.862 6.07863L 800.862 16.0789L 801.862 16.0789L 801.862 6.07863L 800.862 6.07863Z"/>
<path id="path92_fill" d="M 809.653 16.0789L 809.653 6.07863L 810.653 6.07863L 810.653 16.0789L 809.653 16.0789Z"/>
<path id="path93_fill" d="M 818.444 6.07863L 818.444 16.0789L 819.444 16.0789L 819.444 6.07863L 818.444 6.07863Z"/>
<path id="path94_fill" d="M 827.236 16.0789L 827.236 6.07861L 828.236 6.07861L 828.236 16.0789L 827.236 16.0789Z"/>
<path id="path95_fill" d="M 836.027 1.52588e-05L 836.027 16.0789L 837.027 16.0789L 837.027 1.52588e-05L 836.027 1.52588e-05Z"/>
<path id="path96_fill" d="M 844.96 16.0789L 844.96 6.07861L 845.96 6.07861L 845.96 16.0789L 844.96 16.0789Z"/>
<path id="path97_fill" d="M 853.751 6.07863L 853.751 16.0789L 854.751 16.0789L 854.751 6.07863L 853.751 6.07863Z"/>
<path id="path98_fill" d="M 862.543 16.0789L 862.543 6.07863L 863.543 6.07863L 863.543 16.0789L 862.543 16.0789Z"/>
<path id="path99_fill" d="M 871.334 6.07863L 871.334 16.0789L 872.334 16.0789L 872.334 6.07863L 871.334 6.07863Z"/>
<path id="path100_fill" d="M 880.125 16.0789L 880.125 1.52588e-05L 881.125 1.52588e-05L 881.125 16.0789L 880.125 16.0789Z"/>
<path id="path101_fill" d="M 888.917 6.07863L 888.917 16.0789L 889.917 16.0789L 889.917 6.07863L 888.917 6.07863Z"/>
<path id="path102_fill" d="M 897.708 16.0789L 897.708 6.07863L 898.708 6.07863L 898.708 16.0789L 897.708 16.0789Z"/>
<path id="path103_fill" d="M 906.499 6.07861L 906.499 16.0789L 907.499 16.0789L 907.499 6.07861L 906.499 6.07861Z"/>
<path id="path104_fill" d="M 915.291 16.0789L 915.291 6.07863L 916.291 6.07863L 916.291 16.0789L 915.291 16.0789Z"/>
<path id="path105_fill" d="M 924.082 1.52588e-05L 924.082 16.0789L 925.082 16.0789L 925.082 1.52588e-05L 924.082 1.52588e-05Z"/>
<path id="path106_fill" d="M 932.873 16.0789L 932.873 6.07863L 933.873 6.07863L 933.873 16.0789L 932.873 16.0789Z"/>
<path id="path107_fill" d="M 941.665 6.07863L 941.665 16.0789L 942.665 16.0789L 942.665 6.07863L 941.665 6.07863Z"/>
<path id="path108_fill" d="M 950.456 16.0789L 950.456 6.07863L 951.456 6.07863L 951.456 16.0789L 950.456 16.0789Z"/>
<path id="path109_fill" d="M 959.247 6.07863L 959.247 16.0789L 960.247 16.0789L 960.247 6.07863L 959.247 6.07863Z"/>
<path id="path110_fill" d="M 968.18 16.0789L 968.18 1.52588e-05L 969.18 1.52588e-05L 969.18 16.0789L 968.18 16.0789Z"/>
<path id="path111_fill" d="M 976.972 6.07863L 976.972 16.0789L 977.972 16.0789L 977.972 6.07863L 976.972 6.07863Z"/>
<path id="path112_fill" d="M 985.763 16.0789L 985.763 6.07863L 986.763 6.07863L 986.763 16.0789L 985.763 16.0789Z"/>
<path id="path113_fill" d="M 994.554 6.07863L 994.554 16.0789L 995.554 16.0789L 995.554 6.07863L 994.554 6.07863Z"/>
<path id="path114_fill" d="M 1003.35 16.0789L 1003.35 6.07861L 1004.35 6.07861L 1004.35 16.0789L 1003.35 16.0789Z"/>
<path id="path115_fill" d="M 1012.14 1.52588e-05L 1012.14 16.0789L 1013.14 16.0789L 1013.14 1.52588e-05L 1012.14 1.52588e-05Z"/>
<path id="path116_fill" d="M 1020.93 16.0789L 1020.93 6.07863L 1021.93 6.07863L 1021.93 16.0789L 1020.93 16.0789Z"/>
<path id="path117_fill" d="M 1029.72 6.07863L 1029.72 16.0789L 1030.72 16.0789L 1030.72 6.07863L 1029.72 6.07863Z"/>
<path id="path118_fill" d="M 1038.51 16.0789L 1038.51 6.07861L 1039.51 6.07861L 1039.51 16.0789L 1038.51 16.0789Z"/>
<path id="path119_fill" d="M 1047.3 6.07863L 1047.3 16.0789L 1048.3 16.0789L 1048.3 6.07863L 1047.3 6.07863Z"/>
<path id="path120_fill" d="M 1056.09 16.0789L 1056.09 0L 1057.09 0L 1057.09 16.0789L 1056.09 16.0789Z"/>
<path id="path121_fill" d="M 1064.89 6.07863L 1064.89 16.0789L 1065.89 16.0789L 1065.89 6.07863L 1064.89 6.07863Z"/>
<path id="path122_fill" d="M 1073.68 16.0789L 1073.68 6.07863L 1074.68 6.07863L 1074.68 16.0789L 1073.68 16.0789Z"/>
<path id="path123_fill" d="M 1082.47 6.07863L 1082.47 16.0789L 1083.47 16.0789L 1083.47 6.07863L 1082.47 6.07863Z"/>
<path id="path124_fill" d="M 1091.26 16.0789L 1091.26 6.07863L 1092.26 6.07863L 1092.26 16.0789L 1091.26 16.0789Z"/>
<path id="path125_fill" d="M 1100.19 0L 1100.19 16.0789L 1101.19 16.0789L 1101.19 0L 1100.19 0Z"/>
<path id="path126_fill" d="M 1108.98 16.0789L 1108.98 6.07863L 1109.98 6.07863L 1109.98 16.0789L 1108.98 16.0789Z"/>
<path id="path127_fill" d="M 1117.77 6.07863L 1117.77 16.0789L 1118.77 16.0789L 1118.77 6.07863L 1117.77 6.07863Z"/>
<path id="path128_fill" d="M 1126.57 16.0789L 1126.57 6.07861L 1127.57 6.07861L 1127.57 16.0789L 1126.57 16.0789Z"/>
<path id="path129_fill" d="M 1135.36 6.07863L 1135.36 16.0789L 1136.36 16.0789L 1136.36 6.07863L 1135.36 6.07863Z"/>
<path id="path130_fill" d="M 1144.15 16.0789L 1144.15 1.52588e-05L 1145.15 1.52588e-05L 1145.15 16.0789L 1144.15 16.0789Z"/>
<path id="path131_fill" d="M 1152.94 6.07861L 1152.94 16.0789L 1153.94 16.0789L 1153.94 6.07861L 1152.94 6.07861Z"/>
<path id="path132_fill" d="M 1161.73 16.0789L 1161.73 6.07863L 1162.73 6.07863L 1162.73 16.0789L 1161.73 16.0789Z"/>
<path id="path133_fill" d="M 1170.52 6.07863L 1170.52 16.0789L 1171.52 16.0789L 1171.52 6.07863L 1170.52 6.07863Z"/>
<path id="path134_fill" d="M 1179.31 16.0789L 1179.31 6.07863L 1180.31 6.07863L 1180.31 16.0789L 1179.31 16.0789Z"/>
<path id="path135_fill" d="M 1188.11 1.52588e-05L 1188.11 16.0789L 1189.11 16.0789L 1189.11 1.52588e-05L 1188.11 1.52588e-05Z"/>
<path id="path136_fill" d="M 1196.9 16.0789L 1196.9 6.07863L 1197.9 6.07863L 1197.9 16.0789L 1196.9 16.0789Z"/>
<path id="path137_fill" d="M 1205.69 6.07863L 1205.69 16.0789L 1206.69 16.0789L 1206.69 6.07863L 1205.69 6.07863Z"/>
<path id="path138_fill" d="M 1214.48 16.0789L 1214.48 6.07863L 1215.48 6.07863L 1215.48 16.0789L 1214.48 16.0789Z"/>
<path id="path139_fill" d="M 1223.41 6.07863L 1223.41 16.0789L 1224.41 16.0789L 1224.41 6.07863L 1223.41 6.07863Z"/>
<path id="path140_fill" d="M 1232.2 16.0789L 1232.2 1.52588e-05L 1233.2 1.52588e-05L 1233.2 16.0789L 1232.2 16.0789Z"/>
<path id="path141_fill" d="M 1241 6.07863L 1241 16.0789L 1242 16.0789L 1242 6.07863L 1241 6.07863Z"/>
<path id="path142_fill" d="M 1249.79 16.0789L 1249.79 6.07863L 1250.79 6.07863L 1250.79 16.0789L 1249.79 16.0789Z"/>
<path id="path143_fill" d="M 1258.58 6.07863L 1258.58 16.0789L 1259.58 16.0789L 1259.58 6.07863L 1258.58 6.07863Z"/>
<path id="path144_fill" d="M 1267.37 16.0789L 1267.37 6.07861L 1268.37 6.07861L 1268.37 16.0789L 1267.37 16.0789Z"/>
<path id="path145_fill" d="M 1276.16 1.52588e-05L 1276.16 16.0789L 1277.16 16.0789L 1277.16 1.52588e-05L 1276.16 1.52588e-05Z"/>
<path id="path146_fill" d="M 1284.95 16.0789L 1284.95 6.07863L 1285.95 6.07863L 1285.95 16.0789L 1284.95 16.0789Z"/>
<path id="path147_fill" d="M 1293.74 6.07861L 1293.74 16.0789L 1294.74 16.0789L 1294.74 6.07861L 1293.74 6.07861Z"/>
<path id="path148_fill" d="M 1302.53 16.0789L 1302.53 6.07863L 1303.53 6.07863L 1303.53 16.0789L 1302.53 16.0789Z"/>
<path id="path149_fill" d="M 1311.33 6.07863L 1311.33 16.0789L 1312.33 16.0789L 1312.33 6.07863L 1311.33 6.07863Z"/>
<path id="path150_fill" d="M 1320.12 16.0789L 1320.12 0L 1321.12 0L 1321.12 16.0789L 1320.12 16.0789Z"/>
<path id="path151_fill" d="M 1328.91 6.07863L 1328.91 16.0789L 1329.91 16.0789L 1329.91 6.07863L 1328.91 6.07863Z"/>
<path id="path152_fill" d="M 1337.7 16.0789L 1337.7 6.07861L 1338.7 6.07861L 1338.7 16.0789L 1337.7 16.0789Z"/>
<path id="path153_fill" d="M 1346.49 6.07863L 1346.49 16.0789L 1347.49 16.0789L 1347.49 6.07863L 1346.49 6.07863Z"/>
<path id="path154_fill" d="M 1355.42 16.0789L 1355.42 6.07861L 1356.42 6.07861L 1356.42 16.0789L 1355.42 16.0789Z"/>
<path id="path155_fill" d="M 1364.22 1.52588e-05L 1364.22 16.0789L 1365.22 16.0789L 1365.22 1.52588e-05L 1364.22 1.52588e-05Z"/>
<path id="path156_fill" d="M 1373.01 16.0789L 1373.01 6.07863L 1374.01 6.07863L 1374.01 16.0789L 1373.01 16.0789Z"/>
<path id="path157_fill" d="M 1381.8 6.07861L 1381.8 16.0789L 1382.8 16.0789L 1382.8 6.07861L 1381.8 6.07861Z"/>
<path id="path158_fill" d="M 1390.59 16.0789L 1390.59 6.07861L 1391.59 6.07861L 1391.59 16.0789L 1390.59 16.0789Z"/>
<path id="path159_fill" d="M 1399.38 6.07863L 1399.38 16.0789L 1400.38 16.0789L 1400.38 6.07863L 1399.38 6.07863Z"/>
<path id="path160_fill" d="M 1409.17 16.0789L 1408.06 16.0789L 1408.06 1.52588e-05L 1409.17 0L 1409.17 16.0789Z"/>
<path id="path161_fill" d="M 1416.85 16.0789L 1416.85 6.07863L 1417.85 6.07863L 1417.85 16.0789L 1416.85 16.0789Z"/>
<path id="path162_fill" d="M 1425.64 6.07863L 1425.64 16.0789L 1426.64 16.0789L 1426.64 6.07863L 1425.64 6.07863Z"/>
<path id="path163_fill" d="M 1434.44 16.0789L 1434.44 6.07863L 1435.44 6.07863L 1435.44 16.0789L 1434.44 16.0789Z"/>
<path id="path164_fill" d="M 1443.23 6.07863L 1443.23 16.0789L 1444.23 16.0789L 1444.23 6.07863L 1443.23 6.07863Z"/>
<path id="path165_fill" d="M 1452.02 16.0789L 1452.02 0L 1453.02 0L 1453.02 16.0789L 1452.02 16.0789Z"/>
<path id="path166_fill" d="M 1460.81 6.07863L 1460.81 16.0789L 1461.81 16.0789L 1461.81 6.07863L 1460.81 6.07863Z"/>
<path id="path167_fill" d="M 1469.6 16.0789L 1469.6 6.07863L 1470.6 6.07863L 1470.6 16.0789L 1469.6 16.0789Z"/>
<path id="path168_fill" d="M 1478.53 6.07861L 1478.53 16.0789L 1479.53 16.0789L 1479.53 6.07861L 1478.53 6.07861Z"/>
<path id="path169_fill" d="M 1487.33 16.0789L 1487.33 6.07863L 1488.33 6.07863L 1488.33 16.0789L 1487.33 16.0789Z"/>
<path id="path170_fill" d="M 1496.12 1.52588e-05L 1496.12 16.0789L 1497.12 16.0789L 1497.12 1.52588e-05L 1496.12 1.52588e-05Z"/>
<path id="path171_fill" d="M 1504.91 16.0789L 1504.91 6.07863L 1505.91 6.07863L 1505.91 16.0789L 1504.91 16.0789Z"/>
<path id="path172_fill" d="M 1513.7 6.07861L 1513.7 16.0789L 1514.7 16.0789L 1514.7 6.07861L 1513.7 6.07861Z"/>
<path id="path173_fill" d="M 1522.49 16.0789L 1522.49 6.07861L 1523.49 6.07861L 1523.49 16.0789L 1522.49 16.0789Z"/>
<path id="path174_fill" d="M 1531.28 6.07863L 1531.28 16.0789L 1532.28 16.0789L 1532.28 6.07863L 1531.28 6.07863Z"/>
<path id="path175_fill" d="M 1540.07 16.0789L 1540.07 0L 1541.07 0L 1541.07 16.0789L 1540.07 16.0789Z"/>
<path id="path176_fill" d="M 1548.86 6.07861L 1548.86 16.0789L 1549.86 16.0789L 1549.86 6.07861L 1548.86 6.07861Z"/>
<path id="path177_fill" d="M 1557.66 16.0789L 1557.66 6.07863L 1558.66 6.07863L 1558.66 16.0789L 1557.66 16.0789Z"/>
<path id="path178_fill" d="M 1566.45 6.07863L 1566.45 16.0789L 1567.45 16.0789L 1567.45 6.07863L 1566.45 6.07863Z"/>
<path id="path179_fill" d="M 1575.24 16.0789L 1575.24 6.07863L 1576.24 6.07863L 1576.24 16.0789L 1575.24 16.0789Z"/>
<path id="path180_fill" d="M 1584.03 1.52588e-05L 1584.03 16.0789L 1585.03 16.0789L 1585.03 1.52588e-05L 1584.03 1.52588e-05Z"/>
<path id="path181_fill" d="M 1592.82 16.0789L 1592.82 6.07863L 1593.82 6.07863L 1593.82 16.0789L 1592.82 16.0789Z"/>
<path id="path182_fill" d="M 1601.75 6.07861L 1601.75 16.0789L 1602.75 16.0789L 1602.75 6.07861L 1601.75 6.07861Z"/>
<path id="path183_fill" d="M 1610.55 16.0789L 1610.55 6.07863L 1611.55 6.07863L 1611.55 16.0789L 1610.55 16.0789Z"/>
<path id="path184_fill" d="M 1619.34 6.07863L 1619.34 16.0789L 1620.34 16.0789L 1620.34 6.07863L 1619.34 6.07863Z"/>
<path id="path185_fill" d="M 1628.13 16.0789L 1628.13 0L 1629.13 0L 1629.13 16.0789L 1628.13 16.0789Z"/>
<path id="path186_fill" d="M 1636.92 6.07861L 1636.92 16.0789L 1637.92 16.0789L 1637.92 6.07861L 1636.92 6.07861Z"/>
<path id="path187_fill" d="M 1645.71 16.0789L 1645.71 6.07863L 1646.71 6.07863L 1646.71 16.0789L 1645.71 16.0789Z"/>
<path id="path188_fill" d="M 1654.5 6.07863L 1654.5 16.0789L 1655.5 16.0789L 1655.5 6.07863L 1654.5 6.07863Z"/>
<path id="path189_fill" d="M 1663.29 16.0789L 1663.29 6.07863L 1664.29 6.07863L 1664.29 16.0789L 1663.29 16.0789Z"/>
<path id="path190_fill" d="M 1672.08 1.52588e-05L 1672.08 16.0789L 1673.08 16.0789L 1673.08 1.52588e-05L 1672.08 1.52588e-05Z"/>
<path id="path191_fill" d="M 1680.88 16.0789L 1680.88 6.07863L 1681.88 6.07863L 1681.88 16.0789L 1680.88 16.0789Z"/>
<path id="path192_fill" d="M 1689.67 6.07863L 1689.67 16.0789L 1690.67 16.0789L 1690.67 6.07863L 1689.67 6.07863Z"/>
<path id="path193_fill" d="M 1698.46 16.0789L 1698.46 6.07863L 1699.46 6.07863L 1699.46 16.0789L 1698.46 16.0789Z"/>
<path id="path194_fill" d="M 1707.25 6.07863L 1707.25 16.0789L 1708.25 16.0789L 1708.25 6.07863L 1707.25 6.07863Z"/>
<path id="path195_fill" d="M 1716.04 16.0789L 1716.04 1.52588e-05L 1717.04 1.52588e-05L 1717.04 16.0789L 1716.04 16.0789Z"/>
<path id="path196_fill" d="M 1724.83 6.07863L 1724.83 16.0789L 1725.83 16.0789L 1725.83 6.07863L 1724.83 6.07863Z"/>
<path id="path197_fill" d="M 1733.77 16.0789L 1733.77 6.07863L 1734.77 6.07863L 1734.77 16.0789L 1733.77 16.0789Z"/>
<path id="path198_fill" d="M 1742.56 6.07863L 1742.56 16.0789L 1743.56 16.0789L 1743.56 6.07863L 1742.56 6.07863Z"/>
<path id="path199_fill" d="M 1751.35 16.0789L 1751.35 6.07863L 1752.35 6.07863L 1752.35 16.0789L 1751.35 16.0789Z"/>
<path id="path200_fill" d="M 1760.14 1.52588e-05L 1760.14 16.0789L 1761.14 16.0789L 1761.14 1.52588e-05L 1760.14 1.52588e-05Z"/>
<path id="path201_fill" d="M 1768.93 16.0789L 1768.93 6.07863L 1769.93 6.07863L 1769.93 16.0789L 1768.93 16.0789Z"/>
<path id="path202_fill" d="M 1777.72 6.07863L 1777.72 16.0789L 1778.72 16.0789L 1778.72 6.07863L 1777.72 6.07863Z"/>
<path id="path203_fill" d="M 1786.51 16.0789L 1786.51 6.07863L 1787.51 6.07863L 1787.51 16.0789L 1786.51 16.0789Z"/>
<path id="path204_fill" d="M 1795.31 6.07863L 1795.31 16.0789L 1796.31 16.0789L 1796.31 6.07863L 1795.31 6.07863Z"/>
<path id="path205_fill" d="M 1804.1 16.0789L 1804.1 0L 1805.1 0L 1805.1 16.0789L 1804.1 16.0789Z"/>
<path id="path206_fill" d="M 1812.89 6.07863L 1812.89 16.0789L 1813.89 16.0789L 1813.89 6.07863L 1812.89 6.07863Z"/>
<path id="path207_fill" d="M 1821.68 16.0789L 1821.68 6.07863L 1822.68 6.07863L 1822.68 16.0789L 1821.68 16.0789Z"/>
<path id="path208_fill" d="M 1830.47 6.07863L 1830.47 16.0789L 1831.47 16.0789L 1831.47 6.07863L 1830.47 6.07863Z"/>
<path id="path209_fill" d="M 1839.26 16.0789L 1839.26 6.07863L 1840.26 6.07863L 1840.26 16.0789L 1839.26 16.0789Z"/>
<path id="path210_fill" d="M 1848.05 1.52588e-05L 1848.05 16.0789L 1849.05 16.0789L 1849.05 1.52588e-05L 1848.05 1.52588e-05Z"/>
<path id="path211_fill" d="M 1856.84 16.0789L 1856.84 6.07863L 1857.84 6.07863L 1857.84 16.0789L 1856.84 16.0789Z"/>
<path id="path212_fill" d="M 1865.78 6.07863L 1865.78 16.0789L 1866.78 16.0789L 1866.78 6.07863L 1865.78 6.07863Z"/>
<path id="path213_fill" d="M 1874.57 16.0789L 1874.57 6.07861L 1875.57 6.07861L 1875.57 16.0789L 1874.57 16.0789Z"/>
<path id="path214_fill" d="M 1883.36 6.07863L 1883.36 16.0789L 1884.36 16.0789L 1884.36 6.07863L 1883.36 6.07863Z"/>
<path id="path215_fill" d="M 1892.15 16.0789L 1892.15 0L 1893.15 0L 1893.15 16.0789L 1892.15 16.0789Z"/>
<path id="path216_fill" d="M 1900.94 6.07861L 1900.94 16.0789L 1901.94 16.0789L 1901.94 6.07861L 1900.94 6.07861Z"/>
<path id="path217_fill" d="M 1909.73 16.0789L 1909.73 6.07861L 1910.73 6.07861L 1910.73 16.0789L 1909.73 16.0789Z"/>
<path id="path218_fill" d="M 1918.53 6.07863L 1918.53 16.0789L 1919.53 16.0789L 1919.53 6.07863L 1918.53 6.07863Z"/>
<path id="path219_fill" d="M 1927.32 16.0789L 1927.32 6.07863L 1928.32 6.07863L 1928.32 16.0789L 1927.32 16.0789Z"/>
<path id="path220_fill" d="M 1936.11 1.52588e-05L 1936.11 16.0789L 1937.11 16.0789L 1937.11 1.52588e-05L 1936.11 1.52588e-05Z"/>
<path id="path221_fill" d="M 1944.9 16.0789L 1944.9 6.07863L 1945.9 6.07863L 1945.9 16.0789L 1944.9 16.0789Z"/>
<path id="path222_fill" d="M 1953.69 6.07863L 1953.69 16.0789L 1954.69 16.0789L 1954.69 6.07863L 1953.69 6.07863Z"/>
<path id="path223_fill" d="M 1962.48 16.0789L 1962.48 6.07861L 1963.48 6.07861L 1963.48 16.0789L 1962.48 16.0789Z"/>
<path id="path224_fill" d="M 1971.27 6.07861L 1971.27 16.0789L 1972.27 16.0789L 1972.27 6.07861L 1971.27 6.07861Z"/>
<path id="path225_fill" d="M 1980.06 16.0789L 1980.06 1.52588e-05L 1981.06 1.52588e-05L 1981.06 16.0789L 1980.06 16.0789Z"/>
<path id="path226_fill" d="M 1989 6.07861L 1989 16.0789L 1990 16.0789L 1990 6.07861L 1989 6.07861Z"/>
<path id="path227_fill" d="M 1997.79 16.0789L 1997.79 6.07863L 1998.79 6.07863L 1998.79 16.0789L 1997.79 16.0789Z"/>
<path id="path228_fill" d="M 2006.58 6.07863L 2006.58 16.0789L 2007.58 16.0789L 2007.58 6.07863L 2006.58 6.07863Z"/>
<path id="path229_fill" d="M 2015.37 16.0789L 2015.37 6.07863L 2016.37 6.07863L 2016.37 16.0789L 2015.37 16.0789Z"/>
<path id="path230_fill" d="M 2024.16 1.52588e-05L 2024.16 16.0789L 2025.16 16.0789L 2025.16 1.52588e-05L 2024.16 1.52588e-05Z"/>
<path id="path231_fill" d="M 2032.95 16.0789L 2032.95 6.07863L 2033.95 6.07863L 2033.95 16.0789L 2032.95 16.0789Z"/>
<path id="path232_fill" d="M 2041.75 6.07863L 2041.75 16.0789L 2042.75 16.0789L 2042.75 6.07863L 2041.75 6.07863Z"/>
<path id="path233_fill" d="M 2050.54 16.0789L 2050.54 6.07863L 2051.54 6.07863L 2051.54 16.0789L 2050.54 16.0789Z"/>
<path id="path234_fill" d="M 2059.33 6.07861L 2059.33 16.0789L 2060.33 16.0789L 2060.33 6.07861L 2059.33 6.07861Z"/>
<path id="path235_fill" d="M 2068.12 16.0789L 2068.12 1.52588e-05L 2069.12 1.52588e-05L 2069.12 16.0789L 2068.12 16.0789Z"/>
<path id="path236_fill" d="M 2076.91 6.07863L 2076.91 16.0789L 2077.91 16.0789L 2077.91 6.07863L 2076.91 6.07863Z"/>
<path id="path237_fill" d="M 2085.7 16.0789L 2085.7 6.07863L 2086.7 6.07863L 2086.7 16.0789L 2085.7 16.0789Z"/>
<path id="path238_fill" d="M 2094.49 6.07863L 2094.49 16.0789L 2095.49 16.0789L 2095.49 6.07863L 2094.49 6.07863Z"/>
<path id="path239_fill" d="M 2103.29 16.0789L 2103.29 6.07863L 2104.29 6.07863L 2104.29 16.0789L 2103.29 16.0789Z"/>
<path id="path240_fill" d="M 2112.08 0L 2112.08 16.0789L 2113.08 16.0789L 2113.08 0L 2112.08 0Z"/>
<path id="path241_fill" d="M 2121.01 16.0789L 2121.01 6.07863L 2122.01 6.07863L 2122.01 16.0789L 2121.01 16.0789Z"/>
<path id="path242_fill" d="M 2129.8 6.07863L 2129.8 16.0789L 2130.8 16.0789L 2130.8 6.07863L 2129.8 6.07863Z"/>
<path id="path243_fill" d="M 2138.59 16.0789L 2138.59 6.07863L 2139.59 6.07863L 2139.59 16.0789L 2138.59 16.0789Z"/>
<path id="path244_fill" d="M 2147.38 6.07863L 2147.38 16.0789L 2148.38 16.0789L 2148.38 6.07863L 2147.38 6.07863Z"/>
<path id="path245_fill" d="M 2156.18 16.0789L 2156.18 1.52588e-05L 2157.18 1.52588e-05L 2157.18 16.0789L 2156.18 16.0789Z"/>
<path id="path246_fill" d="M 2164.97 6.07863L 2164.97 16.0789L 2165.97 16.0789L 2165.97 6.07863L 2164.97 6.07863Z"/>
<path id="path247_fill" d="M 2173.76 16.0789L 2173.76 6.07863L 2174.76 6.07863L 2174.76 16.0789L 2173.76 16.0789Z"/>
<path id="path248_fill" d="M 2182.55 6.07863L 2182.55 16.0789L 2183.55 16.0789L 2183.55 6.07863L 2182.55 6.07863Z"/>
<path id="path249_fill" d="M 2191.34 16.0789L 2191.34 6.07863L 2192.34 6.07863L 2192.34 16.0789L 2191.34 16.0789Z"/>
<path id="path250_fill" d="M 2200.13 0L 2200.13 16.0789L 2201.13 16.0789L 2201.13 0L 2200.13 0Z"/>
<path id="path251_fill" d="M 2208.92 16.0789L 2208.92 6.07863L 2209.92 6.07863L 2209.92 16.0789L 2208.92 16.0789Z"/>
<path id="path252_fill" d="M 2217.71 6.07863L 2217.71 16.0789L 2218.71 16.0789L 2218.71 6.07863L 2217.71 6.07863Z"/>
<path id="path253_fill" d="M 2226.51 16.0789L 2226.51 6.07863L 2227.51 6.07863L 2227.51 16.0789L 2226.51 16.0789Z"/>
<path id="path254_fill" d="M 2235.3 6.07861L 2235.3 16.0789L 2236.3 16.0789L 2236.3 6.07861L 2235.3 6.07861Z"/>
<path id="path255_fill" d="M 2244.09 16.0789L 2244.09 1.52588e-05L 2245.09 1.52588e-05L 2245.09 16.0789L 2244.09 16.0789Z"/>
<path id="path256_fill" d="M 2253.02 6.07861L 2253.02 16.0789L 2254.02 16.0789L 2254.02 6.07861L 2253.02 6.07861Z"/>
<path id="path257_fill" d="M 2261.81 16.0789L 2261.81 6.07863L 2262.81 6.07863L 2262.81 16.0789L 2261.81 16.0789Z"/>
<path id="path258_fill" d="M 2270.6 6.07863L 2270.6 16.0789L 2271.6 16.0789L 2271.6 6.07863L 2270.6 6.07863Z"/>
<path id="path259_fill" d="M 2279.4 16.0789L 2279.4 6.07863L 2280.4 6.07863L 2280.4 16.0789L 2279.4 16.0789Z"/>
<path id="path260_fill" d="M 2288.19 1.52588e-05L 2288.19 16.0789L 2289.19 16.0789L 2289.19 1.52588e-05L 2288.19 1.52588e-05Z"/>
<path id="path261_fill" d="M 2296.98 16.0789L 2296.98 6.07863L 2297.98 6.07863L 2297.98 16.0789L 2296.98 16.0789Z"/>
<path id="path262_fill" d="M 2305.77 6.07863L 2305.77 16.0789L 2306.77 16.0789L 2306.77 6.07863L 2305.77 6.07863Z"/>
<path id="path263_fill" d="M 2314.56 16.0789L 2314.56 6.07861L 2315.56 6.07861L 2315.56 16.0789L 2314.56 16.0789Z"/>
<path id="path264_fill" d="M 2323.35 6.07863L 2323.35 16.0789L 2324.35 16.0789L 2324.35 6.07863L 2323.35 6.07863Z"/>
<path id="path265_fill" d="M 2332.14 16.0789L 2332.14 1.52588e-05L 2333.14 1.52588e-05L 2333.14 16.0789L 2332.14 16.0789Z"/>
<path id="path266_fill" d="M 2340.93 6.07863L 2340.93 16.0789L 2341.93 16.0789L 2341.93 6.07863L 2340.93 6.07863Z"/>
<path id="path267_fill" d="M 2349.73 16.0789L 2349.73 6.07863L 2350.73 6.07863L 2350.73 16.0789L 2349.73 16.0789Z"/>
<path id="path268_fill" d="M 2358.52 6.07863L 2358.52 16.0789L 2359.52 16.0789L 2359.52 6.07863L 2358.52 6.07863Z"/>
<path id="path269_fill" d="M 2367.31 16.0789L 2367.31 6.07863L 2368.31 6.07863L 2368.31 16.0789L 2367.31 16.0789Z"/>
<path id="path270_fill" d="M 2376.24 1.52588e-05L 2376.24 16.0789L 2377.24 16.0789L 2377.24 1.52588e-05L 2376.24 1.52588e-05Z"/>
<path id="path271_fill" d="M 2385.03 16.0789L 2385.03 6.07863L 2386.03 6.07863L 2386.03 16.0789L 2385.03 16.0789Z"/>
<path id="path272_fill" d="M 2393.82 6.07863L 2393.82 16.0789L 2394.82 16.0789L 2394.82 6.07863L 2393.82 6.07863Z"/>
<path id="path273_fill" d="M 2402.62 16.0789L 2402.62 6.07863L 2403.62 6.07863L 2403.62 16.0789L 2402.62 16.0789Z"/>
<path id="path274_fill" d="M 2411.41 6.07861L 2411.41 16.0789L 2412.41 16.0789L 2412.41 6.07861L 2411.41 6.07861Z"/>
<path id="path275_fill" d="M 2420.2 16.0789L 2420.2 1.52588e-05L 2421.2 1.52588e-05L 2421.2 16.0789L 2420.2 16.0789Z"/>
<path id="path276_fill" d="M 2428.99 6.07863L 2428.99 16.0789L 2429.99 16.0789L 2429.99 6.07863L 2428.99 6.07863Z"/>
<path id="path277_fill" d="M 2437.78 16.0789L 2437.78 6.07863L 2438.78 6.07863L 2438.78 16.0789L 2437.78 16.0789Z"/>
<path id="path278_fill" d="M 2446.57 6.07861L 2446.57 16.0789L 2447.57 16.0789L 2447.57 6.07861L 2446.57 6.07861Z"/>
<path id="path279_fill" d="M 2455.36 16.0789L 2455.36 6.07863L 2456.36 6.07863L 2456.36 16.0789L 2455.36 16.0789Z"/>
<path id="path280_fill" d="M 2464.16 0L 2464.16 16.0789L 2465.16 16.0789L 2465.16 0L 2464.16 0Z"/>
<path id="path281_fill" d="M 2472.95 16.0789L 2472.95 6.07863L 2473.95 6.07863L 2473.95 16.0789L 2472.95 16.0789Z"/>
<path id="path282_fill" d="M 2481.74 6.07863L 2481.74 16.0789L 2482.74 16.0789L 2482.74 6.07863L 2481.74 6.07863Z"/>
<path id="path283_fill" d="M 2490.53 16.0789L 2490.53 6.07863L 2491.53 6.07863L 2491.53 16.0789L 2490.53 16.0789Z"/>
<path id="path284_fill" d="M 2499.32 6.07863L 2499.32 16.0789L 2500.32 16.0789L 2500.32 6.07863L 2499.32 6.07863Z"/>
<path id="path285_fill" d="M 2508.25 16.0789L 2508.25 0L 2509.25 0L 2509.25 16.0789L 2508.25 16.0789Z"/>
<path id="path286_fill" d="M 2517.04 6.07863L 2517.04 16.0789L 2518.04 16.0789L 2518.04 6.07863L 2517.04 6.07863Z"/>
<path id="path287_fill" d="M 2525.84 16.0789L 2525.84 6.07863L 2526.84 6.07863L 2526.84 16.0789L 2525.84 16.0789Z"/>
<path id="path288_fill" d="M 2534.63 6.07861L 2534.63 16.0789L 2535.63 16.0789L 2535.63 6.07861L 2534.63 6.07861Z"/>
<path id="path289_fill" d="M 2543.42 16.0789L 2543.42 6.07863L 2544.42 6.07863L 2544.42 16.0789L 2543.42 16.0789Z"/>
<path id="path290_fill" d="M 2552.21 1.52588e-05L 2552.21 16.0789L 2553.21 16.0789L 2553.21 1.52588e-05L 2552.21 1.52588e-05Z"/>
<path id="path291_fill" d="M 2561 16.0789L 2561 6.07861L 2562 6.07861L 2562 16.0789L 2561 16.0789Z"/>
<path id="path292_fill" d="M 2569.79 6.07863L 2569.79 16.0789L 2570.79 16.0789L 2570.79 6.07863L 2569.79 6.07863Z"/>
<path id="path293_fill" d="M 2578.58 16.0789L 2578.58 6.07863L 2579.58 6.07863L 2579.58 16.0789L 2578.58 16.0789Z"/>
<path id="path294_fill" d="M 2587.38 6.07863L 2587.38 16.0789L 2588.38 16.0789L 2588.38 6.07863L 2587.38 6.07863Z"/>
<path id="path295_fill" d="M 2596.17 16.0789L 2596.17 1.52588e-05L 2597.17 1.52588e-05L 2597.17 16.0789L 2596.17 16.0789Z"/>
<path id="path296_fill" d="M 2604.96 6.07863L 2604.96 16.0789L 2605.96 16.0789L 2605.96 6.07863L 2604.96 6.07863Z"/>
<path id="path297_fill" d="M 2613.75 16.0789L 2613.75 6.07863L 2614.75 6.07863L 2614.75 16.0789L 2613.75 16.0789Z"/>
<path id="path298_fill" d="M 2622.54 6.07863L 2622.54 16.0789L 2623.54 16.0789L 2623.54 6.07863L 2622.54 6.07863Z"/>
<path id="path299_fill" d="M 2631.47 16.0789L 2631.47 6.07863L 2632.47 6.07863L 2632.47 16.0789L 2631.47 16.0789Z"/>
<path id="path300_fill" d="M 2640.27 1.52588e-05L 2640.27 16.0789L 2641.27 16.0789L 2641.27 1.52588e-05L 2640.27 1.52588e-05Z"/>
<path id="path301_fill" d="M 2649.06 16.0789L 2649.06 6.07863L 2650.06 6.07863L 2650.06 16.0789L 2649.06 16.0789Z"/>
<path id="path302_fill" d="M 2657.85 6.07863L 2657.85 16.0789L 2658.85 16.0789L 2658.85 6.07863L 2657.85 6.07863Z"/>
<path id="path303_fill" d="M 2666.64 16.0789L 2666.64 6.07863L 2667.64 6.07863L 2667.64 16.0789L 2666.64 16.0789Z"/>
<path id="path304_fill" d="M 2675.43 6.07861L 2675.43 16.0789L 2676.43 16.0789L 2676.43 6.07861L 2675.43 6.07861Z"/>
<path id="path305_fill" d="M 2684.22 16.0789L 2684.22 1.52588e-05L 2685.22 1.52588e-05L 2685.22 16.0789L 2684.22 16.0789Z"/>
<path id="path306_fill" d="M 2693.01 6.07863L 2693.01 16.0789L 2694.01 16.0789L 2694.01 6.07863L 2693.01 6.07863Z"/>
<path id="path307_fill" d="M 2701.8 16.0789L 2701.8 6.07861L 2702.8 6.07861L 2702.8 16.0789L 2701.8 16.0789Z"/>
<path id="path308_fill" d="M 2710.6 6.07863L 2710.6 16.0789L 2711.6 16.0789L 2711.6 6.07863L 2710.6 6.07863Z"/>
<path id="path309_fill" d="M 2719.39 16.0789L 2719.39 6.07863L 2720.39 6.07863L 2720.39 16.0789L 2719.39 16.0789Z"/>
<path id="path310_fill" d="M 2728.18 0L 2728.18 16.0789L 2729.18 16.0789L 2729.18 0L 2728.18 0Z"/>
<path id="path311_fill" d="M 2736.97 16.0789L 2736.97 6.07863L 2737.97 6.07863L 2737.97 16.0789L 2736.97 16.0789Z"/>
<path id="path312_fill" d="M 2745.76 6.07861L 2745.76 16.0789L 2746.76 16.0789L 2746.76 6.07861L 2745.76 6.07861Z"/>
<path id="path313_fill" d="M 2754.55 16.0789L 2754.55 6.07863L 2755.55 6.07863L 2755.55 16.0789L 2754.55 16.0789Z"/>
<path id="path314_fill" d="M 2763.49 6.07861L 2763.49 16.0789L 2764.49 16.0789L 2764.49 6.07861L 2763.49 6.07861Z"/>
<path id="path315_fill" d="M 2772.28 16.0789L 2772.28 1.52588e-05L 2773.28 1.52588e-05L 2773.28 16.0789L 2772.28 16.0789Z"/>
<path id="path316_fill" d="M 2781.07 6.07863L 2781.07 16.0789L 2782.07 16.0789L 2782.07 6.07863L 2781.07 6.07863Z"/>
<path id="path317_fill" d="M 2789.86 16.0789L 2789.86 6.07861L 2790.86 6.07861L 2790.86 16.0789L 2789.86 16.0789Z"/>
<path id="path318_fill" d="M 2798.65 6.07861L 2798.65 16.0789L 2799.65 16.0789L 2799.65 6.07861L 2798.65 6.07861Z"/>
<path id="path319_fill" d="M 2807.44 16.0789L 2807.44 6.07863L 2808.44 6.07863L 2808.44 16.0789L 2807.44 16.0789Z"/>
<path id="path320_fill" d="M 2816.23 0L 2816.23 16.0789L 2817.23 16.0789L 2817.23 0L 2816.23 0Z"/>
</defs>
</svg>
