<svg width="134" height="109" viewBox="0 0 134 109" version="1.1" xmlns="http://www.w3.org/2000/svg" xmlns:xlink="http://www.w3.org/1999/xlink">
<title>Group</title>
<desc>Created using Figma</desc>
<g id="Canvas" transform="translate(526 501)">
<g id="Group">
<g id="Group">
<g id="Vector">
<use xlink:href="#path0_fill" transform="translate(-526 -501)" fill="#fff"/>
</g>
</g>
<g id="Group">
<g id="Group">
<g id="Vector">
<use xlink:href="#path1_fill" transform="translate(-514.319 -464.287)" fill="#FFFFFF"/>
</g>
<g id="Vector">
<use xlink:href="#path2_fill" transform="translate(-502.639 -464.352)" fill="#FFFFFF"/>
</g>
<g id="Vector">
<use xlink:href="#path3_fill" transform="translate(-490.039 -464.156)" fill="#FFFFFF"/>
</g>
<g id="Vector">
<use xlink:href="#path4_fill" transform="translate(-478.358 -464.156)" fill="#FFFFFF"/>
</g>
<g id="Vector">
<use xlink:href="#path5_fill" transform="translate(-464.512 -464.09)" fill="#FFFFFF"/>
</g>
<g id="Vector">
<use xlink:href="#path6_fill" transform="translate(-451.585 -464.156)" fill="#FFFFFF"/>
</g>
<g id="Vector">
<use xlink:href="#path7_fill" transform="translate(-439.97 -464.156)" fill="#FFFFFF"/>
</g>
<g id="Vector">
<use xlink:href="#path8_fill" transform="translate(-426.386 -464.156)" fill="#FFFFFF"/>
</g>
<g id="Vector">
<use xlink:href="#path9_fill" transform="translate(-411.096 -464.156)" fill="#FFFFFF"/>
</g>
<g id="Vector">
<use xlink:href="#path7_fill" transform="translate(-403.878 -464.156)" fill="#FFFFFF"/>
</g>
</g>
<g id="Group">
<g id="Vector">
<use xlink:href="#path10_fill" transform="translate(-513.925 -438.161)" fill="#FFFFFF"/>
</g>
<g id="Vector">
<use xlink:href="#path11_fill" transform="translate(-505.985 -438.161)" fill="#FFFFFF"/>
</g>
<g id="Vector">
<use xlink:href="#path12_fill" transform="translate(-495.551 -438.161)" fill="#FFFFFF"/>
</g>
<g id="Vector">
<use xlink:href="#path13_fill" transform="translate(-488.267 -438.161)" fill="#FFFFFF"/>
</g>
<g id="Vector">
<use xlink:href="#path14_fill" transform="translate(-476.39 -438.161)" fill="#FFFFFF"/>
</g>
<g id="Vector">
<use xlink:href="#path15_fill" transform="translate(-466.021 -438.161)" fill="#FFFFFF"/>
</g>
</g>
</g>
</g>
</g>
<defs>
<path id="path0_fill" d="M 5.84035 109L 0.196866 103.5C 29.7267 73.3806 42.7199 57.0768 48.3634 48.4993C 36.1577 55.2435 19.9491 63.3626 14.6337 65.9817C 12.9275 66.8329 10.8932 66.5055 9.5808 65.1305C 8.26836 63.7555 7.94025 61.7257 8.85896 60.0888C 17.7835 43.1302 41.998 22.8979 58.9285 9.99893C 41.8012 15.6954 29.0049 23.5527 20.999 29.4456C 11.1557 36.7135 6.16846 42.7374 6.10284 42.8029L 0 37.8266C 0.853085 36.779 21.5896 11.9632 64.047 0.242875C 67.1312 -0.608324 70.2811 0.832167 71.6592 3.71315C 73.0372 6.59413 72.2498 9.93346 69.6249 11.8323C 44.8854 29.9694 31.1048 43.5231 23.427 52.7553C 32.0235 48.3684 42.9167 42.6719 50.2664 38.3504C 52.5632 36.9754 55.4505 37.3028 57.4848 39.1362C 59.4535 40.9695 60.0441 43.785 58.8629 46.2077C 53.4163 57.4697 35.1077 79.1425 5.84035 109Z"/>
<path id="path1_fill" d="M 0.524976 16.0418C 1.31244 16.5002 2.6905 16.8276 3.80607 16.8276C 5.57786 16.8276 6.49657 15.9109 6.49657 14.6013C 6.49657 13.1609 5.64349 12.4406 3.93732 11.393C 1.24682 9.75606 0.196866 7.6608 0.196866 5.82744C 0.196866 2.61908 2.29677 -9.99098e-07 6.43095 -9.99098e-07C 7.74339 -9.99098e-07 8.99021 0.327385 9.5808 0.720246L 8.9902 4.05957C 8.39961 3.73218 7.54652 3.4048 6.49657 3.4048C 4.85602 3.4048 4.06856 4.38695 4.06856 5.43458C 4.06856 6.61317 4.65916 7.20246 6.75906 8.512C 9.38394 10.0834 10.3683 12.1132 10.3683 14.2085C 10.3683 17.8097 7.67777 20.2324 3.80607 20.2324C 2.23115 20.2324 0.656219 19.8395 -5.00656e-07 19.4466L 0.524976 16.0418Z"/>
<path id="path2_fill" d="M 10.4995 19.774C 9.90891 20.0359 8.85896 20.2324 7.54652 20.2324C 2.42801 20.2324 -1.00131e-06 16.1073 -1.00131e-06 10.4108C -1.00131e-06 2.94646 4.13418 -4.65241e-15 8.00588 -4.65241e-15C 9.38394 -4.65241e-15 10.3026 0.261907 10.6964 0.523815L 10.0402 3.73218C 9.5808 3.53575 9.12145 3.33932 8.26836 3.33932C 6.10284 3.33932 4.13418 5.23815 4.13418 10.1489C 4.13418 14.8633 5.90597 16.7621 8.26836 16.7621C 8.92458 16.7621 9.64642 16.6311 10.1058 16.4347L 10.4995 19.774Z"/>
<path id="path3_fill" d="M 8.39961 11.1311L 3.87169 11.1311L 3.87169 16.5002L 8.9902 16.5002L 8.9902 19.8395L -5.00656e-07 19.8395L -5.00656e-07 -4.99549e-07L 8.6621 -4.99549e-07L 8.6621 3.33932L 3.87169 3.33932L 3.87169 7.92271L 8.39961 7.92271L 8.39961 11.1311Z"/>
<path id="path4_fill" d="M -1.00131e-06 19.8395L -1.00131e-06 -4.99549e-07L 3.54358 -4.99549e-07L 6.62781 7.79175C 7.21841 9.29772 8.20274 11.9168 8.72772 13.6192L 8.79334 13.6192C 8.6621 11.5239 8.39961 8.05366 8.39961 4.45243L 8.39961 0.0654779L 11.8119 0.0654779L 11.8119 19.905L 8.26836 19.905L 5.24975 12.3751C 4.59353 10.6727 3.67483 8.18461 3.21548 6.41673L 3.14985 6.41673C 3.2811 8.44652 3.41234 11.4585 3.41234 15.518L 3.41234 19.9705L -1.00131e-06 19.9705L -1.00131e-06 19.8395Z"/>
<path id="path5_fill" d="M 3.54358 3.53575L -2.00262e-06 3.53575L -2.00262e-06 9.99098e-07L 10.8932 9.99098e-07L 10.8932 3.53575L 7.41528 3.53575L 7.41528 19.8395L 3.54358 19.8395L 3.54358 3.53575Z"/>
<path id="path6_fill" d="M 8.39961 11.1311L 3.8717 11.1311L 3.8717 16.5002L 8.9902 16.5002L 8.9902 19.8395L 1.00131e-06 19.8395L 1.00131e-06 -4.99549e-07L 8.66209 -4.99549e-07L 8.66209 3.33932L 3.8717 3.33932L 3.8717 7.92271L 8.39961 7.92271L 8.39961 11.1311Z"/>
<path id="path7_fill" d="M 0.0656199 -4.99549e-07L 3.93732 -4.99549e-07L 3.93732 8.97033L 4.00294 8.97033C 4.33105 8.11913 4.59354 7.26793 4.92165 6.41673L 7.54653 0.0654779L 11.812 0.0654779L 7.34966 8.70843L 11.8776 19.905L 7.61214 19.905L 4.72478 11.6549L 3.87169 13.2918L 3.87169 19.905L 4.00525e-06 19.905L 4.00525e-06 -4.99549e-07L 0.0656199 -4.99549e-07Z"/>
<path id="path8_fill" d="M 2.00262e-06 19.8395L 2.00262e-06 -4.99549e-07L 3.54358 -4.99549e-07L 6.62781 7.79175C 7.21841 9.29772 8.20275 11.9168 8.72772 13.6192L 8.79334 13.6192C 8.66209 11.5239 8.39961 8.05366 8.39961 4.45243L 8.39961 0.0654779L 11.812 0.0654779L 11.812 19.905L 8.26836 19.905L 5.24976 12.3751C 4.59354 10.6727 3.67483 8.18461 3.21547 6.41673L 3.14986 6.41673C 3.2811 8.44652 3.41234 11.4585 3.41234 15.518L 3.41234 19.9705L 2.00262e-06 19.9705L 2.00262e-06 19.8395Z"/>
<path id="path9_fill" d="M 3.87169 -4.99549e-07L 3.87169 19.8395L 4.00525e-06 19.8395L 4.00525e-06 -4.99549e-07L 3.87169 -4.99549e-07Z"/>
<path id="path10_fill" d="M 0.0656219 0L 1.44368 0L 1.44368 5.1072L 1.50931 5.1072C 1.77179 4.71434 2.0999 4.32147 2.36239 3.99409L 5.57786 0L 7.28404 0L 3.41234 4.51791L 7.54652 10.6073L 5.90597 10.6073L 2.42801 5.43458L 1.37806 6.61317L 1.37806 10.6727L -2.50328e-07 10.6727L -2.50328e-07 0L 0.0656219 0Z"/>
<path id="path11_fill" d="M 2.55926 7.26793L 1.44368 10.6073L 2.33136e-15 10.6073L 3.67483 0L 5.31538 0L 8.92458 10.6073L 7.4809 10.6073L 6.36533 7.26793L 2.55926 7.26793ZM 6.03722 6.22031L 4.98727 3.14289C 4.72478 2.42265 4.59354 1.83336 4.46229 1.17859C 4.33105 1.76788 4.13418 2.42264 3.93732 3.07741L 2.88737 6.15483L 6.03722 6.15483L 6.03722 6.22031Z"/>
<path id="path12_fill" d="M 1.00131e-06 0L 1.37806 0L 1.37806 9.42867L 5.90598 9.42867L 5.90598 10.6073L 1.00131e-06 10.6073L 1.00131e-06 0Z"/>
<path id="path13_fill" d="M 9.12145 5.9584C 9.05583 4.45243 8.92458 2.68455 8.92458 1.37501C 8.53085 2.61907 8.13712 3.92861 7.61214 5.3691L 5.70911 10.4763L 4.65916 10.4763L 2.95299 5.43458C 2.42801 3.92862 2.03428 2.5536 1.77179 1.30954C 1.77179 2.61908 1.64055 4.38695 1.57493 6.02387L 1.31244 10.5418L -9.32544e-15 10.5418L 0.656219 0L 2.42801 0L 4.26543 5.1072C 4.72478 6.41674 5.05289 7.59532 5.31538 8.64295C 5.57786 7.59532 5.9716 6.41674 6.43095 5.1072L 8.33398 0L 10.1058 0L 10.762 10.6073L 9.38394 10.6073L 9.12145 5.9584Z"/>
<path id="path14_fill" d="M 2.55926 7.26793L 1.44368 10.6073L -1.00131e-06 10.6073L 3.60921 0L 5.24975 0L 8.85896 10.6073L 7.41528 10.6073L 6.2997 7.26793L 2.55926 7.26793ZM 6.03722 6.22031L 4.98727 3.14289C 4.72478 2.42265 4.59354 1.83336 4.46229 1.17859C 4.33105 1.76788 4.13418 2.42264 3.93732 3.07741L 2.88737 6.15483L 6.03722 6.15483L 6.03722 6.22031Z"/>
<path id="path15_fill" d="M 0.0656219 0.196433C 0.787463 0.0654789 1.77179 0 2.6905 0C 4.13418 0 5.11851 0.26191 5.77473 0.851202C 6.2997 1.30954 6.62782 2.02978 6.62782 2.88098C 6.62782 4.256 5.77473 5.17267 4.65916 5.56554L 4.65916 5.63101C 5.44662 5.89292 5.9716 6.67864 6.23408 7.79175C 6.56219 9.29772 6.82468 10.2799 7.02155 10.6727L 5.57787 10.6727C 5.381 10.3454 5.18413 9.49415 4.85602 8.11914C 4.52792 6.67864 3.93732 6.08935 2.6905 6.08935L 1.37806 6.08935L 1.37806 10.6727L 1.00131e-06 10.6727L 1.00131e-06 0.196433L 0.0656219 0.196433ZM 1.44368 4.97624L 2.82174 4.97624C 4.26542 4.97624 5.18413 4.19052 5.18413 2.94646C 5.18413 1.57145 4.1998 0.982153 2.75612 0.982153C 2.0999 0.982153 1.64055 1.04763 1.37806 1.11311L 1.37806 4.97624L 1.44368 4.97624Z"/>
</defs>
</svg>
